<svg width="24" height="24" viewBox="0 0 24 24" fill="none" xmlns="http://www.w3.org/2000/svg">
<path d="M21 9C21 8.73478 20.8946 8.48043 20.7071 8.29289C20.5196 8.10536 20.2652 8 20 8C19.7348 8 19.4804 8.10536 19.2929 8.29289C19.1054 8.48043 19 8.73478 19 9V11H17C16.7348 11 16.4804 11.1054 16.2929 11.2929C16.1054 11.4804 16 11.7348 16 12C16 12.2652 16.1054 12.5196 16.2929 12.7071C16.4804 12.8946 16.7348 13 17 13H19V15C19 15.2652 19.1054 15.5196 19.2929 15.7071C19.4804 15.8946 19.7348 16 20 16C20.2652 16 20.5196 15.8946 20.7071 15.7071C20.8946 15.5196 21 15.2652 21 15V13H23C23.2652 13 23.5196 12.8946 23.7071 12.7071C23.8946 12.5196 24 12.2652 24 12C24 11.7348 23.8946 11.4804 23.7071 11.2929C23.5196 11.1054 23.2652 11 23 11H21V9ZM8 5C6.93913 5 5.92172 5.42143 5.17157 6.17157C4.42143 6.92172 4 7.93913 4 9C4 10.0609 4.42143 11.0783 5.17157 11.8284C5.92172 12.5786 6.93913 13 8 13C9.06087 13 10.0783 12.5786 10.8284 11.8284C11.5786 11.0783 12 10.0609 12 9C12 7.93913 11.5786 6.92172 10.8284 6.17157C10.0783 5.42143 9.06087 5 8 5ZM2 9C2 8.21207 2.15519 7.43185 2.45672 6.7039C2.75825 5.97595 3.20021 5.31451 3.75736 4.75736C4.31451 4.20021 4.97595 3.75825 5.7039 3.45672C6.43185 3.15519 7.21207 3 8 3C8.78793 3 9.56815 3.15519 10.2961 3.45672C11.0241 3.75825 11.6855 4.20021 12.2426 4.75736C12.7998 5.31451 13.2417 5.97595 13.5433 6.7039C13.8448 7.43185 14 8.21207 14 9C14 10.5913 13.3679 12.1174 12.2426 13.2426C11.1174 14.3679 9.5913 15 8 15C6.4087 15 4.88258 14.3679 3.75736 13.2426C2.63214 12.1174 2 10.5913 2 9Z" fill="#119548"/>
<path d="M2.124 19H13.876C13.329 16.803 11.016 15 8 15C4.984 15 2.671 16.803 2.124 19ZM0 20C0 15.995 3.732 13 8 13C12.268 13 16 15.995 16 20C16 20.2652 15.8946 20.5196 15.7071 20.7071C15.5196 20.8946 15.2652 21 15 21H1C0.734784 21 0.48043 20.8946 0.292893 20.7071C0.105357 20.5196 0 20.2652 0 20Z" fill="#119548"/>
</svg>
