<svg width="28" height="30" viewBox="0 0 28 30" fill="none" xmlns="http://www.w3.org/2000/svg">
<path d="M14.444 29.716C10.196 29.716 6.932 28.684 4.652 26.62C2.396 24.58 1.112 21.808 0.8 18.304C0.728 17.608 0.692 16.576 0.692 15.208C0.692 13.768 0.728 12.748 0.8 12.148C0.992 10.036 1.604 8.116 2.636 6.388C3.692 4.66 5.18 3.28 7.1 2.248C9.02 1.216 11.312 0.7 13.976 0.7C18.632 0.7 22.028 1.72 24.164 3.76C26.324 5.776 27.536 8.572 27.8 12.148C27.848 12.916 27.872 13.552 27.872 14.056C27.872 14.992 27.848 15.868 27.8 16.684C27.704 18.388 27.128 19.732 26.072 20.716C25.016 21.676 23.756 22.156 22.292 22.156C21.212 22.156 20.3 21.964 19.556 21.58C18.812 21.196 18.26 20.776 17.9 20.32C17.516 20.944 16.988 21.472 16.316 21.904C15.644 22.312 14.612 22.516 13.22 22.516C11.444 22.516 10.04 21.868 9.008 20.572C7.976 19.252 7.46 17.452 7.46 15.172C7.46 12.892 7.952 11.092 8.936 9.772C9.944 8.452 11.336 7.792 13.112 7.792C14 7.792 14.72 7.936 15.272 8.224C15.848 8.512 16.34 8.92 16.748 9.448V8.98C16.748 8.716 16.832 8.5 17 8.332C17.168 8.164 17.384 8.08 17.648 8.08H19.484C19.748 8.08 19.964 8.164 20.132 8.332C20.3 8.5 20.384 8.716 20.384 8.98V16.252C20.384 17.044 20.552 17.644 20.888 18.052C21.224 18.46 21.692 18.664 22.292 18.664C22.964 18.664 23.444 18.436 23.732 17.98C24.02 17.5 24.164 16.936 24.164 16.288C24.188 15.88 24.2 15.172 24.2 14.164C24.2 13.372 24.188 12.76 24.164 12.328C24.044 10.456 23.636 8.932 22.94 7.756C22.268 6.556 21.2 5.668 19.736 5.092C18.296 4.492 16.376 4.192 13.976 4.192C11.048 4.192 8.804 4.912 7.244 6.352C5.684 7.792 4.748 9.784 4.436 12.328C4.364 12.928 4.328 13.888 4.328 15.208C4.328 16.456 4.364 17.428 4.436 18.124C4.724 20.716 5.684 22.708 7.316 24.1C8.972 25.492 11.348 26.188 14.444 26.188C16.436 26.188 17.924 26.02 18.908 25.684C19.892 25.372 20.804 24.904 21.644 24.28C21.884 24.088 22.076 23.956 22.22 23.884C22.364 23.812 22.544 23.776 22.76 23.776H25.316C25.58 23.776 25.796 23.86 25.964 24.028C26.132 24.196 26.204 24.412 26.18 24.676C26.18 24.892 26.108 25.072 25.964 25.216C23.372 28.216 19.532 29.716 14.444 29.716ZM13.904 19.024C14.864 19.024 15.572 18.712 16.028 18.088C16.508 17.464 16.748 16.492 16.748 15.172C16.748 13.852 16.508 12.88 16.028 12.256C15.572 11.608 14.864 11.284 13.904 11.284C12.032 11.284 11.096 12.58 11.096 15.172C11.096 16.42 11.336 17.38 11.816 18.052C12.296 18.7 12.992 19.024 13.904 19.024Z" fill="#163E4F"/>
</svg>
