<svg width="40" height="40" viewBox="0 0 40 40" fill="none" xmlns="http://www.w3.org/2000/svg">
<rect width="40" height="40" fill="#E5E5E5"/>
<g id="Add Post - Can View" clip-path="url(#clip0_843_2)">
<rect width="414" height="896" transform="translate(-35 -757)" fill="white"/>
<g id="Group 1865">
<g id="Modal">
<g id="Rectangle 42" filter="url(#filter0_d_843_2)">
<path d="M-35 -130C-35 -149.602 -35 -159.403 -31.1852 -166.89C-27.8297 -173.475 -22.4753 -178.83 -15.8897 -182.185C-8.40276 -186 1.39816 -186 21 -186H323C342.602 -186 352.403 -186 359.89 -182.185C366.475 -178.83 371.83 -173.475 375.185 -166.89C379 -159.403 379 -149.602 379 -130V139H-35V-130Z" fill="white"/>
</g>
</g>
<g id="Group 1821">
<circle id="Ellipse 98" cx="20" cy="20" r="27" fill="#F5F5F5"/>
</g>
<g id="ri:user-follow-line">
<path id="Vector" d="M23.3327 23.7533V27.2366C21.8242 26.7033 20.2098 26.5397 18.625 26.7596C17.0402 26.9795 15.5313 27.5764 14.2251 28.5003C12.9188 29.4242 11.8533 30.648 11.118 32.069C10.3826 33.49 9.99904 35.0667 9.99935 36.6666L6.66602 36.665C6.6655 34.6298 7.13088 32.6215 8.02651 30.7939C8.92214 28.9664 10.2242 27.3682 11.833 26.1217C13.4418 24.8752 15.3146 24.0135 17.3079 23.6027C19.3012 23.1919 21.3621 23.2428 23.3327 23.7516V23.7533ZM19.9993 21.6666C14.4743 21.6666 9.99935 17.1916 9.99935 11.6666C9.99935 6.14163 14.4743 1.66663 19.9993 1.66663C25.5243 1.66663 29.9993 6.14163 29.9993 11.6666C29.9993 17.1916 25.5243 21.6666 19.9993 21.6666ZM19.9993 18.3333C23.6827 18.3333 26.666 15.35 26.666 11.6666C26.666 7.98329 23.6827 4.99996 19.9993 4.99996C16.316 4.99996 13.3327 7.98329 13.3327 11.6666C13.3327 15.35 16.316 18.3333 19.9993 18.3333ZM29.6543 33.19L35.546 27.2983L37.9043 29.655L29.6543 37.905L23.761 32.0116L26.1193 29.655L29.6527 33.19H29.6543Z" fill="#163E4F"/>
</g>
</g>
</g>
<defs>
<filter id="filter0_d_843_2" x="-47" y="-202" width="438" height="349" filterUnits="userSpaceOnUse" color-interpolation-filters="sRGB">
<feFlood flood-opacity="0" result="BackgroundImageFix"/>
<feColorMatrix in="SourceAlpha" type="matrix" values="0 0 0 0 0 0 0 0 0 0 0 0 0 0 0 0 0 0 127 0" result="hardAlpha"/>
<feOffset dy="-4"/>
<feGaussianBlur stdDeviation="6"/>
<feColorMatrix type="matrix" values="0 0 0 0 0.677032 0 0 0 0 0.72576 0 0 0 0 0.797724 0 0 0 0.2 0"/>
<feBlend mode="normal" in2="BackgroundImageFix" result="effect1_dropShadow_843_2"/>
<feBlend mode="normal" in="SourceGraphic" in2="effect1_dropShadow_843_2" result="shape"/>
</filter>
<clipPath id="clip0_843_2">
<rect width="414" height="896" fill="white" transform="translate(-35 -757)"/>
</clipPath>
</defs>
</svg>
