<svg width="20" height="20" viewBox="0 0 20 20" fill="none" xmlns="http://www.w3.org/2000/svg">
<path d="M8.33366 13.3333V12.5H2.50866L2.50033 15.8333C2.50033 16.7583 3.24199 17.5 4.16699 17.5H15.8337C16.7587 17.5 17.5003 16.7583 17.5003 15.8333V12.5H11.667V13.3333H8.33366ZM16.667 5.83333H13.3253V4.16667L11.6587 2.5H8.32533L6.65866 4.16667V5.83333H3.33366C2.41699 5.83333 1.66699 6.58333 1.66699 7.5V10C1.66699 10.925 2.40866 11.6667 3.33366 11.6667H8.33366V10H11.667V11.6667H16.667C17.5837 11.6667 18.3337 10.9167 18.3337 10V7.5C18.3337 6.58333 17.5837 5.83333 16.667 5.83333ZM11.667 5.83333H8.33366V4.16667H11.667V5.83333Z" fill="#119548"/>
</svg>
