<svg width="51" height="48" viewBox="0 0 51 48" fill="none" xmlns="http://www.w3.org/2000/svg">
<path d="M49.5243 23.725C49.5243 26.3116 47.9007 28.6122 47.1378 30.9474C46.3469 33.3664 46.2732 36.1706 44.7979 38.1841C43.308 40.217 40.6366 41.1472 38.5894 42.6273C36.5644 44.0949 34.8545 46.3367 32.4196 47.1225C30.0709 47.8804 27.3714 47.0859 24.7678 47.0859C22.1642 47.0859 19.4646 47.8804 17.1101 47.1225C14.6752 46.3367 12.9672 44.092 10.9413 42.6264C8.89411 41.1463 6.22265 40.2189 4.73765 38.1832C3.26234 36.1696 3.18673 33.3683 2.3977 30.9464C1.63484 28.6122 0.0102539 26.3116 0.0102539 23.7241C0.0102539 21.1366 1.63484 18.837 2.3977 16.5018C3.1877 14.0828 3.26234 11.2795 4.73765 9.26595C6.22459 7.23407 8.89896 6.30383 10.9462 4.82373C12.9721 3.36097 14.68 1.11338 17.1149 0.327596C19.4646 -0.430267 22.1642 0.364189 24.7726 0.364189C27.3811 0.364189 30.07 -0.430267 32.4196 0.327596C34.8545 1.11338 36.5644 3.36097 38.5894 4.82373C40.6366 6.30383 43.308 7.23118 44.7979 9.26787C46.2732 11.2805 46.3488 14.0828 47.1378 16.5037C47.9055 18.8379 49.5243 21.1385 49.5243 23.725Z" fill="#E1D9C5"/>
<path d="M47.9215 23.7255C47.9215 26.157 46.3938 28.3199 45.6775 30.5135C44.934 32.7871 44.8642 35.4247 43.4781 37.316C42.0774 39.2285 39.5698 40.1019 37.6418 41.4953C35.7361 42.8724 34.1309 44.9832 31.8423 45.7218C29.6332 46.4344 27.0927 45.6872 24.649 45.6872C22.2053 45.6872 19.6637 46.4344 17.4547 45.7218C15.1661 44.9813 13.5609 42.8714 11.6533 41.4953C9.72915 40.1038 7.21763 39.2304 5.81695 37.3179C4.43082 35.4257 4.36297 32.7919 3.61756 30.5155C2.90316 28.3199 1.37842 26.157 1.37842 23.7255C1.37842 21.294 2.90316 19.1311 3.6195 16.9394C4.36297 14.6658 4.43276 12.0282 5.81889 10.1369C7.21957 8.22351 9.73108 7.34912 11.6533 5.96148C13.5589 4.58442 15.1641 2.47357 17.4527 1.73497C19.6618 1.02237 22.2024 1.76964 24.647 1.76964C27.0917 1.76964 29.6313 1.02237 31.8404 1.73497C34.129 2.47357 35.7342 4.58442 37.6399 5.96148C39.564 7.35298 42.0755 8.22736 43.4762 10.1389C44.8623 12.0311 44.9302 14.6649 45.6756 16.9413C46.3938 19.1311 47.9215 21.294 47.9215 23.7255Z" fill="#F57500"/>
<path d="M20.6904 7.27162L21.82 7.41963L21.5614 6.38841L22.0618 5.43688L20.9252 5.34661L20.105 4.6106L19.6616 5.58571L18.6538 6.08262L19.5161 6.77552L19.7133 7.81814L20.6904 7.27162Z" fill="white"/>
<path d="M29.3669 7.27162L28.3038 7.41963L28.5471 6.38841L28.0762 5.43688L29.1459 5.34661L29.9179 4.6106L30.3352 5.58571L31.2837 6.08262L30.4721 6.77552L30.2866 7.81814L29.3669 7.27162Z" fill="white"/>
<path d="M24.9688 7.06136L23.4203 7.61771L23.4652 5.95875L22.4629 4.64352L24.0397 4.17457L24.9688 2.8064L25.8979 4.17457L27.4747 4.64352L26.4723 5.95875L26.5173 7.61771L24.9688 7.06136Z" fill="white"/>
<path d="M13.2301 26.0899C13.093 25.3755 13.0215 24.6379 13.0215 23.8834C13.0215 17.447 18.2392 12.229 24.6759 12.229C31.1126 12.229 36.3303 17.447 36.3303 23.8834C36.3303 27.1922 34.9514 30.179 32.737 32.3003C31.6763 33.2013 30.4287 33.8595 29.0807 34.2051C23.063 35.748 21.4956 30.262 22.313 29.256" stroke="#E1D9C5" stroke-width="5" stroke-miterlimit="10" stroke-linecap="round" stroke-linejoin="round"/>
<path d="M23.3112 30.8855C23.3112 30.8855 27.7475 31.6664 29.3448 26.1298C30.9418 20.5932 28.3865 16.5474 27.2508 15.8374C27.2508 15.8374 27.3624 18.8896 25.0351 20.5223C22.7078 22.1549 20.6847 21.871 19.6555 23.3805C18.4668 25.1241 18.5555 27.7624 20.2234 29.395C20.2234 29.395 22.353 24.19 26.1857 23.8466C26.1857 23.8466 22.6054 26.6611 21.6818 29.3448C21.5355 29.7702 21.7177 30.2414 22.1094 30.4623C22.4661 30.663 22.9208 30.8687 23.3112 30.8855Z" fill="#E1D9C5"/>
<path d="M17.5639 33.2042L16.9948 30.8823C17.307 30.6785 17.4724 30.2931 17.3786 29.9106L16.7541 27.3633C16.6352 26.8788 16.1462 26.5821 15.6617 26.701L11.4973 27.7216C11.0124 27.8405 10.7161 28.3295 10.8347 28.8141L11.4592 31.3614C11.5733 31.8269 12.0289 32.1187 12.4944 32.0358L13.053 34.3144C13.128 34.6209 13.4377 34.8085 13.7442 34.7335L13.8284 34.7128C14.1527 34.6333 14.3511 34.3062 14.2717 33.9819L13.7216 31.7372L15.7812 31.2323L16.3427 33.5237C16.4158 33.8219 16.7169 34.0048 17.0155 33.9316L17.1423 33.9005C17.4507 33.8248 17.6396 33.5132 17.5639 33.2042Z" fill="#E1D9C5"/>
</svg>
