<svg width="16" height="16" viewBox="0 0 16 16" fill="none" xmlns="http://www.w3.org/2000/svg">
<g clip-path="url(#clip0_1238_12629)">
<path d="M12.2292 4.70931C12.098 4.48184 11.9231 4.28246 11.7148 4.12255C11.5064 3.96265 11.2686 3.84535 11.0149 3.77737C10.7612 3.70938 10.4966 3.69204 10.2362 3.72632C9.9758 3.76061 9.7247 3.84585 9.49725 3.97719C9.35114 4.06143 9.21621 4.16371 9.09562 4.28162L8.18913 2.71156C8.02745 2.43202 7.80054 2.19575 7.52776 2.02292C7.25498 1.85009 6.94443 1.74583 6.62262 1.71904C6.30081 1.69225 5.97729 1.74372 5.67969 1.86907C5.38209 1.99442 5.11923 2.18992 4.91356 2.43887C4.53876 2.18526 4.08904 2.06622 3.63784 2.10121C3.18665 2.1362 2.76065 2.32315 2.42943 2.63151C2.09821 2.93988 1.88134 3.35145 1.81424 3.799C1.74714 4.24654 1.83378 4.70362 2.06 5.09556L2.09169 5.15044C1.79759 5.23215 1.52609 5.38009 1.29799 5.58293C1.06989 5.78576 0.891243 6.03811 0.775724 6.32065C0.660206 6.60319 0.610884 6.90842 0.631537 7.21296C0.65219 7.5175 0.742269 7.81327 0.894875 8.07763L3.51988 12.6243C3.89743 13.2782 4.40008 13.8514 4.99915 14.311C5.59821 14.7707 6.28195 15.1079 7.01132 15.3034C7.7407 15.4988 8.50143 15.5487 9.25007 15.4501C9.99872 15.3515 10.7206 15.1065 11.3746 14.7289C12.0285 14.3514 12.6017 13.8487 13.0614 13.2497C13.521 12.6506 13.8582 11.9669 14.0537 11.2375C14.2491 10.5081 14.299 9.74739 14.2004 8.99874C14.1019 8.25009 13.8568 7.52819 13.4792 6.87425L12.2292 4.70931ZM10.6246 13.4299C9.64811 13.9922 8.48847 14.1442 7.40008 13.8526C6.31168 13.5609 5.38342 12.8495 4.81894 11.8743L2.19394 7.32762C2.12763 7.21278 2.10967 7.0763 2.14399 6.9482C2.17832 6.82011 2.26212 6.7109 2.37697 6.64459C2.49182 6.57829 2.6283 6.56032 2.75639 6.59465C2.88448 6.62897 2.9937 6.71278 3.06 6.82762L4.435 9.20925L4.43513 9.2095L4.685 9.64219C4.73425 9.72748 4.79981 9.80225 4.87795 9.86221C4.95609 9.92217 5.04527 9.96615 5.14041 9.99164C5.23555 10.0171 5.33477 10.0236 5.43242 10.0108C5.53007 9.99793 5.62423 9.96596 5.70953 9.91672C5.79483 9.86747 5.86959 9.80191 5.92955 9.72377C5.98951 9.64563 6.03349 9.55645 6.05898 9.46131C6.08448 9.36617 6.09098 9.26695 6.07813 9.1693C6.06527 9.07165 6.03331 8.97748 5.98406 8.89219L3.35906 4.3455C3.29539 4.23083 3.27932 4.09572 3.31433 3.96932C3.34934 3.84291 3.43262 3.73532 3.54622 3.66974C3.65982 3.60417 3.79464 3.58586 3.92161 3.61876C4.04858 3.65166 4.15754 3.73313 4.225 3.84562L4.725 4.71163L5.5375 6.11894L6.85 8.39225C6.89925 8.47755 6.96481 8.55231 7.04295 8.61227C7.12109 8.67223 7.21027 8.71621 7.30541 8.7417C7.40055 8.7672 7.49977 8.7737 7.59742 8.76085C7.69507 8.74799 7.78923 8.71603 7.87453 8.66678C7.95983 8.61754 8.03459 8.55197 8.09455 8.47383C8.15451 8.39569 8.19849 8.30651 8.22399 8.21137C8.24948 8.11624 8.25598 8.01701 8.24313 7.91936C8.23027 7.82171 8.19831 7.72755 8.14906 7.64225L7.64906 6.77625L6.83656 5.36894L6.02406 3.96163C5.99071 3.90474 5.96895 3.84182 5.96001 3.77649C5.95108 3.71116 5.95516 3.6447 5.97201 3.58095C5.98887 3.5172 6.01817 3.45742 6.05822 3.40504C6.09827 3.35265 6.14829 3.30871 6.2054 3.27574C6.2625 3.24277 6.32557 3.22142 6.39096 3.21292C6.45635 3.20442 6.52277 3.20894 6.58641 3.22622C6.65005 3.2435 6.70964 3.27319 6.76175 3.31359C6.81386 3.35399 6.85747 3.4043 6.89006 3.46163L8.76494 6.709L8.76506 6.70931L9.89006 8.65781C9.93931 8.74311 10.0049 8.81787 10.083 8.87783C10.1612 8.93779 10.2503 8.98177 10.3455 9.00727C10.4406 9.03276 10.5398 9.03926 10.6375 9.02641C10.7351 9.01355 10.8293 8.98159 10.9146 8.93234C10.9999 8.8831 11.0747 8.81753 11.1346 8.7394C11.1946 8.66126 11.2386 8.57207 11.264 8.47694C11.2895 8.3818 11.296 8.28257 11.2832 8.18492C11.2703 8.08727 11.2384 7.99311 11.1891 7.90781L10.6891 7.04187V7.04181L10.0641 5.95931C10.0308 5.90243 10.009 5.83951 10.0001 5.77418C9.99114 5.70884 9.99522 5.64239 10.0121 5.57864C10.0289 5.51489 10.0582 5.4551 10.0983 5.40272C10.1383 5.35034 10.1884 5.3064 10.2455 5.27343C10.3026 5.24046 10.3656 5.21911 10.431 5.21061C10.4964 5.20211 10.5628 5.20663 10.6265 5.22391C10.6901 5.24118 10.7497 5.27088 10.8018 5.31128C10.8539 5.35168 10.8975 5.40199 10.9301 5.45931L12.1801 7.62431C12.7424 8.60077 12.8944 9.7604 12.6028 10.8488C12.3111 11.9372 11.5997 12.8654 10.6245 13.4299L10.6246 13.4299ZM9 1.75V0.75C9 0.551088 9.07902 0.360322 9.21967 0.21967C9.36032 0.0790176 9.55109 0 9.75 0C9.94891 0 10.1397 0.0790176 10.2803 0.21967C10.421 0.360322 10.5 0.551088 10.5 0.75V1.75C10.5 1.94891 10.421 2.13968 10.2803 2.28033C10.1397 2.42098 9.94891 2.5 9.75 2.5C9.55109 2.5 9.36032 2.42098 9.21967 2.28033C9.07902 2.13968 9 1.94891 9 1.75ZM11.6004 2.04487L12.1004 1.17881C12.1999 1.00654 12.3637 0.880828 12.5559 0.829337C12.748 0.777847 12.9527 0.804794 13.125 0.90425C13.2973 1.00371 13.423 1.16752 13.4745 1.35967C13.526 1.55181 13.499 1.75654 13.3996 1.92881L12.8996 2.79487C12.8503 2.88018 12.7848 2.95494 12.7066 3.01491C12.6285 3.07487 12.5393 3.11885 12.4441 3.14435C12.349 3.16985 12.2498 3.17635 12.1521 3.1635C12.0545 3.15065 11.9603 3.11868 11.875 3.06944C11.7897 3.02019 11.7149 2.95463 11.655 2.87649C11.595 2.79835 11.551 2.70916 11.5255 2.61402C11.5 2.51888 11.4935 2.41965 11.5064 2.322C11.5192 2.22434 11.5512 2.13018 11.6004 2.04487ZM15.3212 4.39956L14.4551 4.89956C14.2829 4.99902 14.0781 5.02597 13.886 4.97447C13.6938 4.92298 13.53 4.79727 13.4306 4.625C13.3311 4.45273 13.3042 4.248 13.3556 4.05585C13.4071 3.86371 13.5329 3.69989 13.7051 3.60044L14.5712 3.10044C14.7435 3.00098 14.9482 2.97403 15.1403 3.02552C15.3325 3.07702 15.4963 3.20273 15.5957 3.375C15.6952 3.54727 15.7222 3.752 15.6707 3.94414C15.6192 4.13629 15.4935 4.30011 15.3212 4.39956Z" fill="#119548"/>
</g>
<defs>
<clipPath id="clip0_1238_12629">
<rect width="16" height="16" fill="white"/>
</clipPath>
</defs>
</svg>
