<svg width="16" height="16" viewBox="0 0 16 16" fill="none" xmlns="http://www.w3.org/2000/svg">
<g clip-path="url(#clip0_1238_12427)">
<path d="M13.6662 2.37892C12.1132 0.80718 9.98012 -0.0535348 7.7722 0.00259875C3.37507 0.133577 -0.0677915 3.78226 0.0631868 8.17939C0.081898 9.09624 0.26901 9.99437 0.605811 10.8364C0.886479 11.5474 1.2607 12.2023 1.72848 12.801L1.07359 14.3541C0.811634 14.9528 1.0923 15.6452 1.69106 15.9071C1.89688 16.0007 2.14013 16.0194 2.36466 15.982L5.39587 15.458C6.48112 15.8323 7.62251 15.9632 8.76389 15.851C12.6745 15.458 15.7244 12.2584 15.9303 8.32908C16.0425 6.10245 15.2192 3.95066 13.6662 2.37892ZM7.41668 11.117H5.33974C5.02165 11.117 4.74098 10.8551 4.74098 10.5183C4.74098 10.2002 5.00294 9.91953 5.33974 9.91953H7.41668C7.73477 9.91953 8.01544 10.1815 8.01544 10.5183C8.01544 10.8551 7.75348 11.117 7.41668 11.117ZM10.6537 8.68459H5.33974C5.02165 8.68459 4.74098 8.42263 4.74098 8.08583C4.74098 7.74903 5.00294 7.48707 5.33974 7.48707H10.6537C10.9718 7.48707 11.2525 7.74903 11.2525 8.08583C11.2525 8.42263 10.9718 8.68459 10.6537 8.68459ZM10.6537 6.23342H5.33974C5.02165 6.23342 4.74098 5.97147 4.74098 5.63467C4.74098 5.31658 5.00294 5.03591 5.33974 5.03591H10.6537C10.9718 5.03591 11.2525 5.29786 11.2525 5.63467C11.2525 5.95276 10.9718 6.23342 10.6537 6.23342Z" fill="#119548"/>
</g>
<defs>
<clipPath id="clip0_1238_12427">
<rect width="16" height="16" fill="white"/>
</clipPath>
</defs>
</svg>
