<svg width="25" height="16" viewBox="0 0 25 16" fill="none" xmlns="http://www.w3.org/2000/svg">
<path d="M12.2665 7.46667C14.3284 7.46667 15.9999 5.7952 15.9999 3.73334C15.9999 1.67147 14.3284 0 12.2665 0C10.2047 0 8.5332 1.67147 8.5332 3.73334C8.5332 5.7952 10.2047 7.46667 12.2665 7.46667Z" fill="#119548"/>
<path d="M19.733 9.59999C21.2058 9.59999 22.3997 8.40609 22.3997 6.93334C22.3997 5.4606 21.2058 4.2667 19.733 4.2667C18.2603 4.2667 17.0664 5.4606 17.0664 6.93334C17.0664 8.40609 18.2603 9.59999 19.733 9.59999Z" fill="#119548"/>
<path d="M4.87562 9.59999C6.34837 9.59999 7.54226 8.40609 7.54226 6.93334C7.54226 5.4606 6.34837 4.2667 4.87562 4.2667C3.40288 4.2667 2.20898 5.4606 2.20898 6.93334C2.20898 8.40609 3.40288 9.59999 4.87562 9.59999Z" fill="#119548"/>
<path d="M12.2663 8.53333C8.44339 8.53333 5.33301 11.6437 5.33301 15.4666C5.33301 15.761 5.57196 16 5.86636 16H18.6663C18.9607 16 19.1996 15.761 19.1996 15.4666C19.1996 11.6437 16.0893 8.53333 12.2663 8.53333Z" fill="#119548"/>
<path d="M5.79518 10.7819C5.46878 10.7125 5.13703 10.6667 4.79998 10.6667C2.15359 10.6667 0 12.8203 0 15.4667C0 15.7611 0.238949 16 0.533348 16H4.36478C4.30503 15.8326 4.26663 15.6544 4.26663 15.4667C4.26663 13.7163 4.83838 12.1003 5.79518 10.7819Z" fill="#119548"/>
<path d="M19.7335 10.6667C19.3964 10.6667 19.0647 10.7125 18.7383 10.7819C19.6951 12.1003 20.2668 13.7163 20.2668 15.4667C20.2668 15.6544 20.2284 15.8325 20.1687 16H24.0001C24.2945 16 24.5335 15.7611 24.5335 15.4667C24.5335 12.8203 22.3799 10.6667 19.7335 10.6667Z" fill="#119548"/>
</svg>
