<svg width="12" height="12" viewBox="0 0 12 12" fill="none" xmlns="http://www.w3.org/2000/svg">
<g clip-path="url(#clip0_1238_15407)">
<path d="M10.4895 11.2258H9.72618V1.74194C9.72618 1.52814 9.55288 1.35484 9.33908 1.35484H6.43586V0.387097C6.43586 0.173298 6.26256 0 6.04876 0H3.36328C3.14948 0 2.97618 0.173298 2.97618 0.387097V1.35484H2.66166C2.44787 1.35484 2.27457 1.52814 2.27457 1.74194V11.2258H1.51124C1.30274 11.2258 1.12342 11.3861 1.11371 11.5944C1.10336 11.8167 1.28036 12 1.50037 12H4.25844C4.36533 12 4.45199 11.9133 4.45199 11.8065V9.58064H4.29357C4.08514 9.58064 3.90579 9.42046 3.89597 9.21227C3.8855 8.98998 4.06264 8.80645 4.28263 8.80645C4.39951 8.80645 7.80388 8.80645 7.70718 8.80645C7.91561 8.80645 8.09495 8.96664 8.10478 9.17482C8.11525 9.39711 7.93813 9.58064 7.71812 9.58064H7.54876V11.8065C7.54876 11.9133 7.63542 12 7.74231 12H10.5004C10.7204 12 10.8974 11.8167 10.887 11.5944C10.8773 11.3861 10.698 11.2258 10.4895 11.2258ZM5.05683 8.00806H4.62134C4.40757 8.00806 4.23425 7.83474 4.23425 7.62097C4.23425 7.40719 4.40757 7.23387 4.62134 7.23387H5.05683C5.2706 7.23387 5.44392 7.40719 5.44392 7.62097C5.44392 7.83474 5.2706 8.00806 5.05683 8.00806ZM5.05683 6.55645H4.62134C4.40757 6.55645 4.23425 6.38313 4.23425 6.16935C4.23425 5.95558 4.40757 5.78226 4.62134 5.78226H5.05683C5.2706 5.78226 5.44392 5.95558 5.44392 6.16935C5.44392 6.38313 5.2706 6.55645 5.05683 6.55645ZM5.05683 5.10484H4.62134C4.40757 5.10484 4.23425 4.93152 4.23425 4.71774C4.23425 4.50397 4.40757 4.33065 4.62134 4.33065H5.05683C5.2706 4.33065 5.44392 4.50397 5.44392 4.71774C5.44392 4.93152 5.2706 5.10484 5.05683 5.10484ZM5.05683 3.65323H4.62134C4.40757 3.65323 4.23425 3.4799 4.23425 3.26613C4.23425 3.05235 4.40757 2.87903 4.62134 2.87903H5.05683C5.2706 2.87903 5.44392 3.05235 5.44392 3.26613C5.44392 3.4799 5.2706 3.65323 5.05683 3.65323ZM7.35521 8.00806H6.91973C6.70593 8.00806 6.53263 7.83474 6.53263 7.62097C6.53263 7.40719 6.70593 7.23387 6.91973 7.23387H7.35521C7.56901 7.23387 7.74231 7.40719 7.74231 7.62097C7.74231 7.83474 7.56901 8.00806 7.35521 8.00806ZM7.35521 6.55645H6.91973C6.70593 6.55645 6.53263 6.38313 6.53263 6.16935C6.53263 5.95558 6.70593 5.78226 6.91973 5.78226H7.35521C7.56901 5.78226 7.74231 5.95558 7.74231 6.16935C7.74231 6.38313 7.56901 6.55645 7.35521 6.55645ZM7.35521 5.10484H6.91973C6.70593 5.10484 6.53263 4.93152 6.53263 4.71774C6.53263 4.50397 6.70593 4.33065 6.91973 4.33065H7.35521C7.56901 4.33065 7.74231 4.50397 7.74231 4.71774C7.74231 4.93152 7.56901 5.10484 7.35521 5.10484ZM7.35521 3.65323H6.91973C6.70593 3.65323 6.53263 3.4799 6.53263 3.26613C6.53263 3.05235 6.70593 2.87903 6.91973 2.87903H7.35521C7.56901 2.87903 7.74231 3.05235 7.74231 3.26613C7.74231 3.4799 7.56901 3.65323 7.35521 3.65323ZM5.22618 11.8065V9.77419C5.22618 9.66731 5.31284 9.58064 5.41973 9.58064H6.58102C6.68791 9.58064 6.77457 9.66731 6.77457 9.77419V11.8065C6.77457 11.9133 6.68791 12 6.58102 12H5.41973C5.31284 12 5.22618 11.9133 5.22618 11.8065Z" fill="#119548"/>
</g>
<defs>
<clipPath id="clip0_1238_15407">
<rect width="12" height="12" fill="white"/>
</clipPath>
</defs>
</svg>
