<svg width="51" height="48" viewBox="0 0 51 48" fill="none" xmlns="http://www.w3.org/2000/svg">
<path d="M49.3526 23.6963C49.3526 26.2804 47.7436 28.5781 46.99 30.9094C46.2067 33.3254 46.1333 36.1261 44.6722 38.1324C43.1963 40.1636 40.5502 41.0913 38.5222 42.5696C36.514 44.0341 34.8217 46.277 32.4094 47.0603C30.0817 47.8175 27.407 47.0242 24.8244 47.0242C22.2417 47.0242 19.5696 47.8175 17.2394 47.0603C14.8258 46.277 13.136 44.0341 11.1266 42.5696C9.09852 41.0913 6.45122 40.1636 4.97525 38.1324C3.5142 36.1212 3.44084 33.3204 2.65747 30.9094C1.90145 28.5781 0.294922 26.2804 0.294922 23.6963C0.294922 21.1122 1.90394 18.8158 2.65747 16.4845C3.44084 14.0686 3.5142 11.2678 4.97525 9.26152C6.45619 7.22538 9.10349 6.29635 11.1378 4.81813C13.1397 3.35484 14.8308 1.10699 17.2431 0.327406C19.5708 -0.429765 22.2455 0.363521 24.8281 0.363521C27.4107 0.363521 30.0817 -0.429765 32.4131 0.327406C34.8254 1.11197 36.5165 3.35484 38.5259 4.81813C40.554 6.29635 43.2 7.22538 44.676 9.25654C46.137 11.2678 46.2104 14.0686 46.9938 16.4796C47.7436 18.8158 49.3526 21.1135 49.3526 23.6963Z" fill="#E1D9C5"/>
<path d="M47.8825 23.6962C47.8825 26.1247 46.3692 28.2853 45.6592 30.4759C44.9218 32.7474 44.8535 35.3801 43.4795 37.2705C42.0918 39.1809 39.6036 40.0539 37.6974 41.4424C35.7912 42.831 34.2158 44.9294 31.9515 45.6641C29.7642 46.3765 27.25 45.6305 24.8253 45.6305C22.4006 45.6305 19.8863 46.3777 17.6978 45.6641C15.4298 44.9269 13.8432 42.8185 11.9519 41.4424C10.0606 40.0663 7.55755 39.1809 6.16986 37.2705C4.80207 35.3801 4.72747 32.7474 3.99135 30.4759C3.2801 28.2853 1.76807 26.1247 1.76807 23.6962C1.76807 21.2678 3.2801 19.1084 3.99135 16.9228C4.72747 14.6513 4.79586 12.0186 6.16986 10.1282C7.55755 8.21908 10.0457 7.34609 11.9519 5.95628C13.8581 4.56648 15.4335 2.46931 17.6978 1.73456C19.8863 1.02347 22.3993 1.76943 24.8253 1.76943C27.2512 1.76943 29.763 1.02222 31.9515 1.73456C34.2195 2.4718 35.8061 4.58017 37.6974 5.95628C39.5887 7.33239 42.0918 8.21908 43.4795 10.1282C44.8472 12.0186 44.9218 14.6513 45.6592 16.9228C46.3692 19.1084 47.8825 21.2678 47.8825 23.6962Z" fill="#119548"/>
<path d="M25.5457 7.83776L23.9352 8.4167L23.9822 6.69006L22.9399 5.32031L24.5796 4.83201L25.5457 3.40674L26.5118 4.83201L28.1503 5.32031L27.1091 6.69006L27.1551 8.4167L25.5457 7.83776Z" fill="white"/>
<path d="M21.0483 8.03582L22.1103 8.19347L21.8669 7.09888L22.3387 6.08814L21.2692 5.99198L20.4975 5.21045L20.0801 6.2469L19.1323 6.77352L19.9435 7.50921L20.1292 8.61722L21.0483 8.03582Z" fill="white"/>
<path d="M29.9235 8.03582L28.794 8.19347L29.0525 7.09888L28.5513 6.08814L29.6876 5.99198L30.5076 5.21045L30.951 6.2469L31.958 6.77352L31.0961 7.50921L30.8999 8.61722L29.9235 8.03582Z" fill="white"/>
<path d="M34.0812 17.3912C33.3704 17.5115 32.6872 17.7575 32.0638 18.1176L29.4008 14.297C29.375 14.2543 29.3626 14.2049 29.3652 14.1551C29.3677 14.1054 29.3852 14.0575 29.4153 14.0176L30.554 12.7196C30.607 12.6646 30.646 12.5978 30.6678 12.5247C30.6896 12.4517 30.6935 12.3746 30.6793 12.2997C30.6635 12.2282 30.6318 12.1611 30.5865 12.1034C30.5412 12.0456 30.4834 11.9987 30.4175 11.966L30.281 11.8942C30.1515 11.8296 30.0044 11.8084 29.8618 11.8335C29.7152 11.8559 29.5805 11.9268 29.4795 12.0347L28.1946 13.4461C28.1689 13.4764 28.0613 13.5914 27.9777 13.6712C27.9198 13.7271 27.8805 13.7993 27.8653 13.8782C27.8501 13.957 27.8596 14.0386 27.8926 14.1118C27.9276 14.1867 27.9684 14.2588 28.0147 14.3274L28.254 14.6866C28.2619 14.6979 28.2674 14.7106 28.2702 14.7241C28.2729 14.7375 28.2729 14.7514 28.2701 14.7648C28.266 14.7762 28.2596 14.7866 28.2513 14.7954C28.243 14.8042 28.233 14.8112 28.2219 14.8159L20.6118 18.5152C20.5822 18.5196 20.5518 18.515 20.5248 18.5019C20.4979 18.4888 20.4755 18.4678 20.4609 18.4417L19.3173 16.3039C19.2533 16.1957 19.162 16.1059 19.0524 16.0435C18.9428 15.981 18.8188 15.9481 18.6925 15.9479L18.943 15.8457C19.0168 15.809 19.0799 15.754 19.1261 15.6861C19.1374 15.6685 19.2595 15.5168 19.963 15.1927C20.1503 15.1293 20.3329 15.0525 20.509 14.9628C20.5787 14.9245 20.635 14.8662 20.6705 14.7955C20.7061 14.7247 20.7193 14.645 20.7083 14.5666C20.6974 14.4883 20.6628 14.4151 20.6092 14.3568C20.5555 14.2984 20.4853 14.2575 20.4079 14.2396C20.2259 14.2023 20.041 14.1804 19.8553 14.1741C19.8292 14.1717 19.8028 14.1717 19.7766 14.1741C19.7422 14.1796 19.7087 14.1898 19.6771 14.2044C19.0993 14.4739 18.4886 14.6671 17.8605 14.7792C17.5431 14.8396 17.2192 14.8589 16.8968 14.8367C16.8664 14.8327 16.8356 14.8327 16.8052 14.8367C16.7474 14.8367 16.6671 14.8495 16.5964 14.8622C16.465 14.872 16.3379 14.9133 16.226 14.9825C16.1141 15.0517 16.0208 15.1469 15.954 15.2598C15.9058 15.3636 15.8799 15.4762 15.8776 15.5905C15.8754 15.7048 15.897 15.8184 15.9411 15.9239C15.9504 16.0033 15.9755 16.08 16.0149 16.1497C16.0544 16.2193 16.1073 16.2804 16.1708 16.3295C16.3908 16.5003 16.7506 16.5466 17.2405 16.4652C17.4244 16.4341 17.6054 16.3882 17.7818 16.3279L18.2122 16.1459C18.1974 16.1656 18.1839 16.1865 18.1721 16.2081C18.1425 16.2747 18.1291 16.3473 18.133 16.42C18.1369 16.4926 18.158 16.5634 18.1946 16.6264L20.1846 20.3369C20.2085 20.3931 20.2185 20.4542 20.2138 20.515C20.209 20.5758 20.1896 20.6347 20.1573 20.6865L19.5935 21.4337C18.322 20.6088 16.7852 20.2886 15.2874 20.5364C14.1157 20.722 13.0231 21.2411 12.142 22.0309C11.2608 22.8207 10.6288 23.8475 10.3225 24.9869C10.0161 26.1263 10.0484 27.3296 10.4156 28.4511C10.7828 29.5726 11.4691 30.5643 12.3915 31.3062C13.3138 32.0481 14.4327 32.5084 15.6128 32.6314C16.7928 32.7544 17.9834 32.5349 19.0405 31.9993C20.0977 31.4638 20.976 30.6352 21.5693 29.6138C22.1626 28.5924 22.4454 27.422 22.3834 26.2442L23.0613 26.1676C23.1473 26.169 23.2333 26.1626 23.3182 26.1484C23.8258 26.0638 24.3109 25.703 24.4345 25.4826L29.5004 16.5817L31.0278 18.8744L31.0118 18.8856C30.2545 19.5774 29.6819 20.4453 29.3454 21.4115C29.009 22.3777 28.9193 23.4118 29.0844 24.4209C29.2935 25.5983 29.8485 26.6878 30.6795 27.5521C31.5105 28.4164 32.5803 29.0169 33.754 29.2779C34.9278 29.5389 36.153 29.4486 37.2752 29.0186C38.3975 28.5885 39.3666 27.8379 40.0603 26.8613C40.7541 25.8846 41.1416 24.7257 41.1738 23.5306C41.2061 22.3354 40.8817 21.1575 40.2416 20.1453C39.6015 19.1331 38.6744 18.3319 37.5769 17.8426C36.4795 17.3534 35.2609 17.198 34.0747 17.396L34.0812 17.3912ZM17.0863 31.1728C15.8608 31.357 14.6116 31.0549 13.608 30.3319C12.6045 29.6088 11.927 28.5227 11.7218 27.3077C11.5165 26.0926 11.7999 24.8461 12.5107 23.8369C13.2216 22.8276 14.3031 22.1366 15.5219 21.9127C16.6352 21.7301 17.7772 21.9572 18.7342 22.5513L16.7474 25.1601C16.7394 25.1713 16.7378 25.1857 16.7297 25.1968C16.5163 25.1258 16.2887 25.1072 16.0664 25.1426C15.8047 25.183 15.5595 25.2947 15.3578 25.4654C15.1562 25.636 15.0061 25.8588 14.9241 26.1091C14.8422 26.3594 14.8317 26.6274 14.8937 26.8833C14.9557 27.1392 15.0878 27.373 15.2755 27.5588C15.4631 27.7445 15.6988 27.875 15.9565 27.9356C16.2142 27.9963 16.4837 27.9847 16.7352 27.9023C16.9867 27.8199 17.2103 27.6698 17.3811 27.4687C17.552 27.2676 17.6634 27.0233 17.7031 26.7631H17.7143L20.9748 26.3943C21.0199 27.5241 20.6503 28.6316 19.9349 29.5107C19.2196 30.3898 18.2072 30.9805 17.0863 31.1728ZM19.6096 23.2346C20.1843 23.8116 20.5987 24.5267 20.8126 25.3102L17.8187 25.6503L19.6096 23.2346ZM22.226 25.1426V25.1346C21.9496 23.9729 21.3351 22.9178 20.4593 22.1011L20.8447 21.5822L22.6983 25.0947L22.226 25.1426ZM21.704 20.7743C21.6804 20.7191 21.6707 20.659 21.6757 20.5991C21.6807 20.5393 21.7004 20.4816 21.7329 20.4311L23.0532 18.7483C23.1785 18.6018 23.3299 18.4794 23.4997 18.3875L27.7657 16.3119L23.4789 24.0872L21.704 20.7743ZM35.8801 28.0355C34.8917 28.1913 33.8791 28.0312 32.9882 27.5783C32.0973 27.1253 31.374 26.4029 30.9226 25.5151C30.4713 24.6273 30.3151 23.62 30.4766 22.6383C30.6381 21.6567 31.1089 20.7513 31.8213 20.0527L33.6523 22.8052C33.683 22.8493 33.7223 22.8867 33.768 22.9153C33.6795 23.1457 33.654 23.3952 33.6941 23.6386C33.7421 23.9143 33.8713 24.1697 34.0653 24.3726C34.2593 24.5754 34.5094 24.7165 34.784 24.7782C35.0586 24.8398 35.3454 24.8192 35.6083 24.719C35.8711 24.6187 36.0982 24.4433 36.2608 24.2148C36.4234 23.9864 36.5143 23.7152 36.522 23.4354C36.5297 23.1557 36.4538 22.8799 36.3039 22.643C36.1541 22.4061 35.937 22.2186 35.68 22.1043C35.423 21.9899 35.1378 21.9538 34.8602 22.0005C34.8313 22.0005 34.8056 22.0165 34.7782 22.0229C34.7724 22.0057 34.7649 21.9891 34.7558 21.9734L32.8733 19.2752C33.3235 19.0286 33.8122 18.8592 34.3189 18.7738C35.5444 18.5897 36.7936 18.8917 37.7972 19.6147C38.8007 20.3378 39.4782 21.4239 39.6834 22.639C39.8887 23.854 39.6053 25.1005 38.8944 26.1098C38.1836 27.119 37.1021 27.8101 35.8833 28.0339L35.8801 28.0355Z" fill="#E1D9C5"/>
</svg>
