<svg width="20" height="20" viewBox="0 0 20 20" fill="none" xmlns="http://www.w3.org/2000/svg">
<path d="M11.6663 11.8767V18.3333H3.33301C3.33275 17.3157 3.56544 16.3116 4.01326 15.3978C4.46107 14.4841 5.11212 13.6849 5.91652 13.0617C6.72092 12.4384 7.65732 12.0076 8.65397 11.8022C9.65062 11.5968 10.6811 11.6223 11.6663 11.8767ZM9.99967 10.8333C7.23717 10.8333 4.99967 8.59583 4.99967 5.83333C4.99967 3.07083 7.23717 0.833328 9.99967 0.833328C12.7622 0.833328 14.9997 3.07083 14.9997 5.83333C14.9997 8.59583 12.7622 10.8333 9.99967 10.8333ZM14.9997 14.1667V11.6667H16.6663V14.1667H19.1663V15.8333H16.6663V18.3333H14.9997V15.8333H12.4997V14.1667H14.9997Z" fill="#119548"/>
</svg>
