<svg width="51" height="48" viewBox="0 0 51 48" fill="none" xmlns="http://www.w3.org/2000/svg">
<path d="M49.748 23.7251C49.748 26.3116 48.1243 28.6122 47.3615 30.9474C46.5705 33.3664 46.4968 36.1706 45.0215 38.1842C43.5317 40.217 40.8602 41.1473 38.813 42.6273C36.7881 44.0949 35.0782 46.3367 32.6433 47.1225C30.2946 47.8804 27.595 47.0859 24.9914 47.0859C22.3878 47.0859 19.6882 47.8804 17.3337 47.1225C14.8988 46.3367 13.1909 44.092 11.165 42.6264C9.11775 41.1463 6.44629 40.2189 4.96128 38.1832C3.48597 36.1696 3.41036 33.3683 2.62133 30.9464C1.85848 28.6122 0.233887 26.3116 0.233887 23.7241C0.233887 21.1366 1.85848 18.837 2.62133 16.5018C3.41133 14.0828 3.48597 11.2795 4.96128 9.26595C6.44823 7.23407 9.12259 6.30383 11.1698 4.82374C13.1957 3.36097 14.9036 1.11339 17.3386 0.327596C19.6882 -0.430267 22.3878 0.364189 24.9963 0.364189C27.6047 0.364189 30.2936 -0.430267 32.6433 0.327596C35.0782 1.11339 36.7881 3.36097 38.813 4.82374C40.8602 6.30383 43.5317 7.23118 45.0215 9.26788C46.4968 11.2805 46.5725 14.0828 47.3615 16.5037C48.1292 18.8379 49.748 21.1385 49.748 23.7251Z" fill="#E1D9C5"/>
<path d="M48.1447 23.7255C48.1447 26.157 46.617 28.3199 45.9007 30.5135C45.1572 32.7871 45.0874 35.4247 43.7013 37.316C42.3006 39.2285 39.793 40.1019 37.865 41.4953C35.9593 42.8724 34.3541 44.9832 32.0655 45.7219C29.8564 46.4345 27.3158 45.6872 24.8721 45.6872C22.4285 45.6872 19.8869 46.4345 17.6778 45.7219C15.3892 44.9813 13.784 42.8714 11.8764 41.4953C9.95229 40.1038 7.44077 39.2304 6.0401 37.3179C4.65397 35.4257 4.58611 32.792 3.8407 30.5155C3.12631 28.3199 1.60156 26.157 1.60156 23.7255C1.60156 21.294 3.12631 19.1312 3.84264 16.9394C4.58611 14.6658 4.6559 12.0282 6.04204 10.1369C7.44271 8.22351 9.95423 7.34913 11.8764 5.96148C13.7821 4.58442 15.3873 2.47357 17.6759 1.73497C19.885 1.02237 22.4256 1.76964 24.8702 1.76964C27.3148 1.76964 29.8545 1.02237 32.0636 1.73497C34.3521 2.47357 35.9573 4.58442 37.863 5.96148C39.7871 7.35298 42.2987 8.22736 43.6993 10.1389C45.0855 12.0311 45.1533 14.6649 45.8987 16.9413C46.617 19.1312 48.1447 21.294 48.1447 23.7255Z" fill="#7B908B"/>
<path d="M25.4933 7.26177L23.8829 7.81811L23.9297 6.15917L22.8872 4.84395L24.5271 4.375L25.4933 3.00684L26.4596 4.375L28.0994 4.84395L27.057 6.15917L27.1037 7.81811L25.4933 7.26177Z" fill="white"/>
<path d="M21.1147 7.6386L22.2443 7.79586L21.9857 6.70019L22.4861 5.6892L21.3495 5.59328L20.5293 4.81128L20.0859 5.84733L19.0781 6.37529L19.9404 7.1115L20.1376 8.21927L21.1147 7.6386Z" fill="white"/>
<path d="M29.8714 7.6386L28.7419 7.79586L29.0004 6.70019L28.5 5.6892L29.6366 5.59328L30.4568 4.81128L30.9002 5.84733L31.908 6.37529L31.0457 7.1115L30.8485 8.21927L29.8714 7.6386Z" fill="white"/>
<path d="M26.9131 14.0394C27.2812 13.6515 27.5278 13.1624 27.6219 12.6334C27.716 12.1044 27.6535 11.5592 27.4421 11.066C27.2307 10.5728 26.8799 10.1537 26.4338 9.86123C25.9876 9.56877 25.4659 9.41599 24.9342 9.42205C24.4024 9.42811 23.8843 9.59274 23.4447 9.8953C23.0052 10.1979 22.6639 10.6249 22.4636 11.1227C22.2633 11.6206 22.2129 12.1672 22.3188 12.6939C22.4247 13.2205 22.6821 13.7039 23.0588 14.0833C22.5095 14.3876 22.0388 14.8182 21.6846 15.3404V17.8416H28.3001V15.3404C28.3001 15.3404 27.9409 14.5548 26.9131 14.0394Z" fill="#E1D9C5"/>
<path d="M32.9578 34.3672C30.8644 35.9778 28.2973 36.8624 25.6496 36.8857C23.002 36.9089 20.4196 36.0694 18.2979 34.4958" stroke="#E1D9C5" stroke-width="2" stroke-linecap="round" stroke-linejoin="round"/>
<path d="M29.0991 13.3611C31.5731 14.1189 33.7376 15.6444 35.2749 17.7139C36.8122 19.7833 37.6415 22.2878 37.6412 24.8598" stroke="#E1D9C5" stroke-width="2" stroke-linecap="round" stroke-linejoin="round"/>
<path d="M13.4355 24.8594C13.4353 22.3773 14.2078 19.956 15.6472 17.9273C17.0865 15.8986 19.1223 14.3619 21.4754 13.5278" stroke="#E1D9C5" stroke-width="2" stroke-linecap="round" stroke-linejoin="round"/>
<path d="M12.4132 26.0703V29.4558H10.7656V33.1974H16.7269V26.0703H12.4132Z" fill="#E1D9C5"/>
<path d="M16.6289 30.7876H18.2558V28.9348H19.6833V30.7876H20.1001V33.1984H16.6354L16.6289 30.7876Z" fill="#E1D9C5"/>
<path d="M14.4146 26.676H13.5552V27.5298H14.4146V26.676Z" fill="#7B908B"/>
<path d="M14.4141 28.2087H13.5547V29.0625H14.4141V28.2087Z" fill="#7B908B"/>
<path d="M15.919 26.6758H15.0596V27.5295H15.919V26.6758Z" fill="#7B908B"/>
<path d="M15.919 28.2087H15.0596V29.0625H15.919V28.2087Z" fill="#7B908B"/>
<path d="M19.3999 29.208H18.7075V29.8959H19.3999V29.208Z" fill="#7B908B"/>
<path d="M32.1121 25.6729V27.833H30.229V31.4794H30.8761C30.8761 31.7935 31.0017 32.0947 31.2253 32.3168C31.4488 32.5388 31.752 32.6636 32.0681 32.6636C32.3843 32.6636 32.6875 32.5388 32.911 32.3168C33.1345 32.0947 33.2601 31.7935 33.2601 31.4794H36.3249C36.3249 31.7935 36.4505 32.0947 36.674 32.3168C36.8976 32.5388 37.2008 32.6636 37.5169 32.6636C37.8331 32.6636 38.1363 32.5388 38.3598 32.3168C38.5833 32.0947 38.7089 31.7935 38.7089 31.4794H39.2163V25.6729H32.1121Z" fill="#E1D9C5"/>
<path d="M34.1296 26.1882H32.7305V27.5782H34.1296V26.1882Z" fill="#7B908B"/>
<path d="M31.3316 28.3188H30.7505V28.8962H31.3316V28.3188Z" fill="#7B908B"/>
</svg>
