<svg width="52" height="48" viewBox="0 0 52 48" fill="none" xmlns="http://www.w3.org/2000/svg">
<path d="M50.1361 23.725C50.1361 26.3116 48.5125 28.6122 47.7496 30.9474C46.9587 33.3664 46.885 36.1706 45.4097 38.1841C43.9198 40.217 41.2484 41.1472 39.2012 42.6273C37.1763 44.0949 35.4664 46.3367 33.0314 47.1225C30.6827 47.8804 27.9832 47.0859 25.3796 47.0859C22.776 47.0859 20.0764 47.8804 17.7219 47.1225C15.287 46.3367 13.579 44.092 11.5531 42.6264C9.50593 41.1463 6.83447 40.2189 5.34946 38.1832C3.87415 36.1696 3.79855 33.3683 3.00952 30.9464C2.24666 28.6122 0.62207 26.3116 0.62207 23.7241C0.62207 21.1366 2.24666 18.837 3.00952 16.5018C3.79952 14.0828 3.87415 11.2795 5.34946 9.26595C6.83641 7.23407 9.51077 6.30383 11.558 4.82373C13.5839 3.36097 15.2918 1.11338 17.7268 0.327596C20.0764 -0.430267 22.776 0.364189 25.3844 0.364189C27.9929 0.364189 30.6818 -0.430267 33.0314 0.327596C35.4664 1.11338 37.1763 3.36097 39.2012 4.82373C41.2484 6.30383 43.9198 7.23118 45.4097 9.26787C46.885 11.2805 46.9606 14.0828 47.7496 16.5037C48.5173 18.8379 50.1361 21.1385 50.1361 23.725Z" fill="#E1D9C5"/>
<path d="M48.5333 23.7255C48.5333 26.157 47.0056 28.3199 46.2893 30.5135C45.5458 32.7871 45.4761 35.4247 44.0899 37.316C42.6893 39.2285 40.1816 40.1019 38.2536 41.4953C36.3479 42.8724 34.7427 44.9832 32.4542 45.7218C30.2451 46.4344 27.7045 45.6872 25.2608 45.6872C22.8171 45.6872 20.2756 46.4344 18.0665 45.7218C15.7779 44.9813 14.1727 42.8714 12.2651 41.4953C10.341 40.1038 7.82944 39.2304 6.42877 37.3179C5.04264 35.4257 4.97478 32.7919 4.22937 30.5155C3.51498 28.3199 1.99023 26.157 1.99023 23.7255C1.99023 21.294 3.51498 19.1311 4.23131 16.9394C4.97478 14.6658 5.04457 12.0282 6.43071 10.1369C7.83138 8.22351 10.3429 7.34912 12.2651 5.96148C14.1708 4.58442 15.776 2.47357 18.0645 1.73497C20.2736 1.02237 22.8142 1.76964 25.2589 1.76964C27.7035 1.76964 30.2431 1.02237 32.4522 1.73497C34.7408 2.47357 36.346 4.58442 38.2517 5.96148C40.1758 7.35298 42.6873 8.22736 44.088 10.1389C45.4741 12.0311 45.542 14.6649 46.2874 16.9413C47.0056 19.1311 48.5333 21.294 48.5333 23.7255Z" fill="#2A5B0A"/>
<path d="M22.1459 6.77268L23.0762 6.89294L22.8633 6.05507L23.2753 5.28195L22.3393 5.2086L21.6638 4.6106L21.2987 5.40287L20.4688 5.80661L21.1789 6.3696L21.3413 7.21672L22.1459 6.77268Z" fill="white"/>
<path d="M29.5365 6.77268L28.6727 6.89294L28.8704 6.05507L28.4878 5.28195L29.3569 5.2086L29.9842 4.6106L30.3233 5.40287L31.0939 5.80661L30.4345 6.3696L30.2837 7.21672L29.5365 6.77268Z" fill="white"/>
<path d="M25.7812 6.55264L24.4805 7.01626L24.5182 5.6338L23.6763 4.53777L25.0008 4.14698L25.7812 3.00684L26.5617 4.14698L27.8862 4.53777L27.0442 5.6338L27.082 7.01626L25.7812 6.55264Z" fill="white"/>
<g clip-path="url(#clip0_1238_12921)">
<path d="M39.9977 24.4703L39.9453 24.1733C39.9669 24.2884 39.9864 24.3984 39.9977 24.4703Z" fill="#E1D9C5"/>
<path d="M39.8664 23.3042C39.8664 23.3042 39.8654 23.3052 39.8644 23.3063C39.8325 23.334 39.8202 23.3936 39.8192 23.4604C39.8192 23.4604 39.1584 24.0184 39.0361 24.0636L39.2612 24.5075H40.0041C40.0093 24.5373 40.0123 24.5548 40.0123 24.5548C40.0236 24.564 40.0319 24.5866 40.0391 24.6185C40.0514 24.6164 40.0637 24.6133 40.0761 24.6103L39.8664 23.3042ZM39.9682 24.2989C39.9753 24.339 39.9825 24.377 39.9877 24.4099L39.9682 24.2989Z" fill="#E1D9C5"/>
<path d="M9.89175 27.9684C9.89175 27.9684 9.8527 28.3856 10.0777 28.6815C10.0777 28.6815 10.8094 28.885 11.0087 28.8295C11.0087 28.8295 10.5885 28.3096 10.4487 28.1934C10.309 28.0783 10.2062 27.9561 9.89175 27.9684Z" fill="#E1D9C5"/>
<path d="M33.4876 22.6701C33.1557 22.1203 31.1673 20.6663 26.5339 20.8461C21.9015 21.0259 20.3684 22.5848 18.8105 23.783L33.316 23.3041C33.316 23.3041 33.8205 23.2198 33.4876 22.6701ZM33.1279 23.1777L31.7982 23.2229L31.8825 21.7257C32.6532 22.0412 33.2245 22.6958 33.2245 22.6958C33.5194 22.9907 33.1279 23.1777 33.1279 23.1777Z" fill="#E1D9C5"/>
<path d="M15.1018 28.9489L15.0996 28.9456C15.1007 28.9456 15.1018 28.9478 15.1018 28.9489Z" fill="#E1D9C5"/>
<path d="M15.1018 28.9489L15.0996 28.9456C15.1007 28.9456 15.1018 28.9478 15.1018 28.9489Z" fill="#E1D9C5"/>
<path d="M15.1018 28.9489L15.0996 28.9456C15.1007 28.9456 15.1018 28.9478 15.1018 28.9489Z" fill="#E1D9C5"/>
<path d="M33.9784 28.6989C33.9784 28.7082 33.9794 28.7174 33.9804 28.7277C32.9385 28.7318 32.6497 28.9969 32.5716 29.1316C32.5356 28.9939 32.5161 28.849 32.5161 28.6989C32.5161 28.3002 32.6518 27.9344 32.8799 27.6426C32.8737 27.7577 32.9487 28.1338 33.9969 28.6034C33.9845 28.6321 33.9784 28.665 33.9784 28.6989Z" fill="#E1D9C5"/>
<path d="M33.966 30.3996C33.443 30.3164 32.997 29.9968 32.7432 29.5529C32.8881 29.5981 33.2806 29.6032 34.0544 28.8818C34.0842 28.9106 34.1191 28.9322 34.1592 28.9445C33.7471 29.9197 33.8776 30.2804 33.966 30.3996Z" fill="#E1D9C5"/>
<path d="M34.343 28.9377L34.3408 28.9343C34.3419 28.9354 34.343 28.9377 34.343 28.9377Z" fill="#E1D9C5"/>
<path d="M34.9886 27.1472C34.8796 27.1647 34.5241 27.3096 34.2826 28.4409C34.2692 28.4389 34.2538 28.4378 34.2394 28.4378C34.2117 28.4378 34.184 28.442 34.1572 28.4512C33.9342 27.4349 33.6167 27.2078 33.4688 27.1575C33.7 27.0414 33.962 26.9756 34.2394 26.9756C34.5087 26.9756 34.7625 27.0362 34.9886 27.1472Z" fill="#E1D9C5"/>
<path d="M35.8209 29.3844C35.6164 29.8571 35.2044 30.2198 34.7009 30.3585C34.7759 30.2095 34.8396 29.8201 34.3433 28.9374C34.3803 28.9219 34.4131 28.8973 34.4388 28.8665C35.3297 29.5272 35.7048 29.446 35.8209 29.3844Z" fill="#E1D9C5"/>
<path d="M35.9627 28.699C35.9627 28.7864 35.9555 28.8717 35.9442 28.9559C35.8538 28.8295 35.5424 28.5901 34.4994 28.6774C34.4963 28.6353 34.484 28.5963 34.4624 28.5624C35.3996 28.0434 35.5085 27.6755 35.5085 27.5327C35.7911 27.8389 35.9627 28.2489 35.9627 28.699Z" fill="#E1D9C5"/>
<path d="M33.224 22.6957C33.224 22.6957 32.6527 22.0411 31.882 21.7256L31.7977 23.2228L33.1274 23.1776C33.1274 23.1776 33.519 22.9906 33.224 22.6957ZM33.224 22.6957C33.224 22.6957 32.6527 22.0411 31.882 21.7256L31.7977 23.2228L33.1274 23.1776C33.1274 23.1776 33.519 22.9906 33.224 22.6957ZM33.224 22.6957C33.224 22.6957 32.6527 22.0411 31.882 21.7256L31.7977 23.2228L33.1274 23.1776C33.1274 23.1776 33.519 22.9906 33.224 22.6957ZM33.224 22.6957C33.224 22.6957 32.6527 22.0411 31.882 21.7256L31.7977 23.2228L33.1274 23.1776C33.1274 23.1776 33.519 22.9906 33.224 22.6957ZM33.224 22.6957C33.224 22.6957 32.6527 22.0411 31.882 21.7256L31.7977 23.2228L33.1274 23.1776C33.1274 23.1776 33.519 22.9906 33.224 22.6957ZM33.224 22.6957C33.224 22.6957 32.6527 22.0411 31.882 21.7256L31.7977 23.2228L33.1274 23.1776C33.1274 23.1776 33.519 22.9906 33.224 22.6957ZM33.224 22.6957C33.224 22.6957 32.6527 22.0411 31.882 21.7256L31.7977 23.2228L33.1274 23.1776C33.1274 23.1776 33.519 22.9906 33.224 22.6957ZM33.224 22.6957C33.224 22.6957 32.6527 22.0411 31.882 21.7256L31.7977 23.2228L33.1274 23.1776C33.1274 23.1776 33.519 22.9906 33.224 22.6957ZM33.224 22.6957C33.224 22.6957 32.6527 22.0411 31.882 21.7256L31.7977 23.2228L33.1274 23.1776C33.1274 23.1776 33.519 22.9906 33.224 22.6957ZM33.224 22.6957C33.224 22.6957 32.6527 22.0411 31.882 21.7256L31.7977 23.2228L33.1274 23.1776C33.1274 23.1776 33.519 22.9906 33.224 22.6957ZM33.224 22.6957C33.224 22.6957 32.6527 22.0411 31.882 21.7256L31.7977 23.2228L33.1274 23.1776C33.1274 23.1776 33.519 22.9906 33.224 22.6957ZM33.224 22.6957C33.224 22.6957 32.6527 22.0411 31.882 21.7256L31.7977 23.2228L33.1274 23.1776C33.1274 23.1776 33.519 22.9906 33.224 22.6957ZM33.224 22.6957C33.224 22.6957 32.6527 22.0411 31.882 21.7256L31.7977 23.2228L33.1274 23.1776C33.1274 23.1776 33.519 22.9906 33.224 22.6957ZM33.224 22.6957C33.224 22.6957 32.6527 22.0411 31.882 21.7256L31.7977 23.2228L33.1274 23.1776C33.1274 23.1776 33.519 22.9906 33.224 22.6957ZM33.224 22.6957C33.224 22.6957 32.6527 22.0411 31.882 21.7256L31.7977 23.2228L33.1274 23.1776C33.1274 23.1776 33.519 22.9906 33.224 22.6957ZM33.224 22.6957C33.224 22.6957 32.6527 22.0411 31.882 21.7256L31.7977 23.2228L33.1274 23.1776C33.1274 23.1776 33.519 22.9906 33.224 22.6957ZM33.224 22.6957C33.224 22.6957 32.6527 22.0411 31.882 21.7256L31.7977 23.2228L33.1274 23.1776C33.1274 23.1776 33.519 22.9906 33.224 22.6957ZM33.224 22.6957C33.224 22.6957 32.6527 22.0411 31.882 21.7256L31.7977 23.2228L33.1274 23.1776C33.1274 23.1776 33.519 22.9906 33.224 22.6957ZM40.4685 27.2746L40.5158 26.0014C40.5158 26.0014 40.2178 25.7785 40.1407 25.5647C40.0739 25.3797 40.0842 24.8156 40.039 24.6183C39.6968 24.6974 39.1707 24.6676 39.1707 24.6676L38.734 23.9935C38.9826 23.9175 39.8119 23.342 39.8643 23.3061C39.8653 23.305 39.8664 23.304 39.8664 23.304L39.7554 23.0173L37.8718 22.6268C37.8718 22.6268 34.0862 20.769 31.809 20.4782C29.5309 20.1863 23.6736 19.9726 21.901 21.0259C20.1285 22.0791 16.9429 23.5178 16.9429 23.5178C16.9429 23.5178 11.7536 24.0829 10.3921 25.3674C10.3921 25.3674 9.87005 25.9757 9.9728 26.3354C9.9728 26.3354 9.76215 26.5358 9.76215 26.6324C9.76215 26.729 9.68097 27.7648 9.8012 27.7905C9.92143 27.8162 10.4774 27.8593 10.5637 28.0299C10.649 28.2015 11.5399 28.9465 11.1802 28.9897C10.8206 29.0318 9.8012 28.7841 9.8012 28.7841C9.8012 28.7841 9.9728 28.9732 10.092 28.9948C10.2122 29.0154 11.2912 29.2723 12.4298 29.3319C12.4298 29.3319 12.1821 26.4032 14.6822 26.1124C17.1824 25.8216 17.7475 28.8694 17.577 29.3319L31.509 29.1952C31.509 29.1952 31.5861 26.3179 34.0399 26.0097C36.4928 25.7014 36.9038 28.2447 36.8391 28.8232C36.8391 28.8232 39.4471 28.5396 40.0246 28.1933L40.5004 27.6538C40.5004 27.6538 40.5518 27.3907 40.4685 27.2746ZM31.882 21.7256L31.7977 23.2228L33.1274 23.1776C33.1274 23.1776 33.519 22.9906 33.224 22.6957C33.224 22.6957 32.6527 22.0411 31.882 21.7256ZM33.224 22.6957C33.224 22.6957 32.6527 22.0411 31.882 21.7256L31.7977 23.2228L33.1274 23.1776C33.1274 23.1776 33.519 22.9906 33.224 22.6957ZM33.224 22.6957C33.224 22.6957 32.6527 22.0411 31.882 21.7256L31.7977 23.2228L33.1274 23.1776C33.1274 23.1776 33.519 22.9906 33.224 22.6957ZM33.224 22.6957C33.224 22.6957 32.6527 22.0411 31.882 21.7256L31.7977 23.2228L33.1274 23.1776C33.1274 23.1776 33.519 22.9906 33.224 22.6957ZM33.224 22.6957C33.224 22.6957 32.6527 22.0411 31.882 21.7256L31.7977 23.2228L33.1274 23.1776C33.1274 23.1776 33.519 22.9906 33.224 22.6957ZM33.224 22.6957C33.224 22.6957 32.6527 22.0411 31.882 21.7256L31.7977 23.2228L33.1274 23.1776C33.1274 23.1776 33.519 22.9906 33.224 22.6957ZM33.224 22.6957C33.224 22.6957 32.6527 22.0411 31.882 21.7256L31.7977 23.2228L33.1274 23.1776C33.1274 23.1776 33.519 22.9906 33.224 22.6957ZM33.224 22.6957C33.224 22.6957 32.6527 22.0411 31.882 21.7256L31.7977 23.2228L33.1274 23.1776C33.1274 23.1776 33.519 22.9906 33.224 22.6957ZM33.224 22.6957C33.224 22.6957 32.6527 22.0411 31.882 21.7256L31.7977 23.2228L33.1274 23.1776C33.1274 23.1776 33.519 22.9906 33.224 22.6957ZM33.224 22.6957C33.224 22.6957 32.6527 22.0411 31.882 21.7256L31.7977 23.2228L33.1274 23.1776C33.1274 23.1776 33.519 22.9906 33.224 22.6957ZM33.224 22.6957C33.224 22.6957 32.6527 22.0411 31.882 21.7256L31.7977 23.2228L33.1274 23.1776C33.1274 23.1776 33.519 22.9906 33.224 22.6957ZM33.224 22.6957C33.224 22.6957 32.6527 22.0411 31.882 21.7256L31.7977 23.2228L33.1274 23.1776C33.1274 23.1776 33.519 22.9906 33.224 22.6957ZM33.224 22.6957C33.224 22.6957 32.6527 22.0411 31.882 21.7256L31.7977 23.2228L33.1274 23.1776C33.1274 23.1776 33.519 22.9906 33.224 22.6957ZM33.224 22.6957C33.224 22.6957 32.6527 22.0411 31.882 21.7256L31.7977 23.2228L33.1274 23.1776C33.1274 23.1776 33.519 22.9906 33.224 22.6957ZM33.224 22.6957C33.224 22.6957 32.6527 22.0411 31.882 21.7256L31.7977 23.2228L33.1274 23.1776C33.1274 23.1776 33.519 22.9906 33.224 22.6957ZM33.224 22.6957C33.224 22.6957 32.6527 22.0411 31.882 21.7256L31.7977 23.2228L33.1274 23.1776C33.1274 23.1776 33.519 22.9906 33.224 22.6957ZM33.224 22.6957C33.224 22.6957 32.6527 22.0411 31.882 21.7256L31.7977 23.2228L33.1274 23.1776C33.1274 23.1776 33.519 22.9906 33.224 22.6957Z" fill="#E1D9C5"/>
<path d="M34.3409 28.9342L34.3419 28.9384L34.3429 28.9373C34.3429 28.9373 34.3419 28.9353 34.3409 28.9342ZM34.3409 28.9342L34.3419 28.9384L34.3429 28.9373C34.3429 28.9373 34.3419 28.9353 34.3409 28.9342ZM34.3409 28.9342L34.3419 28.9384L34.3429 28.9373C34.3429 28.9373 34.3419 28.9353 34.3409 28.9342ZM34.3409 28.9342L34.3419 28.9384L34.3429 28.9373C34.3429 28.9373 34.3419 28.9353 34.3409 28.9342ZM34.3409 28.9342L34.3419 28.9384L34.3429 28.9373C34.3429 28.9373 34.3419 28.9353 34.3409 28.9342ZM34.3409 28.9342L34.3419 28.9384L34.3429 28.9373C34.3429 28.9373 34.3419 28.9353 34.3409 28.9342ZM34.3409 28.9342L34.3419 28.9384L34.3429 28.9373C34.3429 28.9373 34.3419 28.9353 34.3409 28.9342ZM34.3409 28.9342L34.3419 28.9384L34.3429 28.9373C34.3429 28.9373 34.3419 28.9353 34.3409 28.9342ZM34.3409 28.9342L34.3419 28.9384L34.3429 28.9373C34.3429 28.9373 34.3419 28.9353 34.3409 28.9342ZM34.3409 28.9342L34.3419 28.9384L34.3429 28.9373C34.3429 28.9373 34.3419 28.9353 34.3409 28.9342ZM35.5082 27.5326C35.5082 27.6754 35.3993 28.0433 34.4621 28.5623C34.4837 28.5962 34.4961 28.6352 34.4991 28.6773C35.5421 28.59 35.8535 28.8294 35.9439 28.9558C35.9563 28.8716 35.9624 28.7863 35.9624 28.6989C35.9624 28.2488 35.7908 27.8388 35.5082 27.5326ZM33.9966 28.6023C32.9485 28.1317 32.8735 27.7556 32.8797 27.6415C32.6505 27.9334 32.5159 28.2992 32.5159 28.6979C32.5159 28.8479 32.5344 28.9918 32.5714 29.1305C32.6495 28.9959 32.9382 28.7308 33.9802 28.7267C33.9792 28.7174 33.9782 28.7082 33.9782 28.6979C33.9782 28.665 33.9843 28.6321 33.9966 28.6023ZM34.159 28.9455C34.1189 28.9332 34.084 28.9116 34.0542 28.8829C33.2804 29.6032 32.8879 29.5981 32.743 29.5539C32.9968 29.9978 33.4418 30.3163 33.9658 30.4006C33.8774 30.2804 33.7469 29.9197 34.159 28.9455ZM34.3409 28.9342L34.3419 28.9384L34.3429 28.9373C34.3429 28.9373 34.3419 28.9353 34.3409 28.9342ZM34.2392 26.9757C33.9617 26.9757 33.6997 27.0414 33.4685 27.1575C33.6164 27.2079 33.934 27.436 34.157 28.4513C34.1826 28.442 34.2104 28.4379 34.2392 28.4379C34.2535 28.4379 34.269 28.4389 34.2823 28.441C34.5238 27.3086 34.8793 27.1637 34.9883 27.1473C34.7622 27.0363 34.5084 26.9757 34.2392 26.9757ZM34.4385 28.8664C34.4128 28.8973 34.3799 28.9219 34.3429 28.9373C34.8393 29.82 34.7756 30.2095 34.7005 30.3585C35.2041 30.2187 35.6161 29.856 35.8206 29.3843C35.7045 29.446 35.3294 29.5272 34.4385 28.8664ZM35.5082 27.5326C35.5082 27.6754 35.3993 28.0433 34.4621 28.5623C34.4837 28.5962 34.4961 28.6352 34.4991 28.6773C35.5421 28.59 35.8535 28.8294 35.9439 28.9558C35.9563 28.8716 35.9624 28.7863 35.9624 28.6989C35.9624 28.2488 35.7908 27.8388 35.5082 27.5326ZM34.4385 28.8664C34.4128 28.8973 34.3799 28.9219 34.3429 28.9373C34.8393 29.82 34.7756 30.2095 34.7005 30.3585C35.2041 30.2187 35.6161 29.856 35.8206 29.3843C35.7045 29.446 35.3294 29.5272 34.4385 28.8664ZM34.2392 26.9757C33.9617 26.9757 33.6997 27.0414 33.4685 27.1575C33.6164 27.2079 33.934 27.436 34.157 28.4513C34.1826 28.442 34.2104 28.4379 34.2392 28.4379C34.2535 28.4379 34.269 28.4389 34.2823 28.441C34.5238 27.3086 34.8793 27.1637 34.9883 27.1473C34.7622 27.0363 34.5084 26.9757 34.2392 26.9757ZM34.3409 28.9342L34.3419 28.9384L34.3429 28.9373C34.3429 28.9373 34.3419 28.9353 34.3409 28.9342ZM34.159 28.9455C34.1189 28.9332 34.084 28.9116 34.0542 28.8829C33.2804 29.6032 32.8879 29.5981 32.743 29.5539C32.9968 29.9978 33.4418 30.3163 33.9658 30.4006C33.8774 30.2804 33.7469 29.9197 34.159 28.9455ZM33.9966 28.6023C32.9485 28.1317 32.8735 27.7556 32.8797 27.6415C32.6505 27.9334 32.5159 28.2992 32.5159 28.6979C32.5159 28.8479 32.5344 28.9918 32.5714 29.1305C32.6495 28.9959 32.9382 28.7308 33.9802 28.7267C33.9792 28.7174 33.9782 28.7082 33.9782 28.6979C33.9782 28.665 33.9843 28.6321 33.9966 28.6023ZM35.5082 27.5326C35.5082 27.6754 35.3993 28.0433 34.4621 28.5623C34.4837 28.5962 34.4961 28.6352 34.4991 28.6773C35.5421 28.59 35.8535 28.8294 35.9439 28.9558C35.9563 28.8716 35.9624 28.7863 35.9624 28.6989C35.9624 28.2488 35.7908 27.8388 35.5082 27.5326ZM33.9966 28.6023C32.9485 28.1317 32.8735 27.7556 32.8797 27.6415C32.6505 27.9334 32.5159 28.2992 32.5159 28.6979C32.5159 28.8479 32.5344 28.9918 32.5714 29.1305C32.6495 28.9959 32.9382 28.7308 33.9802 28.7267C33.9792 28.7174 33.9782 28.7082 33.9782 28.6979C33.9782 28.665 33.9843 28.6321 33.9966 28.6023ZM34.159 28.9455C34.1189 28.9332 34.084 28.9116 34.0542 28.8829C33.2804 29.6032 32.8879 29.5981 32.743 29.5539C32.9968 29.9978 33.4418 30.3163 33.9658 30.4006C33.8774 30.2804 33.7469 29.9197 34.159 28.9455ZM34.3409 28.9342L34.3419 28.9384L34.3429 28.9373C34.3429 28.9373 34.3419 28.9353 34.3409 28.9342ZM34.2392 26.9757C33.9617 26.9757 33.6997 27.0414 33.4685 27.1575C33.6164 27.2079 33.934 27.436 34.157 28.4513C34.1826 28.442 34.2104 28.4379 34.2392 28.4379C34.2535 28.4379 34.269 28.4389 34.2823 28.441C34.5238 27.3086 34.8793 27.1637 34.9883 27.1473C34.7622 27.0363 34.5084 26.9757 34.2392 26.9757ZM34.4385 28.8664C34.4128 28.8973 34.3799 28.9219 34.3429 28.9373C34.8393 29.82 34.7756 30.2095 34.7005 30.3585C35.2041 30.2187 35.6161 29.856 35.8206 29.3843C35.7045 29.446 35.3294 29.5272 34.4385 28.8664ZM35.5082 27.5326C35.5082 27.6754 35.3993 28.0433 34.4621 28.5623C34.4837 28.5962 34.4961 28.6352 34.4991 28.6773C35.5421 28.59 35.8535 28.8294 35.9439 28.9558C35.9563 28.8716 35.9624 28.7863 35.9624 28.6989C35.9624 28.2488 35.7908 27.8388 35.5082 27.5326ZM34.4385 28.8664C34.4128 28.8973 34.3799 28.9219 34.3429 28.9373C34.8393 29.82 34.7756 30.2095 34.7005 30.3585C35.2041 30.2187 35.6161 29.856 35.8206 29.3843C35.7045 29.446 35.3294 29.5272 34.4385 28.8664ZM34.2392 26.9757C33.9617 26.9757 33.6997 27.0414 33.4685 27.1575C33.6164 27.2079 33.934 27.436 34.157 28.4513C34.1826 28.442 34.2104 28.4379 34.2392 28.4379C34.2535 28.4379 34.269 28.4389 34.2823 28.441C34.5238 27.3086 34.8793 27.1637 34.9883 27.1473C34.7622 27.0363 34.5084 26.9757 34.2392 26.9757ZM34.3409 28.9342L34.3419 28.9384L34.3429 28.9373C34.3429 28.9373 34.3419 28.9353 34.3409 28.9342ZM34.159 28.9455C34.1189 28.9332 34.084 28.9116 34.0542 28.8829C33.2804 29.6032 32.8879 29.5981 32.743 29.5539C32.9968 29.9978 33.4418 30.3163 33.9658 30.4006C33.8774 30.2804 33.7469 29.9197 34.159 28.9455ZM33.9966 28.6023C32.9485 28.1317 32.8735 27.7556 32.8797 27.6415C32.6505 27.9334 32.5159 28.2992 32.5159 28.6979C32.5159 28.8479 32.5344 28.9918 32.5714 29.1305C32.6495 28.9959 32.9382 28.7308 33.9802 28.7267C33.9792 28.7174 33.9782 28.7082 33.9782 28.6979C33.9782 28.665 33.9843 28.6321 33.9966 28.6023ZM35.5082 27.5326C35.5082 27.6754 35.3993 28.0433 34.4621 28.5623C34.4837 28.5962 34.4961 28.6352 34.4991 28.6773C35.5421 28.59 35.8535 28.8294 35.9439 28.9558C35.9563 28.8716 35.9624 28.7863 35.9624 28.6989C35.9624 28.2488 35.7908 27.8388 35.5082 27.5326ZM33.9966 28.6023C32.9485 28.1317 32.8735 27.7556 32.8797 27.6415C32.6505 27.9334 32.5159 28.2992 32.5159 28.6979C32.5159 28.8479 32.5344 28.9918 32.5714 29.1305C32.6495 28.9959 32.9382 28.7308 33.9802 28.7267C33.9792 28.7174 33.9782 28.7082 33.9782 28.6979C33.9782 28.665 33.9843 28.6321 33.9966 28.6023ZM34.159 28.9455C34.1189 28.9332 34.084 28.9116 34.0542 28.8829C33.2804 29.6032 32.8879 29.5981 32.743 29.5539C32.9968 29.9978 33.4418 30.3163 33.9658 30.4006C33.8774 30.2804 33.7469 29.9197 34.159 28.9455ZM34.3409 28.9342L34.3419 28.9384L34.3429 28.9373C34.3429 28.9373 34.3419 28.9353 34.3409 28.9342ZM34.2392 26.9757C33.9617 26.9757 33.6997 27.0414 33.4685 27.1575C33.6164 27.2079 33.934 27.436 34.157 28.4513C34.1826 28.442 34.2104 28.4379 34.2392 28.4379C34.2535 28.4379 34.269 28.4389 34.2823 28.441C34.5238 27.3086 34.8793 27.1637 34.9883 27.1473C34.7622 27.0363 34.5084 26.9757 34.2392 26.9757ZM34.4385 28.8664C34.4128 28.8973 34.3799 28.9219 34.3429 28.9373C34.8393 29.82 34.7756 30.2095 34.7005 30.3585C35.2041 30.2187 35.6161 29.856 35.8206 29.3843C35.7045 29.446 35.3294 29.5272 34.4385 28.8664ZM35.5082 27.5326C35.5082 27.6754 35.3993 28.0433 34.4621 28.5623C34.4837 28.5962 34.4961 28.6352 34.4991 28.6773C35.5421 28.59 35.8535 28.8294 35.9439 28.9558C35.9563 28.8716 35.9624 28.7863 35.9624 28.6989C35.9624 28.2488 35.7908 27.8388 35.5082 27.5326ZM34.4385 28.8664C34.4128 28.8973 34.3799 28.9219 34.3429 28.9373C34.8393 29.82 34.7756 30.2095 34.7005 30.3585C35.2041 30.2187 35.6161 29.856 35.8206 29.3843C35.7045 29.446 35.3294 29.5272 34.4385 28.8664ZM34.2392 26.9757C33.9617 26.9757 33.6997 27.0414 33.4685 27.1575C33.6164 27.2079 33.934 27.436 34.157 28.4513C34.1826 28.442 34.2104 28.4379 34.2392 28.4379C34.2535 28.4379 34.269 28.4389 34.2823 28.441C34.5238 27.3086 34.8793 27.1637 34.9883 27.1473C34.7622 27.0363 34.5084 26.9757 34.2392 26.9757ZM34.3409 28.9342L34.3419 28.9384L34.3429 28.9373C34.3429 28.9373 34.3419 28.9353 34.3409 28.9342ZM34.159 28.9455C34.1189 28.9332 34.084 28.9116 34.0542 28.8829C33.2804 29.6032 32.8879 29.5981 32.743 29.5539C32.9968 29.9978 33.4418 30.3163 33.9658 30.4006C33.8774 30.2804 33.7469 29.9197 34.159 28.9455ZM33.9966 28.6023C32.9485 28.1317 32.8735 27.7556 32.8797 27.6415C32.6505 27.9334 32.5159 28.2992 32.5159 28.6979C32.5159 28.8479 32.5344 28.9918 32.5714 29.1305C32.6495 28.9959 32.9382 28.7308 33.9802 28.7267C33.9792 28.7174 33.9782 28.7082 33.9782 28.6979C33.9782 28.665 33.9843 28.6321 33.9966 28.6023ZM35.5082 27.5326C35.5082 27.6754 35.3993 28.0433 34.4621 28.5623C34.4837 28.5962 34.4961 28.6352 34.4991 28.6773C35.5421 28.59 35.8535 28.8294 35.9439 28.9558C35.9563 28.8716 35.9624 28.7863 35.9624 28.6989C35.9624 28.2488 35.7908 27.8388 35.5082 27.5326ZM33.9966 28.6023C32.9485 28.1317 32.8735 27.7556 32.8797 27.6415C32.6505 27.9334 32.5159 28.2992 32.5159 28.6979C32.5159 28.8479 32.5344 28.9918 32.5714 29.1305C32.6495 28.9959 32.9382 28.7308 33.9802 28.7267C33.9792 28.7174 33.9782 28.7082 33.9782 28.6979C33.9782 28.665 33.9843 28.6321 33.9966 28.6023ZM34.159 28.9455C34.1189 28.9332 34.084 28.9116 34.0542 28.8829C33.2804 29.6032 32.8879 29.5981 32.743 29.5539C32.9968 29.9978 33.4418 30.3163 33.9658 30.4006C33.8774 30.2804 33.7469 29.9197 34.159 28.9455ZM34.3409 28.9342L34.3419 28.9384L34.3429 28.9373C34.3429 28.9373 34.3419 28.9353 34.3409 28.9342ZM34.2392 26.9757C33.9617 26.9757 33.6997 27.0414 33.4685 27.1575C33.6164 27.2079 33.934 27.436 34.157 28.4513C34.1826 28.442 34.2104 28.4379 34.2392 28.4379C34.2535 28.4379 34.269 28.4389 34.2823 28.441C34.5238 27.3086 34.8793 27.1637 34.9883 27.1473C34.7622 27.0363 34.5084 26.9757 34.2392 26.9757ZM34.4385 28.8664C34.4128 28.8973 34.3799 28.9219 34.3429 28.9373C34.8393 29.82 34.7756 30.2095 34.7005 30.3585C35.2041 30.2187 35.6161 29.856 35.8206 29.3843C35.7045 29.446 35.3294 29.5272 34.4385 28.8664ZM35.5082 27.5326C35.5082 27.6754 35.3993 28.0433 34.4621 28.5623C34.4837 28.5962 34.4961 28.6352 34.4991 28.6773C35.5421 28.59 35.8535 28.8294 35.9439 28.9558C35.9563 28.8716 35.9624 28.7863 35.9624 28.6989C35.9624 28.2488 35.7908 27.8388 35.5082 27.5326ZM34.4385 28.8664C34.4128 28.8973 34.3799 28.9219 34.3429 28.9373C34.8393 29.82 34.7756 30.2095 34.7005 30.3585C35.2041 30.2187 35.6161 29.856 35.8206 29.3843C35.7045 29.446 35.3294 29.5272 34.4385 28.8664ZM34.2392 26.9757C33.9617 26.9757 33.6997 27.0414 33.4685 27.1575C33.6164 27.2079 33.934 27.436 34.157 28.4513C34.1826 28.442 34.2104 28.4379 34.2392 28.4379C34.2535 28.4379 34.269 28.4389 34.2823 28.441C34.5238 27.3086 34.8793 27.1637 34.9883 27.1473C34.7622 27.0363 34.5084 26.9757 34.2392 26.9757ZM34.3409 28.9342L34.3419 28.9384L34.3429 28.9373C34.3429 28.9373 34.3419 28.9353 34.3409 28.9342ZM34.159 28.9455C34.1189 28.9332 34.084 28.9116 34.0542 28.8829C33.2804 29.6032 32.8879 29.5981 32.743 29.5539C32.9968 29.9978 33.4418 30.3163 33.9658 30.4006C33.8774 30.2804 33.7469 29.9197 34.159 28.9455ZM33.9966 28.6023C32.9485 28.1317 32.8735 27.7556 32.8797 27.6415C32.6505 27.9334 32.5159 28.2992 32.5159 28.6979C32.5159 28.8479 32.5344 28.9918 32.5714 29.1305C32.6495 28.9959 32.9382 28.7308 33.9802 28.7267C33.9792 28.7174 33.9782 28.7082 33.9782 28.6979C33.9782 28.665 33.9843 28.6321 33.9966 28.6023ZM35.5082 27.5326C35.5082 27.6754 35.3993 28.0433 34.4621 28.5623C34.4837 28.5962 34.4961 28.6352 34.4991 28.6773C35.5421 28.59 35.8535 28.8294 35.9439 28.9558C35.9563 28.8716 35.9624 28.7863 35.9624 28.6989C35.9624 28.2488 35.7908 27.8388 35.5082 27.5326ZM33.9966 28.6023C32.9485 28.1317 32.8735 27.7556 32.8797 27.6415C32.6505 27.9334 32.5159 28.2992 32.5159 28.6979C32.5159 28.8479 32.5344 28.9918 32.5714 29.1305C32.6495 28.9959 32.9382 28.7308 33.9802 28.7267C33.9792 28.7174 33.9782 28.7082 33.9782 28.6979C33.9782 28.665 33.9843 28.6321 33.9966 28.6023ZM34.159 28.9455C34.1189 28.9332 34.084 28.9116 34.0542 28.8829C33.2804 29.6032 32.8879 29.5981 32.743 29.5539C32.9968 29.9978 33.4418 30.3163 33.9658 30.4006C33.8774 30.2804 33.7469 29.9197 34.159 28.9455ZM34.3409 28.9342L34.3419 28.9384L34.3429 28.9373C34.3429 28.9373 34.3419 28.9353 34.3409 28.9342ZM34.2392 26.9757C33.9617 26.9757 33.6997 27.0414 33.4685 27.1575C33.6164 27.2079 33.934 27.436 34.157 28.4513C34.1826 28.442 34.2104 28.4379 34.2392 28.4379C34.2535 28.4379 34.269 28.4389 34.2823 28.441C34.5238 27.3086 34.8793 27.1637 34.9883 27.1473C34.7622 27.0363 34.5084 26.9757 34.2392 26.9757ZM34.4385 28.8664C34.4128 28.8973 34.3799 28.9219 34.3429 28.9373C34.8393 29.82 34.7756 30.2095 34.7005 30.3585C35.2041 30.2187 35.6161 29.856 35.8206 29.3843C35.7045 29.446 35.3294 29.5272 34.4385 28.8664ZM35.5082 27.5326C35.5082 27.6754 35.3993 28.0433 34.4621 28.5623C34.4837 28.5962 34.4961 28.6352 34.4991 28.6773C35.5421 28.59 35.8535 28.8294 35.9439 28.9558C35.9563 28.8716 35.9624 28.7863 35.9624 28.6989C35.9624 28.2488 35.7908 27.8388 35.5082 27.5326ZM34.4385 28.8664C34.4128 28.8973 34.3799 28.9219 34.3429 28.9373C34.8393 29.82 34.7756 30.2095 34.7005 30.3585C35.2041 30.2187 35.6161 29.856 35.8206 29.3843C35.7045 29.446 35.3294 29.5272 34.4385 28.8664ZM34.2392 26.9757C33.9617 26.9757 33.6997 27.0414 33.4685 27.1575C33.6164 27.2079 33.934 27.436 34.157 28.4513C34.1826 28.442 34.2104 28.4379 34.2392 28.4379C34.2535 28.4379 34.269 28.4389 34.2823 28.441C34.5238 27.3086 34.8793 27.1637 34.9883 27.1473C34.7622 27.0363 34.5084 26.9757 34.2392 26.9757ZM34.3409 28.9342L34.3419 28.9384L34.3429 28.9373C34.3429 28.9373 34.3419 28.9353 34.3409 28.9342ZM34.159 28.9455C34.1189 28.9332 34.084 28.9116 34.0542 28.8829C33.2804 29.6032 32.8879 29.5981 32.743 29.5539C32.9968 29.9978 33.4418 30.3163 33.9658 30.4006C33.8774 30.2804 33.7469 29.9197 34.159 28.9455ZM33.9966 28.6023C32.9485 28.1317 32.8735 27.7556 32.8797 27.6415C32.6505 27.9334 32.5159 28.2992 32.5159 28.6979C32.5159 28.8479 32.5344 28.9918 32.5714 29.1305C32.6495 28.9959 32.9382 28.7308 33.9802 28.7267C33.9792 28.7174 33.9782 28.7082 33.9782 28.6979C33.9782 28.665 33.9843 28.6321 33.9966 28.6023ZM35.5082 27.5326C35.5082 27.6754 35.3993 28.0433 34.4621 28.5623C34.4837 28.5962 34.4961 28.6352 34.4991 28.6773C35.5421 28.59 35.8535 28.8294 35.9439 28.9558C35.9563 28.8716 35.9624 28.7863 35.9624 28.6989C35.9624 28.2488 35.7908 27.8388 35.5082 27.5326ZM33.9966 28.6023C32.9485 28.1317 32.8735 27.7556 32.8797 27.6415C32.6505 27.9334 32.5159 28.2992 32.5159 28.6979C32.5159 28.8479 32.5344 28.9918 32.5714 29.1305C32.6495 28.9959 32.9382 28.7308 33.9802 28.7267C33.9792 28.7174 33.9782 28.7082 33.9782 28.6979C33.9782 28.665 33.9843 28.6321 33.9966 28.6023ZM34.159 28.9455C34.1189 28.9332 34.084 28.9116 34.0542 28.8829C33.2804 29.6032 32.8879 29.5981 32.743 29.5539C32.9968 29.9978 33.4418 30.3163 33.9658 30.4006C33.8774 30.2804 33.7469 29.9197 34.159 28.9455ZM34.3409 28.9342L34.3419 28.9384L34.3429 28.9373C34.3429 28.9373 34.3419 28.9353 34.3409 28.9342ZM34.2392 26.9757C33.9617 26.9757 33.6997 27.0414 33.4685 27.1575C33.6164 27.2079 33.934 27.436 34.157 28.4513C34.1826 28.442 34.2104 28.4379 34.2392 28.4379C34.2535 28.4379 34.269 28.4389 34.2823 28.441C34.5238 27.3086 34.8793 27.1637 34.9883 27.1473C34.7622 27.0363 34.5084 26.9757 34.2392 26.9757ZM34.4385 28.8664C34.4128 28.8973 34.3799 28.9219 34.3429 28.9373C34.8393 29.82 34.7756 30.2095 34.7005 30.3585C35.2041 30.2187 35.6161 29.856 35.8206 29.3843C35.7045 29.446 35.3294 29.5272 34.4385 28.8664ZM35.5082 27.5326C35.5082 27.6754 35.3993 28.0433 34.4621 28.5623C34.4837 28.5962 34.4961 28.6352 34.4991 28.6773C35.5421 28.59 35.8535 28.8294 35.9439 28.9558C35.9563 28.8716 35.9624 28.7863 35.9624 28.6989C35.9624 28.2488 35.7908 27.8388 35.5082 27.5326ZM34.4385 28.8664C34.4128 28.8973 34.3799 28.9219 34.3429 28.9373C34.8393 29.82 34.7756 30.2095 34.7005 30.3585C35.2041 30.2187 35.6161 29.856 35.8206 29.3843C35.7045 29.446 35.3294 29.5272 34.4385 28.8664ZM34.9883 27.1473C34.7622 27.0373 34.5084 26.9757 34.2392 26.9757C33.9617 26.9757 33.6997 27.0414 33.4685 27.1575C33.6164 27.2079 33.934 27.436 34.157 28.4513C34.1826 28.442 34.2104 28.4379 34.2392 28.4379C34.2535 28.4379 34.269 28.4389 34.2823 28.441C34.5238 27.3086 34.8793 27.1637 34.9883 27.1473ZM34.3419 28.9384C34.3429 28.9363 34.3419 28.9353 34.3409 28.9342L34.3419 28.9384ZM34.0542 28.8829C33.2804 29.6032 32.8879 29.5981 32.743 29.5539C32.9968 29.9978 33.4418 30.3163 33.9658 30.4006C33.8774 30.2814 33.7469 29.9197 34.159 28.9466C34.1189 28.9332 34.084 28.9116 34.0542 28.8829ZM33.9782 28.6989C33.9782 28.665 33.9843 28.6321 33.9966 28.6034C32.9485 28.1327 32.8735 27.7566 32.8797 27.6426C32.6505 27.9344 32.5159 28.3002 32.5159 28.6989C32.5159 28.849 32.5344 28.9928 32.5714 29.1315C32.6495 28.9969 32.9382 28.7318 33.9802 28.7277C33.9792 28.7174 33.9782 28.7082 33.9782 28.6989ZM35.5082 27.5326C35.5082 27.6754 35.3993 28.0433 34.4621 28.5623C34.4837 28.5962 34.4961 28.6352 34.4991 28.6773C35.5421 28.59 35.8535 28.8294 35.9439 28.9558C35.9563 28.8716 35.9624 28.7863 35.9624 28.6989C35.9624 28.2488 35.7908 27.8388 35.5082 27.5326ZM34.2392 26.4382C32.9906 26.4382 31.9795 27.4504 31.9795 28.6989C31.9795 29.9474 32.9906 30.9586 34.2392 30.9586C35.4867 30.9586 36.4999 29.9464 36.4999 28.6989C36.4999 27.4504 35.4877 26.4382 34.2392 26.4382ZM34.4385 28.8664C34.4128 28.8973 34.3799 28.9219 34.3429 28.9373C34.8393 29.82 34.7756 30.2095 34.7005 30.3585C35.2041 30.2187 35.6161 29.856 35.8206 29.3843C35.7045 29.446 35.3294 29.5272 34.4385 28.8664ZM34.9883 27.1473C34.7622 27.0373 34.5084 26.9757 34.2392 26.9757C33.9617 26.9757 33.6997 27.0414 33.4685 27.1575C33.6164 27.2079 33.934 27.436 34.157 28.4513C34.1826 28.442 34.2104 28.4379 34.2392 28.4379C34.2535 28.4379 34.269 28.4389 34.2823 28.441C34.5238 27.3086 34.8793 27.1637 34.9883 27.1473ZM34.3419 28.9384C34.3429 28.9363 34.3419 28.9353 34.3409 28.9342L34.3419 28.9384ZM34.0542 28.8829C33.2804 29.6032 32.8879 29.5981 32.743 29.5539C32.9968 29.9978 33.4418 30.3163 33.9658 30.4006C33.8774 30.2814 33.7469 29.9197 34.159 28.9466C34.1189 28.9332 34.084 28.9116 34.0542 28.8829ZM33.9782 28.6989C33.9782 28.665 33.9843 28.6321 33.9966 28.6034C32.9485 28.1327 32.8735 27.7566 32.8797 27.6426C32.6505 27.9344 32.5159 28.3002 32.5159 28.6989C32.5159 28.849 32.5344 28.9928 32.5714 29.1315C32.6495 28.9969 32.9382 28.7318 33.9802 28.7277C33.9792 28.7174 33.9782 28.7082 33.9782 28.6989ZM35.5082 27.5326C35.5082 27.6754 35.3993 28.0433 34.4621 28.5623C34.4837 28.5962 34.4961 28.6352 34.4991 28.6773C35.5421 28.59 35.8535 28.8294 35.9439 28.9558C35.9563 28.8716 35.9624 28.7863 35.9624 28.6989C35.9624 28.2488 35.7908 27.8388 35.5082 27.5326ZM33.9966 28.6023C32.9485 28.1317 32.8735 27.7556 32.8797 27.6415C32.6505 27.9334 32.5159 28.2992 32.5159 28.6979C32.5159 28.8479 32.5344 28.9918 32.5714 29.1305C32.6495 28.9959 32.9382 28.7308 33.9802 28.7267C33.9792 28.7174 33.9782 28.7082 33.9782 28.6979C33.9782 28.665 33.9843 28.6321 33.9966 28.6023ZM34.159 28.9455C34.1189 28.9332 34.084 28.9116 34.0542 28.8829C33.2804 29.6032 32.8879 29.5981 32.743 29.5539C32.9968 29.9978 33.4418 30.3163 33.9658 30.4006C33.8774 30.2804 33.7469 29.9197 34.159 28.9455ZM34.3409 28.9342L34.3419 28.9384L34.3429 28.9373C34.3429 28.9373 34.3419 28.9353 34.3409 28.9342ZM34.2392 26.9757C33.9617 26.9757 33.6997 27.0414 33.4685 27.1575C33.6164 27.2079 33.934 27.436 34.157 28.4513C34.1826 28.442 34.2104 28.4379 34.2392 28.4379C34.2535 28.4379 34.269 28.4389 34.2823 28.441C34.5238 27.3086 34.8793 27.1637 34.9883 27.1473C34.7622 27.0363 34.5084 26.9757 34.2392 26.9757ZM34.4385 28.8664C34.4128 28.8973 34.3799 28.9219 34.3429 28.9373C34.8393 29.82 34.7756 30.2095 34.7005 30.3585C35.2041 30.2187 35.6161 29.856 35.8206 29.3843C35.7045 29.446 35.3294 29.5272 34.4385 28.8664ZM35.5082 27.5326C35.5082 27.6754 35.3993 28.0433 34.4621 28.5623C34.4837 28.5962 34.4961 28.6352 34.4991 28.6773C35.5421 28.59 35.8535 28.8294 35.9439 28.9558C35.9563 28.8716 35.9624 28.7863 35.9624 28.6989C35.9624 28.2488 35.7908 27.8388 35.5082 27.5326ZM34.4385 28.8664C34.4128 28.8973 34.3799 28.9219 34.3429 28.9373C34.8393 29.82 34.7756 30.2095 34.7005 30.3585C35.2041 30.2187 35.6161 29.856 35.8206 29.3843C35.7045 29.446 35.3294 29.5272 34.4385 28.8664ZM34.2392 26.9757C33.9617 26.9757 33.6997 27.0414 33.4685 27.1575C33.6164 27.2079 33.934 27.436 34.157 28.4513C34.1826 28.442 34.2104 28.4379 34.2392 28.4379C34.2535 28.4379 34.269 28.4389 34.2823 28.441C34.5238 27.3086 34.8793 27.1637 34.9883 27.1473C34.7622 27.0363 34.5084 26.9757 34.2392 26.9757ZM34.3409 28.9342L34.3419 28.9384L34.3429 28.9373C34.3429 28.9373 34.3419 28.9353 34.3409 28.9342ZM34.159 28.9455C34.1189 28.9332 34.084 28.9116 34.0542 28.8829C33.2804 29.6032 32.8879 29.5981 32.743 29.5539C32.9968 29.9978 33.4418 30.3163 33.9658 30.4006C33.8774 30.2804 33.7469 29.9197 34.159 28.9455ZM33.9966 28.6023C32.9485 28.1317 32.8735 27.7556 32.8797 27.6415C32.6505 27.9334 32.5159 28.2992 32.5159 28.6979C32.5159 28.8479 32.5344 28.9918 32.5714 29.1305C32.6495 28.9959 32.9382 28.7308 33.9802 28.7267C33.9792 28.7174 33.9782 28.7082 33.9782 28.6979C33.9782 28.665 33.9843 28.6321 33.9966 28.6023ZM35.5082 27.5326C35.5082 27.6754 35.3993 28.0433 34.4621 28.5623C34.4837 28.5962 34.4961 28.6352 34.4991 28.6773C35.5421 28.59 35.8535 28.8294 35.9439 28.9558C35.9563 28.8716 35.9624 28.7863 35.9624 28.6989C35.9624 28.2488 35.7908 27.8388 35.5082 27.5326ZM33.9966 28.6023C32.9485 28.1317 32.8735 27.7556 32.8797 27.6415C32.6505 27.9334 32.5159 28.2992 32.5159 28.6979C32.5159 28.8479 32.5344 28.9918 32.5714 29.1305C32.6495 28.9959 32.9382 28.7308 33.9802 28.7267C33.9792 28.7174 33.9782 28.7082 33.9782 28.6979C33.9782 28.665 33.9843 28.6321 33.9966 28.6023ZM34.159 28.9455C34.1189 28.9332 34.084 28.9116 34.0542 28.8829C33.2804 29.6032 32.8879 29.5981 32.743 29.5539C32.9968 29.9978 33.4418 30.3163 33.9658 30.4006C33.8774 30.2804 33.7469 29.9197 34.159 28.9455ZM34.3409 28.9342L34.3419 28.9384L34.3429 28.9373C34.3429 28.9373 34.3419 28.9353 34.3409 28.9342ZM34.2392 26.9757C33.9617 26.9757 33.6997 27.0414 33.4685 27.1575C33.6164 27.2079 33.934 27.436 34.157 28.4513C34.1826 28.442 34.2104 28.4379 34.2392 28.4379C34.2535 28.4379 34.269 28.4389 34.2823 28.441C34.5238 27.3086 34.8793 27.1637 34.9883 27.1473C34.7622 27.0363 34.5084 26.9757 34.2392 26.9757ZM34.4385 28.8664C34.4128 28.8973 34.3799 28.9219 34.3429 28.9373C34.8393 29.82 34.7756 30.2095 34.7005 30.3585C35.2041 30.2187 35.6161 29.856 35.8206 29.3843C35.7045 29.446 35.3294 29.5272 34.4385 28.8664ZM35.5082 27.5326C35.5082 27.6754 35.3993 28.0433 34.4621 28.5623C34.4837 28.5962 34.4961 28.6352 34.4991 28.6773C35.5421 28.59 35.8535 28.8294 35.9439 28.9558C35.9563 28.8716 35.9624 28.7863 35.9624 28.6989C35.9624 28.2488 35.7908 27.8388 35.5082 27.5326ZM34.4385 28.8664C34.4128 28.8973 34.3799 28.9219 34.3429 28.9373C34.8393 29.82 34.7756 30.2095 34.7005 30.3585C35.2041 30.2187 35.6161 29.856 35.8206 29.3843C35.7045 29.446 35.3294 29.5272 34.4385 28.8664ZM34.2392 26.9757C33.9617 26.9757 33.6997 27.0414 33.4685 27.1575C33.6164 27.2079 33.934 27.436 34.157 28.4513C34.1826 28.442 34.2104 28.4379 34.2392 28.4379C34.2535 28.4379 34.269 28.4389 34.2823 28.441C34.5238 27.3086 34.8793 27.1637 34.9883 27.1473C34.7622 27.0363 34.5084 26.9757 34.2392 26.9757ZM34.3409 28.9342L34.3419 28.9384L34.3429 28.9373C34.3429 28.9373 34.3419 28.9353 34.3409 28.9342ZM34.159 28.9455C34.1189 28.9332 34.084 28.9116 34.0542 28.8829C33.2804 29.6032 32.8879 29.5981 32.743 29.5539C32.9968 29.9978 33.4418 30.3163 33.9658 30.4006C33.8774 30.2804 33.7469 29.9197 34.159 28.9455ZM33.9966 28.6023C32.9485 28.1317 32.8735 27.7556 32.8797 27.6415C32.6505 27.9334 32.5159 28.2992 32.5159 28.6979C32.5159 28.8479 32.5344 28.9918 32.5714 29.1305C32.6495 28.9959 32.9382 28.7308 33.9802 28.7267C33.9792 28.7174 33.9782 28.7082 33.9782 28.6979C33.9782 28.665 33.9843 28.6321 33.9966 28.6023ZM35.5082 27.5326C35.5082 27.6754 35.3993 28.0433 34.4621 28.5623C34.4837 28.5962 34.4961 28.6352 34.4991 28.6773C35.5421 28.59 35.8535 28.8294 35.9439 28.9558C35.9563 28.8716 35.9624 28.7863 35.9624 28.6989C35.9624 28.2488 35.7908 27.8388 35.5082 27.5326ZM33.9966 28.6023C32.9485 28.1317 32.8735 27.7556 32.8797 27.6415C32.6505 27.9334 32.5159 28.2992 32.5159 28.6979C32.5159 28.8479 32.5344 28.9918 32.5714 29.1305C32.6495 28.9959 32.9382 28.7308 33.9802 28.7267C33.9792 28.7174 33.9782 28.7082 33.9782 28.6979C33.9782 28.665 33.9843 28.6321 33.9966 28.6023ZM34.159 28.9455C34.1189 28.9332 34.084 28.9116 34.0542 28.8829C33.2804 29.6032 32.8879 29.5981 32.743 29.5539C32.9968 29.9978 33.4418 30.3163 33.9658 30.4006C33.8774 30.2804 33.7469 29.9197 34.159 28.9455ZM34.3409 28.9342L34.3419 28.9384L34.3429 28.9373C34.3429 28.9373 34.3419 28.9353 34.3409 28.9342ZM34.2392 26.9757C33.9617 26.9757 33.6997 27.0414 33.4685 27.1575C33.6164 27.2079 33.934 27.436 34.157 28.4513C34.1826 28.442 34.2104 28.4379 34.2392 28.4379C34.2535 28.4379 34.269 28.4389 34.2823 28.441C34.5238 27.3086 34.8793 27.1637 34.9883 27.1473C34.7622 27.0363 34.5084 26.9757 34.2392 26.9757ZM34.4385 28.8664C34.4128 28.8973 34.3799 28.9219 34.3429 28.9373C34.8393 29.82 34.7756 30.2095 34.7005 30.3585C35.2041 30.2187 35.6161 29.856 35.8206 29.3843C35.7045 29.446 35.3294 29.5272 34.4385 28.8664ZM35.5082 27.5326C35.5082 27.6754 35.3993 28.0433 34.4621 28.5623C34.4837 28.5962 34.4961 28.6352 34.4991 28.6773C35.5421 28.59 35.8535 28.8294 35.9439 28.9558C35.9563 28.8716 35.9624 28.7863 35.9624 28.6989C35.9624 28.2488 35.7908 27.8388 35.5082 27.5326ZM34.4385 28.8664C34.4128 28.8973 34.3799 28.9219 34.3429 28.9373C34.8393 29.82 34.7756 30.2095 34.7005 30.3585C35.2041 30.2187 35.6161 29.856 35.8206 29.3843C35.7045 29.446 35.3294 29.5272 34.4385 28.8664ZM34.2392 26.9757C33.9617 26.9757 33.6997 27.0414 33.4685 27.1575C33.6164 27.2079 33.934 27.436 34.157 28.4513C34.1826 28.442 34.2104 28.4379 34.2392 28.4379C34.2535 28.4379 34.269 28.4389 34.2823 28.441C34.5238 27.3086 34.8793 27.1637 34.9883 27.1473C34.7622 27.0363 34.5084 26.9757 34.2392 26.9757ZM34.3409 28.9342L34.3419 28.9384L34.3429 28.9373C34.3429 28.9373 34.3419 28.9353 34.3409 28.9342ZM34.159 28.9455C34.1189 28.9332 34.084 28.9116 34.0542 28.8829C33.2804 29.6032 32.8879 29.5981 32.743 29.5539C32.9968 29.9978 33.4418 30.3163 33.9658 30.4006C33.8774 30.2804 33.7469 29.9197 34.159 28.9455ZM33.9966 28.6023C32.9485 28.1317 32.8735 27.7556 32.8797 27.6415C32.6505 27.9334 32.5159 28.2992 32.5159 28.6979C32.5159 28.8479 32.5344 28.9918 32.5714 29.1305C32.6495 28.9959 32.9382 28.7308 33.9802 28.7267C33.9792 28.7174 33.9782 28.7082 33.9782 28.6979C33.9782 28.665 33.9843 28.6321 33.9966 28.6023ZM35.5082 27.5326C35.5082 27.6754 35.3993 28.0433 34.4621 28.5623C34.4837 28.5962 34.4961 28.6352 34.4991 28.6773C35.5421 28.59 35.8535 28.8294 35.9439 28.9558C35.9563 28.8716 35.9624 28.7863 35.9624 28.6989C35.9624 28.2488 35.7908 27.8388 35.5082 27.5326ZM33.9966 28.6023C32.9485 28.1317 32.8735 27.7556 32.8797 27.6415C32.6505 27.9334 32.5159 28.2992 32.5159 28.6979C32.5159 28.8479 32.5344 28.9918 32.5714 29.1305C32.6495 28.9959 32.9382 28.7308 33.9802 28.7267C33.9792 28.7174 33.9782 28.7082 33.9782 28.6979C33.9782 28.665 33.9843 28.6321 33.9966 28.6023ZM34.159 28.9455C34.1189 28.9332 34.084 28.9116 34.0542 28.8829C33.2804 29.6032 32.8879 29.5981 32.743 29.5539C32.9968 29.9978 33.4418 30.3163 33.9658 30.4006C33.8774 30.2804 33.7469 29.9197 34.159 28.9455ZM34.3409 28.9342L34.3419 28.9384L34.3429 28.9373C34.3429 28.9373 34.3419 28.9353 34.3409 28.9342ZM34.2392 26.9757C33.9617 26.9757 33.6997 27.0414 33.4685 27.1575C33.6164 27.2079 33.934 27.436 34.157 28.4513C34.1826 28.442 34.2104 28.4379 34.2392 28.4379C34.2535 28.4379 34.269 28.4389 34.2823 28.441C34.5238 27.3086 34.8793 27.1637 34.9883 27.1473C34.7622 27.0363 34.5084 26.9757 34.2392 26.9757ZM34.4385 28.8664C34.4128 28.8973 34.3799 28.9219 34.3429 28.9373C34.8393 29.82 34.7756 30.2095 34.7005 30.3585C35.2041 30.2187 35.6161 29.856 35.8206 29.3843C35.7045 29.446 35.3294 29.5272 34.4385 28.8664ZM35.5082 27.5326C35.5082 27.6754 35.3993 28.0433 34.4621 28.5623C34.4837 28.5962 34.4961 28.6352 34.4991 28.6773C35.5421 28.59 35.8535 28.8294 35.9439 28.9558C35.9563 28.8716 35.9624 28.7863 35.9624 28.6989C35.9624 28.2488 35.7908 27.8388 35.5082 27.5326ZM34.4385 28.8664C34.4128 28.8973 34.3799 28.9219 34.3429 28.9373C34.8393 29.82 34.7756 30.2095 34.7005 30.3585C35.2041 30.2187 35.6161 29.856 35.8206 29.3843C35.7045 29.446 35.3294 29.5272 34.4385 28.8664ZM34.2392 26.9757C33.9617 26.9757 33.6997 27.0414 33.4685 27.1575C33.6164 27.2079 33.934 27.436 34.157 28.4513C34.1826 28.442 34.2104 28.4379 34.2392 28.4379C34.2535 28.4379 34.269 28.4389 34.2823 28.441C34.5238 27.3086 34.8793 27.1637 34.9883 27.1473C34.7622 27.0363 34.5084 26.9757 34.2392 26.9757ZM34.3409 28.9342L34.3419 28.9384L34.3429 28.9373C34.3429 28.9373 34.3419 28.9353 34.3409 28.9342ZM34.159 28.9455C34.1189 28.9332 34.084 28.9116 34.0542 28.8829C33.2804 29.6032 32.8879 29.5981 32.743 29.5539C32.9968 29.9978 33.4418 30.3163 33.9658 30.4006C33.8774 30.2804 33.7469 29.9197 34.159 28.9455ZM33.9966 28.6023C32.9485 28.1317 32.8735 27.7556 32.8797 27.6415C32.6505 27.9334 32.5159 28.2992 32.5159 28.6979C32.5159 28.8479 32.5344 28.9918 32.5714 29.1305C32.6495 28.9959 32.9382 28.7308 33.9802 28.7267C33.9792 28.7174 33.9782 28.7082 33.9782 28.6979C33.9782 28.665 33.9843 28.6321 33.9966 28.6023ZM35.5082 27.5326C35.5082 27.6754 35.3993 28.0433 34.4621 28.5623C34.4837 28.5962 34.4961 28.6352 34.4991 28.6773C35.5421 28.59 35.8535 28.8294 35.9439 28.9558C35.9563 28.8716 35.9624 28.7863 35.9624 28.6989C35.9624 28.2488 35.7908 27.8388 35.5082 27.5326ZM33.9966 28.6023C32.9485 28.1317 32.8735 27.7556 32.8797 27.6415C32.6505 27.9334 32.5159 28.2992 32.5159 28.6979C32.5159 28.8479 32.5344 28.9918 32.5714 29.1305C32.6495 28.9959 32.9382 28.7308 33.9802 28.7267C33.9792 28.7174 33.9782 28.7082 33.9782 28.6979C33.9782 28.665 33.9843 28.6321 33.9966 28.6023ZM34.159 28.9455C34.1189 28.9332 34.084 28.9116 34.0542 28.8829C33.2804 29.6032 32.8879 29.5981 32.743 29.5539C32.9968 29.9978 33.4418 30.3163 33.9658 30.4006C33.8774 30.2804 33.7469 29.9197 34.159 28.9455ZM34.3409 28.9342L34.3419 28.9384L34.3429 28.9373C34.3429 28.9373 34.3419 28.9353 34.3409 28.9342ZM34.2392 26.9757C33.9617 26.9757 33.6997 27.0414 33.4685 27.1575C33.6164 27.2079 33.934 27.436 34.157 28.4513C34.1826 28.442 34.2104 28.4379 34.2392 28.4379C34.2535 28.4379 34.269 28.4389 34.2823 28.441C34.5238 27.3086 34.8793 27.1637 34.9883 27.1473C34.7622 27.0363 34.5084 26.9757 34.2392 26.9757ZM34.4385 28.8664C34.4128 28.8973 34.3799 28.9219 34.3429 28.9373C34.8393 29.82 34.7756 30.2095 34.7005 30.3585C35.2041 30.2187 35.6161 29.856 35.8206 29.3843C35.7045 29.446 35.3294 29.5272 34.4385 28.8664ZM35.5082 27.5326C35.5082 27.6754 35.3993 28.0433 34.4621 28.5623C34.4837 28.5962 34.4961 28.6352 34.4991 28.6773C35.5421 28.59 35.8535 28.8294 35.9439 28.9558C35.9563 28.8716 35.9624 28.7863 35.9624 28.6989C35.9624 28.2488 35.7908 27.8388 35.5082 27.5326ZM34.4385 28.8664C34.4128 28.8973 34.3799 28.9219 34.3429 28.9373C34.8393 29.82 34.7756 30.2095 34.7005 30.3585C35.2041 30.2187 35.6161 29.856 35.8206 29.3843C35.7045 29.446 35.3294 29.5272 34.4385 28.8664ZM34.2392 26.9757C33.9617 26.9757 33.6997 27.0414 33.4685 27.1575C33.6164 27.2079 33.934 27.436 34.157 28.4513C34.1826 28.442 34.2104 28.4379 34.2392 28.4379C34.2535 28.4379 34.269 28.4389 34.2823 28.441C34.5238 27.3086 34.8793 27.1637 34.9883 27.1473C34.7622 27.0363 34.5084 26.9757 34.2392 26.9757ZM34.3409 28.9342L34.3419 28.9384L34.3429 28.9373C34.3429 28.9373 34.3419 28.9353 34.3409 28.9342ZM34.159 28.9455C34.1189 28.9332 34.084 28.9116 34.0542 28.8829C33.2804 29.6032 32.8879 29.5981 32.743 29.5539C32.9968 29.9978 33.4418 30.3163 33.9658 30.4006C33.8774 30.2804 33.7469 29.9197 34.159 28.9455ZM33.9966 28.6023C32.9485 28.1317 32.8735 27.7556 32.8797 27.6415C32.6505 27.9334 32.5159 28.2992 32.5159 28.6979C32.5159 28.8479 32.5344 28.9918 32.5714 29.1305C32.6495 28.9959 32.9382 28.7308 33.9802 28.7267C33.9792 28.7174 33.9782 28.7082 33.9782 28.6979C33.9782 28.665 33.9843 28.6321 33.9966 28.6023ZM35.5082 27.5326C35.5082 27.6754 35.3993 28.0433 34.4621 28.5623C34.4837 28.5962 34.4961 28.6352 34.4991 28.6773C35.5421 28.59 35.8535 28.8294 35.9439 28.9558C35.9563 28.8716 35.9624 28.7863 35.9624 28.6989C35.9624 28.2488 35.7908 27.8388 35.5082 27.5326ZM33.9966 28.6023C32.9485 28.1317 32.8735 27.7556 32.8797 27.6415C32.6505 27.9334 32.5159 28.2992 32.5159 28.6979C32.5159 28.8479 32.5344 28.9918 32.5714 29.1305C32.6495 28.9959 32.9382 28.7308 33.9802 28.7267C33.9792 28.7174 33.9782 28.7082 33.9782 28.6979C33.9782 28.665 33.9843 28.6321 33.9966 28.6023ZM34.159 28.9455C34.1189 28.9332 34.084 28.9116 34.0542 28.8829C33.2804 29.6032 32.8879 29.5981 32.743 29.5539C32.9968 29.9978 33.4418 30.3163 33.9658 30.4006C33.8774 30.2804 33.7469 29.9197 34.159 28.9455ZM34.3409 28.9342L34.3419 28.9384L34.3429 28.9373C34.3429 28.9373 34.3419 28.9353 34.3409 28.9342ZM34.2392 26.9757C33.9617 26.9757 33.6997 27.0414 33.4685 27.1575C33.6164 27.2079 33.934 27.436 34.157 28.4513C34.1826 28.442 34.2104 28.4379 34.2392 28.4379C34.2535 28.4379 34.269 28.4389 34.2823 28.441C34.5238 27.3086 34.8793 27.1637 34.9883 27.1473C34.7622 27.0363 34.5084 26.9757 34.2392 26.9757ZM34.4385 28.8664C34.4128 28.8973 34.3799 28.9219 34.3429 28.9373C34.8393 29.82 34.7756 30.2095 34.7005 30.3585C35.2041 30.2187 35.6161 29.856 35.8206 29.3843C35.7045 29.446 35.3294 29.5272 34.4385 28.8664ZM35.5082 27.5326C35.5082 27.6754 35.3993 28.0433 34.4621 28.5623C34.4837 28.5962 34.4961 28.6352 34.4991 28.6773C35.5421 28.59 35.8535 28.8294 35.9439 28.9558C35.9563 28.8716 35.9624 28.7863 35.9624 28.6989C35.9624 28.2488 35.7908 27.8388 35.5082 27.5326ZM34.4385 28.8664C34.4128 28.8973 34.3799 28.9219 34.3429 28.9373C34.8393 29.82 34.7756 30.2095 34.7005 30.3585C35.2041 30.2187 35.6161 29.856 35.8206 29.3843C35.7045 29.446 35.3294 29.5272 34.4385 28.8664ZM34.2392 26.9757C33.9617 26.9757 33.6997 27.0414 33.4685 27.1575C33.6164 27.2079 33.934 27.436 34.157 28.4513C34.1826 28.442 34.2104 28.4379 34.2392 28.4379C34.2535 28.4379 34.269 28.4389 34.2823 28.441C34.5238 27.3086 34.8793 27.1637 34.9883 27.1473C34.7622 27.0363 34.5084 26.9757 34.2392 26.9757ZM34.3409 28.9342L34.3419 28.9384L34.3429 28.9373C34.3429 28.9373 34.3419 28.9353 34.3409 28.9342ZM34.159 28.9455C34.1189 28.9332 34.084 28.9116 34.0542 28.8829C33.2804 29.6032 32.8879 29.5981 32.743 29.5539C32.9968 29.9978 33.4418 30.3163 33.9658 30.4006C33.8774 30.2804 33.7469 29.9197 34.159 28.9455ZM33.9966 28.6023C32.9485 28.1317 32.8735 27.7556 32.8797 27.6415C32.6505 27.9334 32.5159 28.2992 32.5159 28.6979C32.5159 28.8479 32.5344 28.9918 32.5714 29.1305C32.6495 28.9959 32.9382 28.7308 33.9802 28.7267C33.9792 28.7174 33.9782 28.7082 33.9782 28.6979C33.9782 28.665 33.9843 28.6321 33.9966 28.6023ZM34.3409 28.9342L34.3419 28.9384L34.3429 28.9373C34.3429 28.9373 34.3419 28.9353 34.3409 28.9342ZM34.3409 28.9342L34.3419 28.9384L34.3429 28.9373C34.3429 28.9373 34.3419 28.9353 34.3409 28.9342ZM34.3409 28.9342L34.3419 28.9384L34.3429 28.9373C34.3429 28.9373 34.3419 28.9353 34.3409 28.9342ZM34.3409 28.9342L34.3419 28.9384L34.3429 28.9373C34.3429 28.9373 34.3419 28.9353 34.3409 28.9342ZM34.3409 28.9342L34.3419 28.9384L34.3429 28.9373C34.3429 28.9373 34.3419 28.9353 34.3409 28.9342ZM34.3409 28.9342L34.3419 28.9384L34.3429 28.9373C34.3429 28.9373 34.3419 28.9353 34.3409 28.9342ZM34.3409 28.9342L34.3419 28.9384L34.3429 28.9373C34.3429 28.9373 34.3419 28.9353 34.3409 28.9342ZM34.3409 28.9342L34.3419 28.9384L34.3429 28.9373C34.3429 28.9373 34.3419 28.9353 34.3409 28.9342ZM34.3409 28.9342L34.3419 28.9384L34.3429 28.9373C34.3429 28.9373 34.3419 28.9353 34.3409 28.9342ZM34.3409 28.9342L34.3419 28.9384L34.3429 28.9373C34.3429 28.9373 34.3419 28.9353 34.3409 28.9342Z" fill="#E1D9C5"/>
<path d="M15.0801 28.9342L15.0812 28.9384L15.0822 28.9373C15.0812 28.9373 15.0812 28.9353 15.0801 28.9342ZM15.0801 28.9342L15.0812 28.9384L15.0822 28.9373C15.0812 28.9373 15.0812 28.9353 15.0801 28.9342ZM15.0801 28.9342L15.0812 28.9384L15.0822 28.9373C15.0812 28.9373 15.0812 28.9353 15.0801 28.9342ZM15.0801 28.9342L15.0812 28.9384L15.0822 28.9373C15.0812 28.9373 15.0812 28.9353 15.0801 28.9342ZM15.0801 28.9342L15.0812 28.9384L15.0822 28.9373C15.0812 28.9373 15.0812 28.9353 15.0801 28.9342ZM15.0801 28.9342L15.0812 28.9384L15.0822 28.9373C15.0812 28.9373 15.0812 28.9353 15.0801 28.9342ZM15.0801 28.9342L15.0812 28.9384L15.0822 28.9373C15.0812 28.9373 15.0812 28.9353 15.0801 28.9342ZM15.0801 28.9342L15.0812 28.9384L15.0822 28.9373C15.0812 28.9373 15.0812 28.9353 15.0801 28.9342ZM15.0801 28.9342L15.0812 28.9384L15.0822 28.9373C15.0812 28.9373 15.0812 28.9353 15.0801 28.9342ZM15.0801 28.9342L15.0812 28.9384L15.0822 28.9373C15.0812 28.9373 15.0812 28.9353 15.0801 28.9342ZM16.2465 27.5326C16.2465 27.6754 16.1375 28.0433 15.2004 28.5623C15.222 28.5962 15.2343 28.6352 15.2374 28.6773C16.2804 28.59 16.5917 28.8294 16.6822 28.9558C16.6945 28.8716 16.7007 28.7863 16.7007 28.6989C16.7007 28.2488 16.529 27.8388 16.2465 27.5326ZM14.7349 28.6023C13.6867 28.1317 13.6117 27.7556 13.6179 27.6415C13.3887 27.9334 13.2541 28.2992 13.2541 28.6979C13.2541 28.8479 13.2726 28.9918 13.3096 29.1305C13.3877 28.9959 13.6765 28.7308 14.7184 28.7267C14.7174 28.7174 14.7164 28.7082 14.7164 28.6979C14.7164 28.665 14.7225 28.6321 14.7349 28.6023ZM14.8972 28.9455C14.8572 28.9332 14.8222 28.9116 14.7924 28.8829C14.0186 29.6032 13.6261 29.5981 13.4812 29.5539C13.735 29.9978 14.18 30.3163 14.7041 30.4006C14.6157 30.2804 14.4852 29.9197 14.8972 28.9455ZM15.0801 28.9342L15.0812 28.9384L15.0822 28.9373C15.0812 28.9373 15.0812 28.9353 15.0801 28.9342ZM14.9784 26.9757C14.701 26.9757 14.4389 27.0414 14.2077 27.1575C14.3557 27.2079 14.6732 27.436 14.8962 28.4513C14.9219 28.442 14.9496 28.4379 14.9784 28.4379C14.9928 28.4379 15.0082 28.4389 15.0216 28.441C15.2631 27.3086 15.6186 27.1637 15.7275 27.1473C15.5004 27.0363 15.2466 26.9757 14.9784 26.9757ZM15.1767 28.8664C15.1511 28.8973 15.1182 28.9219 15.0812 28.9373C15.5775 29.82 15.5138 30.2095 15.4388 30.3585C15.9423 30.2187 16.3544 29.856 16.5588 29.3843C16.4427 29.446 16.0687 29.5272 15.1767 28.8664ZM16.2465 27.5326C16.2465 27.6754 16.1375 28.0433 15.2004 28.5623C15.222 28.5962 15.2343 28.6352 15.2374 28.6773C16.2804 28.59 16.5917 28.8294 16.6822 28.9558C16.6945 28.8716 16.7007 28.7863 16.7007 28.6989C16.7007 28.2488 16.529 27.8388 16.2465 27.5326ZM15.1767 28.8664C15.1511 28.8973 15.1182 28.9219 15.0812 28.9373C15.5775 29.82 15.5138 30.2095 15.4388 30.3585C15.9423 30.2187 16.3544 29.856 16.5588 29.3843C16.4427 29.446 16.0687 29.5272 15.1767 28.8664ZM14.9784 26.9757C14.701 26.9757 14.4389 27.0414 14.2077 27.1575C14.3557 27.2079 14.6732 27.436 14.8962 28.4513C14.9219 28.442 14.9496 28.4379 14.9784 28.4379C14.9928 28.4379 15.0082 28.4389 15.0216 28.441C15.2631 27.3086 15.6186 27.1637 15.7275 27.1473C15.5004 27.0363 15.2466 26.9757 14.9784 26.9757ZM15.0801 28.9342L15.0812 28.9384L15.0822 28.9373C15.0812 28.9373 15.0812 28.9353 15.0801 28.9342ZM14.8972 28.9455C14.8572 28.9332 14.8222 28.9116 14.7924 28.8829C14.0186 29.6032 13.6261 29.5981 13.4812 29.5539C13.735 29.9978 14.18 30.3163 14.7041 30.4006C14.6157 30.2804 14.4852 29.9197 14.8972 28.9455ZM14.7349 28.6023C13.6867 28.1317 13.6117 27.7556 13.6179 27.6415C13.3887 27.9334 13.2541 28.2992 13.2541 28.6979C13.2541 28.8479 13.2726 28.9918 13.3096 29.1305C13.3877 28.9959 13.6765 28.7308 14.7184 28.7267C14.7174 28.7174 14.7164 28.7082 14.7164 28.6979C14.7164 28.665 14.7225 28.6321 14.7349 28.6023ZM16.2465 27.5326C16.2465 27.6754 16.1375 28.0433 15.2004 28.5623C15.222 28.5962 15.2343 28.6352 15.2374 28.6773C16.2804 28.59 16.5917 28.8294 16.6822 28.9558C16.6945 28.8716 16.7007 28.7863 16.7007 28.6989C16.7007 28.2488 16.529 27.8388 16.2465 27.5326ZM14.7349 28.6023C13.6867 28.1317 13.6117 27.7556 13.6179 27.6415C13.3887 27.9334 13.2541 28.2992 13.2541 28.6979C13.2541 28.8479 13.2726 28.9918 13.3096 29.1305C13.3877 28.9959 13.6765 28.7308 14.7184 28.7267C14.7174 28.7174 14.7164 28.7082 14.7164 28.6979C14.7164 28.665 14.7225 28.6321 14.7349 28.6023ZM14.8972 28.9455C14.8572 28.9332 14.8222 28.9116 14.7924 28.8829C14.0186 29.6032 13.6261 29.5981 13.4812 29.5539C13.735 29.9978 14.18 30.3163 14.7041 30.4006C14.6157 30.2804 14.4852 29.9197 14.8972 28.9455ZM15.0801 28.9342L15.0812 28.9384L15.0822 28.9373C15.0812 28.9373 15.0812 28.9353 15.0801 28.9342ZM14.9784 26.9757C14.701 26.9757 14.4389 27.0414 14.2077 27.1575C14.3557 27.2079 14.6732 27.436 14.8962 28.4513C14.9219 28.442 14.9496 28.4379 14.9784 28.4379C14.9928 28.4379 15.0082 28.4389 15.0216 28.441C15.2631 27.3086 15.6186 27.1637 15.7275 27.1473C15.5004 27.0363 15.2466 26.9757 14.9784 26.9757ZM15.1767 28.8664C15.1511 28.8973 15.1182 28.9219 15.0812 28.9373C15.5775 29.82 15.5138 30.2095 15.4388 30.3585C15.9423 30.2187 16.3544 29.856 16.5588 29.3843C16.4427 29.446 16.0687 29.5272 15.1767 28.8664ZM16.2465 27.5326C16.2465 27.6754 16.1375 28.0433 15.2004 28.5623C15.222 28.5962 15.2343 28.6352 15.2374 28.6773C16.2804 28.59 16.5917 28.8294 16.6822 28.9558C16.6945 28.8716 16.7007 28.7863 16.7007 28.6989C16.7007 28.2488 16.529 27.8388 16.2465 27.5326ZM15.1767 28.8664C15.1511 28.8973 15.1182 28.9219 15.0812 28.9373C15.5775 29.82 15.5138 30.2095 15.4388 30.3585C15.9423 30.2187 16.3544 29.856 16.5588 29.3843C16.4427 29.446 16.0687 29.5272 15.1767 28.8664ZM14.9784 26.9757C14.701 26.9757 14.4389 27.0414 14.2077 27.1575C14.3557 27.2079 14.6732 27.436 14.8962 28.4513C14.9219 28.442 14.9496 28.4379 14.9784 28.4379C14.9928 28.4379 15.0082 28.4389 15.0216 28.441C15.2631 27.3086 15.6186 27.1637 15.7275 27.1473C15.5004 27.0363 15.2466 26.9757 14.9784 26.9757ZM15.0801 28.9342L15.0812 28.9384L15.0822 28.9373C15.0812 28.9373 15.0812 28.9353 15.0801 28.9342ZM14.8972 28.9455C14.8572 28.9332 14.8222 28.9116 14.7924 28.8829C14.0186 29.6032 13.6261 29.5981 13.4812 29.5539C13.735 29.9978 14.18 30.3163 14.7041 30.4006C14.6157 30.2804 14.4852 29.9197 14.8972 28.9455ZM14.7349 28.6023C13.6867 28.1317 13.6117 27.7556 13.6179 27.6415C13.3887 27.9334 13.2541 28.2992 13.2541 28.6979C13.2541 28.8479 13.2726 28.9918 13.3096 29.1305C13.3877 28.9959 13.6765 28.7308 14.7184 28.7267C14.7174 28.7174 14.7164 28.7082 14.7164 28.6979C14.7164 28.665 14.7225 28.6321 14.7349 28.6023ZM16.2465 27.5326C16.2465 27.6754 16.1375 28.0433 15.2004 28.5623C15.222 28.5962 15.2343 28.6352 15.2374 28.6773C16.2804 28.59 16.5917 28.8294 16.6822 28.9558C16.6945 28.8716 16.7007 28.7863 16.7007 28.6989C16.7007 28.2488 16.529 27.8388 16.2465 27.5326ZM14.7349 28.6023C13.6867 28.1317 13.6117 27.7556 13.6179 27.6415C13.3887 27.9334 13.2541 28.2992 13.2541 28.6979C13.2541 28.8479 13.2726 28.9918 13.3096 29.1305C13.3877 28.9959 13.6765 28.7308 14.7184 28.7267C14.7174 28.7174 14.7164 28.7082 14.7164 28.6979C14.7164 28.665 14.7225 28.6321 14.7349 28.6023ZM14.8972 28.9455C14.8572 28.9332 14.8222 28.9116 14.7924 28.8829C14.0186 29.6032 13.6261 29.5981 13.4812 29.5539C13.735 29.9978 14.18 30.3163 14.7041 30.4006C14.6157 30.2804 14.4852 29.9197 14.8972 28.9455ZM15.0801 28.9342L15.0812 28.9384L15.0822 28.9373C15.0812 28.9373 15.0812 28.9353 15.0801 28.9342ZM14.9784 26.9757C14.701 26.9757 14.4389 27.0414 14.2077 27.1575C14.3557 27.2079 14.6732 27.436 14.8962 28.4513C14.9219 28.442 14.9496 28.4379 14.9784 28.4379C14.9928 28.4379 15.0082 28.4389 15.0216 28.441C15.2631 27.3086 15.6186 27.1637 15.7275 27.1473C15.5004 27.0363 15.2466 26.9757 14.9784 26.9757ZM15.1767 28.8664C15.1511 28.8973 15.1182 28.9219 15.0812 28.9373C15.5775 29.82 15.5138 30.2095 15.4388 30.3585C15.9423 30.2187 16.3544 29.856 16.5588 29.3843C16.4427 29.446 16.0687 29.5272 15.1767 28.8664ZM16.2465 27.5326C16.2465 27.6754 16.1375 28.0433 15.2004 28.5623C15.222 28.5962 15.2343 28.6352 15.2374 28.6773C16.2804 28.59 16.5917 28.8294 16.6822 28.9558C16.6945 28.8716 16.7007 28.7863 16.7007 28.6989C16.7007 28.2488 16.529 27.8388 16.2465 27.5326ZM15.1767 28.8664C15.1511 28.8973 15.1182 28.9219 15.0812 28.9373C15.5775 29.82 15.5138 30.2095 15.4388 30.3585C15.9423 30.2187 16.3544 29.856 16.5588 29.3843C16.4427 29.446 16.0687 29.5272 15.1767 28.8664ZM14.9784 26.9757C14.701 26.9757 14.4389 27.0414 14.2077 27.1575C14.3557 27.2079 14.6732 27.436 14.8962 28.4513C14.9219 28.442 14.9496 28.4379 14.9784 28.4379C14.9928 28.4379 15.0082 28.4389 15.0216 28.441C15.2631 27.3086 15.6186 27.1637 15.7275 27.1473C15.5004 27.0363 15.2466 26.9757 14.9784 26.9757ZM15.0801 28.9342L15.0812 28.9384L15.0822 28.9373C15.0812 28.9373 15.0812 28.9353 15.0801 28.9342ZM14.8972 28.9455C14.8572 28.9332 14.8222 28.9116 14.7924 28.8829C14.0186 29.6032 13.6261 29.5981 13.4812 29.5539C13.735 29.9978 14.18 30.3163 14.7041 30.4006C14.6157 30.2804 14.4852 29.9197 14.8972 28.9455ZM14.7349 28.6023C13.6867 28.1317 13.6117 27.7556 13.6179 27.6415C13.3887 27.9334 13.2541 28.2992 13.2541 28.6979C13.2541 28.8479 13.2726 28.9918 13.3096 29.1305C13.3877 28.9959 13.6765 28.7308 14.7184 28.7267C14.7174 28.7174 14.7164 28.7082 14.7164 28.6979C14.7164 28.665 14.7225 28.6321 14.7349 28.6023ZM16.2465 27.5326C16.2465 27.6754 16.1375 28.0433 15.2004 28.5623C15.222 28.5962 15.2343 28.6352 15.2374 28.6773C16.2804 28.59 16.5917 28.8294 16.6822 28.9558C16.6945 28.8716 16.7007 28.7863 16.7007 28.6989C16.7007 28.2488 16.529 27.8388 16.2465 27.5326ZM14.7349 28.6023C13.6867 28.1317 13.6117 27.7556 13.6179 27.6415C13.3887 27.9334 13.2541 28.2992 13.2541 28.6979C13.2541 28.8479 13.2726 28.9918 13.3096 29.1305C13.3877 28.9959 13.6765 28.7308 14.7184 28.7267C14.7174 28.7174 14.7164 28.7082 14.7164 28.6979C14.7164 28.665 14.7225 28.6321 14.7349 28.6023ZM14.8972 28.9455C14.8572 28.9332 14.8222 28.9116 14.7924 28.8829C14.0186 29.6032 13.6261 29.5981 13.4812 29.5539C13.735 29.9978 14.18 30.3163 14.7041 30.4006C14.6157 30.2804 14.4852 29.9197 14.8972 28.9455ZM15.0801 28.9342L15.0812 28.9384L15.0822 28.9373C15.0812 28.9373 15.0812 28.9353 15.0801 28.9342ZM14.9784 26.9757C14.701 26.9757 14.4389 27.0414 14.2077 27.1575C14.3557 27.2079 14.6732 27.436 14.8962 28.4513C14.9219 28.442 14.9496 28.4379 14.9784 28.4379C14.9928 28.4379 15.0082 28.4389 15.0216 28.441C15.2631 27.3086 15.6186 27.1637 15.7275 27.1473C15.5004 27.0363 15.2466 26.9757 14.9784 26.9757ZM15.1767 28.8664C15.1511 28.8973 15.1182 28.9219 15.0812 28.9373C15.5775 29.82 15.5138 30.2095 15.4388 30.3585C15.9423 30.2187 16.3544 29.856 16.5588 29.3843C16.4427 29.446 16.0687 29.5272 15.1767 28.8664ZM16.2465 27.5326C16.2465 27.6754 16.1375 28.0433 15.2004 28.5623C15.222 28.5962 15.2343 28.6352 15.2374 28.6773C16.2804 28.59 16.5917 28.8294 16.6822 28.9558C16.6945 28.8716 16.7007 28.7863 16.7007 28.6989C16.7007 28.2488 16.529 27.8388 16.2465 27.5326ZM15.1767 28.8664C15.1511 28.8973 15.1182 28.9219 15.0812 28.9373C15.5775 29.82 15.5138 30.2095 15.4388 30.3585C15.9423 30.2187 16.3544 29.856 16.5588 29.3843C16.4427 29.446 16.0687 29.5272 15.1767 28.8664ZM14.9784 26.9757C14.701 26.9757 14.4389 27.0414 14.2077 27.1575C14.3557 27.2079 14.6732 27.436 14.8962 28.4513C14.9219 28.442 14.9496 28.4379 14.9784 28.4379C14.9928 28.4379 15.0082 28.4389 15.0216 28.441C15.2631 27.3086 15.6186 27.1637 15.7275 27.1473C15.5004 27.0363 15.2466 26.9757 14.9784 26.9757ZM15.0801 28.9342L15.0812 28.9384L15.0822 28.9373C15.0812 28.9373 15.0812 28.9353 15.0801 28.9342ZM14.8972 28.9455C14.8572 28.9332 14.8222 28.9116 14.7924 28.8829C14.0186 29.6032 13.6261 29.5981 13.4812 29.5539C13.735 29.9978 14.18 30.3163 14.7041 30.4006C14.6157 30.2804 14.4852 29.9197 14.8972 28.9455ZM14.7349 28.6023C13.6867 28.1317 13.6117 27.7556 13.6179 27.6415C13.3887 27.9334 13.2541 28.2992 13.2541 28.6979C13.2541 28.8479 13.2726 28.9918 13.3096 29.1305C13.3877 28.9959 13.6765 28.7308 14.7184 28.7267C14.7174 28.7174 14.7164 28.7082 14.7164 28.6979C14.7164 28.665 14.7225 28.6321 14.7349 28.6023ZM16.2465 27.5326C16.2465 27.6754 16.1375 28.0433 15.2004 28.5623C15.222 28.5962 15.2343 28.6352 15.2374 28.6773C16.2804 28.59 16.5917 28.8294 16.6822 28.9558C16.6945 28.8716 16.7007 28.7863 16.7007 28.6989C16.7007 28.2488 16.529 27.8388 16.2465 27.5326ZM14.7349 28.6023C13.6867 28.1317 13.6117 27.7556 13.6179 27.6415C13.3887 27.9334 13.2541 28.2992 13.2541 28.6979C13.2541 28.8479 13.2726 28.9918 13.3096 29.1305C13.3877 28.9959 13.6765 28.7308 14.7184 28.7267C14.7174 28.7174 14.7164 28.7082 14.7164 28.6979C14.7164 28.665 14.7225 28.6321 14.7349 28.6023ZM14.8972 28.9455C14.8572 28.9332 14.8222 28.9116 14.7924 28.8829C14.0186 29.6032 13.6261 29.5981 13.4812 29.5539C13.735 29.9978 14.18 30.3163 14.7041 30.4006C14.6157 30.2804 14.4852 29.9197 14.8972 28.9455ZM15.0801 28.9342L15.0812 28.9384L15.0822 28.9373C15.0812 28.9373 15.0812 28.9353 15.0801 28.9342ZM14.9784 26.9757C14.701 26.9757 14.4389 27.0414 14.2077 27.1575C14.3557 27.2079 14.6732 27.436 14.8962 28.4513C14.9219 28.442 14.9496 28.4379 14.9784 28.4379C14.9928 28.4379 15.0082 28.4389 15.0216 28.441C15.2631 27.3086 15.6186 27.1637 15.7275 27.1473C15.5004 27.0363 15.2466 26.9757 14.9784 26.9757ZM15.1767 28.8664C15.1511 28.8973 15.1182 28.9219 15.0812 28.9373C15.5775 29.82 15.5138 30.2095 15.4388 30.3585C15.9423 30.2187 16.3544 29.856 16.5588 29.3843C16.4427 29.446 16.0687 29.5272 15.1767 28.8664ZM16.2465 27.5326C16.2465 27.6754 16.1375 28.0433 15.2004 28.5623C15.222 28.5962 15.2343 28.6352 15.2374 28.6773C16.2804 28.59 16.5917 28.8294 16.6822 28.9558C16.6945 28.8716 16.7007 28.7863 16.7007 28.6989C16.7007 28.2488 16.529 27.8388 16.2465 27.5326ZM15.1767 28.8664C15.1511 28.8973 15.1182 28.9219 15.0812 28.9373C15.5775 29.82 15.5138 30.2095 15.4388 30.3585C15.9423 30.2187 16.3544 29.856 16.5588 29.3843C16.4427 29.446 16.0687 29.5272 15.1767 28.8664ZM14.9784 26.9757C14.701 26.9757 14.4389 27.0414 14.2077 27.1575C14.3557 27.2079 14.6732 27.436 14.8962 28.4513C14.9219 28.442 14.9496 28.4379 14.9784 28.4379C14.9928 28.4379 15.0082 28.4389 15.0216 28.441C15.2631 27.3086 15.6186 27.1637 15.7275 27.1473C15.5004 27.0363 15.2466 26.9757 14.9784 26.9757ZM15.0801 28.9342L15.0812 28.9384L15.0822 28.9373C15.0812 28.9373 15.0812 28.9353 15.0801 28.9342ZM14.8972 28.9455C14.8572 28.9332 14.8222 28.9116 14.7924 28.8829C14.0186 29.6032 13.6261 29.5981 13.4812 29.5539C13.735 29.9978 14.18 30.3163 14.7041 30.4006C14.6157 30.2804 14.4852 29.9197 14.8972 28.9455ZM14.7349 28.6023C13.6867 28.1317 13.6117 27.7556 13.6179 27.6415C13.3887 27.9334 13.2541 28.2992 13.2541 28.6979C13.2541 28.8479 13.2726 28.9918 13.3096 29.1305C13.3877 28.9959 13.6765 28.7308 14.7184 28.7267C14.7174 28.7174 14.7164 28.7082 14.7164 28.6979C14.7164 28.665 14.7225 28.6321 14.7349 28.6023ZM16.2465 27.5326C16.2465 27.6754 16.1375 28.0433 15.2004 28.5623C15.222 28.5962 15.2343 28.6352 15.2374 28.6773C16.2804 28.59 16.5917 28.8294 16.6822 28.9558C16.6945 28.8716 16.7007 28.7863 16.7007 28.6989C16.7007 28.2488 16.529 27.8388 16.2465 27.5326ZM14.7349 28.6023C13.6867 28.1317 13.6117 27.7556 13.6179 27.6415C13.3887 27.9334 13.2541 28.2992 13.2541 28.6979C13.2541 28.8479 13.2726 28.9918 13.3096 29.1305C13.3877 28.9959 13.6765 28.7308 14.7184 28.7267C14.7174 28.7174 14.7164 28.7082 14.7164 28.6979C14.7164 28.665 14.7225 28.6321 14.7349 28.6023ZM14.8972 28.9455C14.8572 28.9332 14.8222 28.9116 14.7924 28.8829C14.0186 29.6032 13.6261 29.5981 13.4812 29.5539C13.735 29.9978 14.18 30.3163 14.7041 30.4006C14.6157 30.2804 14.4852 29.9197 14.8972 28.9455ZM15.0801 28.9342L15.0812 28.9384L15.0822 28.9373C15.0812 28.9373 15.0812 28.9353 15.0801 28.9342ZM14.9784 26.9757C14.701 26.9757 14.4389 27.0414 14.2077 27.1575C14.3557 27.2079 14.6732 27.436 14.8962 28.4513C14.9219 28.442 14.9496 28.4379 14.9784 28.4379C14.9928 28.4379 15.0082 28.4389 15.0216 28.441C15.2631 27.3086 15.6186 27.1637 15.7275 27.1473C15.5004 27.0363 15.2466 26.9757 14.9784 26.9757ZM15.1767 28.8664C15.1511 28.8973 15.1182 28.9219 15.0812 28.9373C15.5775 29.82 15.5138 30.2095 15.4388 30.3585C15.9423 30.2187 16.3544 29.856 16.5588 29.3843C16.4427 29.446 16.0687 29.5272 15.1767 28.8664ZM16.2465 27.5326C16.2465 27.6754 16.1375 28.0433 15.2004 28.5623C15.222 28.5962 15.2343 28.6352 15.2374 28.6773C16.2804 28.59 16.5917 28.8294 16.6822 28.9558C16.6945 28.8716 16.7007 28.7863 16.7007 28.6989C16.7007 28.2488 16.529 27.8388 16.2465 27.5326ZM15.1767 28.8664C15.1511 28.8973 15.1182 28.9219 15.0812 28.9373C15.5775 29.82 15.5138 30.2095 15.4388 30.3585C15.9423 30.2187 16.3544 29.856 16.5588 29.3843C16.4427 29.446 16.0687 29.5272 15.1767 28.8664ZM15.7275 27.1473C15.5015 27.0373 15.2476 26.9757 14.9784 26.9757C14.701 26.9757 14.4389 27.0414 14.2077 27.1575C14.3557 27.2079 14.6732 27.436 14.8962 28.4513C14.9219 28.442 14.9496 28.4379 14.9784 28.4379C14.9928 28.4379 15.0082 28.4389 15.0216 28.441C15.262 27.3086 15.6176 27.1637 15.7275 27.1473ZM15.0812 28.9384C15.0822 28.9363 15.0812 28.9353 15.0801 28.9342L15.0812 28.9384ZM14.7935 28.8829C14.0197 29.6032 13.6271 29.5981 13.4822 29.5539C13.7361 29.9978 14.181 30.3163 14.7051 30.4006C14.6167 30.2814 14.4862 29.9197 14.8983 28.9466C14.8572 28.9332 14.8222 28.9116 14.7935 28.8829ZM14.7164 28.6989C14.7164 28.665 14.7225 28.6321 14.7349 28.6034C13.6867 28.1327 13.6117 27.7566 13.6179 27.6426C13.3887 27.9344 13.2541 28.3002 13.2541 28.6989C13.2541 28.849 13.2726 28.9928 13.3096 29.1315C13.3877 28.9969 13.6765 28.7318 14.7184 28.7277C14.7174 28.7174 14.7164 28.7082 14.7164 28.6989ZM16.2465 27.5326C16.2465 27.6754 16.1375 28.0433 15.2004 28.5623C15.222 28.5962 15.2343 28.6352 15.2374 28.6773C16.2804 28.59 16.5917 28.8294 16.6822 28.9558C16.6945 28.8716 16.7007 28.7863 16.7007 28.6989C16.7007 28.2488 16.529 27.8388 16.2465 27.5326ZM14.9784 26.4382C13.7299 26.4382 12.7188 27.4504 12.7188 28.6989C12.7188 29.9474 13.7299 30.9586 14.9784 30.9586C16.2259 30.9586 17.2391 29.9464 17.2391 28.6989C17.2381 27.4504 16.2259 26.4382 14.9784 26.4382ZM15.1767 28.8664C15.1511 28.8973 15.1182 28.9219 15.0812 28.9373C15.5775 29.82 15.5138 30.2095 15.4388 30.3585C15.9423 30.2187 16.3544 29.856 16.5588 29.3843C16.4427 29.446 16.0687 29.5272 15.1767 28.8664ZM15.7275 27.1473C15.5015 27.0373 15.2476 26.9757 14.9784 26.9757C14.701 26.9757 14.4389 27.0414 14.2077 27.1575C14.3557 27.2079 14.6732 27.436 14.8962 28.4513C14.9219 28.442 14.9496 28.4379 14.9784 28.4379C14.9928 28.4379 15.0082 28.4389 15.0216 28.441C15.262 27.3086 15.6176 27.1637 15.7275 27.1473ZM15.0812 28.9384C15.0822 28.9363 15.0812 28.9353 15.0801 28.9342L15.0812 28.9384ZM14.7935 28.8829C14.0197 29.6032 13.6271 29.5981 13.4822 29.5539C13.7361 29.9978 14.181 30.3163 14.7051 30.4006C14.6167 30.2814 14.4862 29.9197 14.8983 28.9466C14.8572 28.9332 14.8222 28.9116 14.7935 28.8829ZM14.7164 28.6989C14.7164 28.665 14.7225 28.6321 14.7349 28.6034C13.6867 28.1327 13.6117 27.7566 13.6179 27.6426C13.3887 27.9344 13.2541 28.3002 13.2541 28.6989C13.2541 28.849 13.2726 28.9928 13.3096 29.1315C13.3877 28.9969 13.6765 28.7318 14.7184 28.7277C14.7174 28.7174 14.7164 28.7082 14.7164 28.6989ZM16.2465 27.5326C16.2465 27.6754 16.1375 28.0433 15.2004 28.5623C15.222 28.5962 15.2343 28.6352 15.2374 28.6773C16.2804 28.59 16.5917 28.8294 16.6822 28.9558C16.6945 28.8716 16.7007 28.7863 16.7007 28.6989C16.7007 28.2488 16.529 27.8388 16.2465 27.5326ZM14.7349 28.6023C13.6867 28.1317 13.6117 27.7556 13.6179 27.6415C13.3887 27.9334 13.2541 28.2992 13.2541 28.6979C13.2541 28.8479 13.2726 28.9918 13.3096 29.1305C13.3877 28.9959 13.6765 28.7308 14.7184 28.7267C14.7174 28.7174 14.7164 28.7082 14.7164 28.6979C14.7164 28.665 14.7225 28.6321 14.7349 28.6023ZM14.8972 28.9455C14.8572 28.9332 14.8222 28.9116 14.7924 28.8829C14.0186 29.6032 13.6261 29.5981 13.4812 29.5539C13.735 29.9978 14.18 30.3163 14.7041 30.4006C14.6157 30.2804 14.4852 29.9197 14.8972 28.9455ZM15.0801 28.9342L15.0812 28.9384L15.0822 28.9373C15.0812 28.9373 15.0812 28.9353 15.0801 28.9342ZM14.9784 26.9757C14.701 26.9757 14.4389 27.0414 14.2077 27.1575C14.3557 27.2079 14.6732 27.436 14.8962 28.4513C14.9219 28.442 14.9496 28.4379 14.9784 28.4379C14.9928 28.4379 15.0082 28.4389 15.0216 28.441C15.2631 27.3086 15.6186 27.1637 15.7275 27.1473C15.5004 27.0363 15.2466 26.9757 14.9784 26.9757ZM15.1767 28.8664C15.1511 28.8973 15.1182 28.9219 15.0812 28.9373C15.5775 29.82 15.5138 30.2095 15.4388 30.3585C15.9423 30.2187 16.3544 29.856 16.5588 29.3843C16.4427 29.446 16.0687 29.5272 15.1767 28.8664ZM16.2465 27.5326C16.2465 27.6754 16.1375 28.0433 15.2004 28.5623C15.222 28.5962 15.2343 28.6352 15.2374 28.6773C16.2804 28.59 16.5917 28.8294 16.6822 28.9558C16.6945 28.8716 16.7007 28.7863 16.7007 28.6989C16.7007 28.2488 16.529 27.8388 16.2465 27.5326ZM15.1767 28.8664C15.1511 28.8973 15.1182 28.9219 15.0812 28.9373C15.5775 29.82 15.5138 30.2095 15.4388 30.3585C15.9423 30.2187 16.3544 29.856 16.5588 29.3843C16.4427 29.446 16.0687 29.5272 15.1767 28.8664ZM14.9784 26.9757C14.701 26.9757 14.4389 27.0414 14.2077 27.1575C14.3557 27.2079 14.6732 27.436 14.8962 28.4513C14.9219 28.442 14.9496 28.4379 14.9784 28.4379C14.9928 28.4379 15.0082 28.4389 15.0216 28.441C15.2631 27.3086 15.6186 27.1637 15.7275 27.1473C15.5004 27.0363 15.2466 26.9757 14.9784 26.9757ZM15.0801 28.9342L15.0812 28.9384L15.0822 28.9373C15.0812 28.9373 15.0812 28.9353 15.0801 28.9342ZM14.8972 28.9455C14.8572 28.9332 14.8222 28.9116 14.7924 28.8829C14.0186 29.6032 13.6261 29.5981 13.4812 29.5539C13.735 29.9978 14.18 30.3163 14.7041 30.4006C14.6157 30.2804 14.4852 29.9197 14.8972 28.9455ZM14.7349 28.6023C13.6867 28.1317 13.6117 27.7556 13.6179 27.6415C13.3887 27.9334 13.2541 28.2992 13.2541 28.6979C13.2541 28.8479 13.2726 28.9918 13.3096 29.1305C13.3877 28.9959 13.6765 28.7308 14.7184 28.7267C14.7174 28.7174 14.7164 28.7082 14.7164 28.6979C14.7164 28.665 14.7225 28.6321 14.7349 28.6023ZM16.2465 27.5326C16.2465 27.6754 16.1375 28.0433 15.2004 28.5623C15.222 28.5962 15.2343 28.6352 15.2374 28.6773C16.2804 28.59 16.5917 28.8294 16.6822 28.9558C16.6945 28.8716 16.7007 28.7863 16.7007 28.6989C16.7007 28.2488 16.529 27.8388 16.2465 27.5326ZM14.7349 28.6023C13.6867 28.1317 13.6117 27.7556 13.6179 27.6415C13.3887 27.9334 13.2541 28.2992 13.2541 28.6979C13.2541 28.8479 13.2726 28.9918 13.3096 29.1305C13.3877 28.9959 13.6765 28.7308 14.7184 28.7267C14.7174 28.7174 14.7164 28.7082 14.7164 28.6979C14.7164 28.665 14.7225 28.6321 14.7349 28.6023ZM14.8972 28.9455C14.8572 28.9332 14.8222 28.9116 14.7924 28.8829C14.0186 29.6032 13.6261 29.5981 13.4812 29.5539C13.735 29.9978 14.18 30.3163 14.7041 30.4006C14.6157 30.2804 14.4852 29.9197 14.8972 28.9455ZM15.0801 28.9342L15.0812 28.9384L15.0822 28.9373C15.0812 28.9373 15.0812 28.9353 15.0801 28.9342ZM14.9784 26.9757C14.701 26.9757 14.4389 27.0414 14.2077 27.1575C14.3557 27.2079 14.6732 27.436 14.8962 28.4513C14.9219 28.442 14.9496 28.4379 14.9784 28.4379C14.9928 28.4379 15.0082 28.4389 15.0216 28.441C15.2631 27.3086 15.6186 27.1637 15.7275 27.1473C15.5004 27.0363 15.2466 26.9757 14.9784 26.9757ZM15.1767 28.8664C15.1511 28.8973 15.1182 28.9219 15.0812 28.9373C15.5775 29.82 15.5138 30.2095 15.4388 30.3585C15.9423 30.2187 16.3544 29.856 16.5588 29.3843C16.4427 29.446 16.0687 29.5272 15.1767 28.8664ZM16.2465 27.5326C16.2465 27.6754 16.1375 28.0433 15.2004 28.5623C15.222 28.5962 15.2343 28.6352 15.2374 28.6773C16.2804 28.59 16.5917 28.8294 16.6822 28.9558C16.6945 28.8716 16.7007 28.7863 16.7007 28.6989C16.7007 28.2488 16.529 27.8388 16.2465 27.5326ZM15.1767 28.8664C15.1511 28.8973 15.1182 28.9219 15.0812 28.9373C15.5775 29.82 15.5138 30.2095 15.4388 30.3585C15.9423 30.2187 16.3544 29.856 16.5588 29.3843C16.4427 29.446 16.0687 29.5272 15.1767 28.8664ZM14.9784 26.9757C14.701 26.9757 14.4389 27.0414 14.2077 27.1575C14.3557 27.2079 14.6732 27.436 14.8962 28.4513C14.9219 28.442 14.9496 28.4379 14.9784 28.4379C14.9928 28.4379 15.0082 28.4389 15.0216 28.441C15.2631 27.3086 15.6186 27.1637 15.7275 27.1473C15.5004 27.0363 15.2466 26.9757 14.9784 26.9757ZM15.0801 28.9342L15.0812 28.9384L15.0822 28.9373C15.0812 28.9373 15.0812 28.9353 15.0801 28.9342ZM14.8972 28.9455C14.8572 28.9332 14.8222 28.9116 14.7924 28.8829C14.0186 29.6032 13.6261 29.5981 13.4812 29.5539C13.735 29.9978 14.18 30.3163 14.7041 30.4006C14.6157 30.2804 14.4852 29.9197 14.8972 28.9455ZM14.7349 28.6023C13.6867 28.1317 13.6117 27.7556 13.6179 27.6415C13.3887 27.9334 13.2541 28.2992 13.2541 28.6979C13.2541 28.8479 13.2726 28.9918 13.3096 29.1305C13.3877 28.9959 13.6765 28.7308 14.7184 28.7267C14.7174 28.7174 14.7164 28.7082 14.7164 28.6979C14.7164 28.665 14.7225 28.6321 14.7349 28.6023ZM16.2465 27.5326C16.2465 27.6754 16.1375 28.0433 15.2004 28.5623C15.222 28.5962 15.2343 28.6352 15.2374 28.6773C16.2804 28.59 16.5917 28.8294 16.6822 28.9558C16.6945 28.8716 16.7007 28.7863 16.7007 28.6989C16.7007 28.2488 16.529 27.8388 16.2465 27.5326ZM14.7349 28.6023C13.6867 28.1317 13.6117 27.7556 13.6179 27.6415C13.3887 27.9334 13.2541 28.2992 13.2541 28.6979C13.2541 28.8479 13.2726 28.9918 13.3096 29.1305C13.3877 28.9959 13.6765 28.7308 14.7184 28.7267C14.7174 28.7174 14.7164 28.7082 14.7164 28.6979C14.7164 28.665 14.7225 28.6321 14.7349 28.6023ZM14.8972 28.9455C14.8572 28.9332 14.8222 28.9116 14.7924 28.8829C14.0186 29.6032 13.6261 29.5981 13.4812 29.5539C13.735 29.9978 14.18 30.3163 14.7041 30.4006C14.6157 30.2804 14.4852 29.9197 14.8972 28.9455ZM15.0801 28.9342L15.0812 28.9384L15.0822 28.9373C15.0812 28.9373 15.0812 28.9353 15.0801 28.9342ZM14.9784 26.9757C14.701 26.9757 14.4389 27.0414 14.2077 27.1575C14.3557 27.2079 14.6732 27.436 14.8962 28.4513C14.9219 28.442 14.9496 28.4379 14.9784 28.4379C14.9928 28.4379 15.0082 28.4389 15.0216 28.441C15.2631 27.3086 15.6186 27.1637 15.7275 27.1473C15.5004 27.0363 15.2466 26.9757 14.9784 26.9757ZM15.1767 28.8664C15.1511 28.8973 15.1182 28.9219 15.0812 28.9373C15.5775 29.82 15.5138 30.2095 15.4388 30.3585C15.9423 30.2187 16.3544 29.856 16.5588 29.3843C16.4427 29.446 16.0687 29.5272 15.1767 28.8664ZM16.2465 27.5326C16.2465 27.6754 16.1375 28.0433 15.2004 28.5623C15.222 28.5962 15.2343 28.6352 15.2374 28.6773C16.2804 28.59 16.5917 28.8294 16.6822 28.9558C16.6945 28.8716 16.7007 28.7863 16.7007 28.6989C16.7007 28.2488 16.529 27.8388 16.2465 27.5326ZM15.1767 28.8664C15.1511 28.8973 15.1182 28.9219 15.0812 28.9373C15.5775 29.82 15.5138 30.2095 15.4388 30.3585C15.9423 30.2187 16.3544 29.856 16.5588 29.3843C16.4427 29.446 16.0687 29.5272 15.1767 28.8664ZM14.9784 26.9757C14.701 26.9757 14.4389 27.0414 14.2077 27.1575C14.3557 27.2079 14.6732 27.436 14.8962 28.4513C14.9219 28.442 14.9496 28.4379 14.9784 28.4379C14.9928 28.4379 15.0082 28.4389 15.0216 28.441C15.2631 27.3086 15.6186 27.1637 15.7275 27.1473C15.5004 27.0363 15.2466 26.9757 14.9784 26.9757ZM15.0801 28.9342L15.0812 28.9384L15.0822 28.9373C15.0812 28.9373 15.0812 28.9353 15.0801 28.9342ZM14.8972 28.9455C14.8572 28.9332 14.8222 28.9116 14.7924 28.8829C14.0186 29.6032 13.6261 29.5981 13.4812 29.5539C13.735 29.9978 14.18 30.3163 14.7041 30.4006C14.6157 30.2804 14.4852 29.9197 14.8972 28.9455ZM14.7349 28.6023C13.6867 28.1317 13.6117 27.7556 13.6179 27.6415C13.3887 27.9334 13.2541 28.2992 13.2541 28.6979C13.2541 28.8479 13.2726 28.9918 13.3096 29.1305C13.3877 28.9959 13.6765 28.7308 14.7184 28.7267C14.7174 28.7174 14.7164 28.7082 14.7164 28.6979C14.7164 28.665 14.7225 28.6321 14.7349 28.6023ZM16.2465 27.5326C16.2465 27.6754 16.1375 28.0433 15.2004 28.5623C15.222 28.5962 15.2343 28.6352 15.2374 28.6773C16.2804 28.59 16.5917 28.8294 16.6822 28.9558C16.6945 28.8716 16.7007 28.7863 16.7007 28.6989C16.7007 28.2488 16.529 27.8388 16.2465 27.5326ZM14.7349 28.6023C13.6867 28.1317 13.6117 27.7556 13.6179 27.6415C13.3887 27.9334 13.2541 28.2992 13.2541 28.6979C13.2541 28.8479 13.2726 28.9918 13.3096 29.1305C13.3877 28.9959 13.6765 28.7308 14.7184 28.7267C14.7174 28.7174 14.7164 28.7082 14.7164 28.6979C14.7164 28.665 14.7225 28.6321 14.7349 28.6023ZM14.8972 28.9455C14.8572 28.9332 14.8222 28.9116 14.7924 28.8829C14.0186 29.6032 13.6261 29.5981 13.4812 29.5539C13.735 29.9978 14.18 30.3163 14.7041 30.4006C14.6157 30.2804 14.4852 29.9197 14.8972 28.9455ZM15.0801 28.9342L15.0812 28.9384L15.0822 28.9373C15.0812 28.9373 15.0812 28.9353 15.0801 28.9342ZM14.9784 26.9757C14.701 26.9757 14.4389 27.0414 14.2077 27.1575C14.3557 27.2079 14.6732 27.436 14.8962 28.4513C14.9219 28.442 14.9496 28.4379 14.9784 28.4379C14.9928 28.4379 15.0082 28.4389 15.0216 28.441C15.2631 27.3086 15.6186 27.1637 15.7275 27.1473C15.5004 27.0363 15.2466 26.9757 14.9784 26.9757ZM15.1767 28.8664C15.1511 28.8973 15.1182 28.9219 15.0812 28.9373C15.5775 29.82 15.5138 30.2095 15.4388 30.3585C15.9423 30.2187 16.3544 29.856 16.5588 29.3843C16.4427 29.446 16.0687 29.5272 15.1767 28.8664ZM16.2465 27.5326C16.2465 27.6754 16.1375 28.0433 15.2004 28.5623C15.222 28.5962 15.2343 28.6352 15.2374 28.6773C16.2804 28.59 16.5917 28.8294 16.6822 28.9558C16.6945 28.8716 16.7007 28.7863 16.7007 28.6989C16.7007 28.2488 16.529 27.8388 16.2465 27.5326ZM15.1767 28.8664C15.1511 28.8973 15.1182 28.9219 15.0812 28.9373C15.5775 29.82 15.5138 30.2095 15.4388 30.3585C15.9423 30.2187 16.3544 29.856 16.5588 29.3843C16.4427 29.446 16.0687 29.5272 15.1767 28.8664ZM14.9784 26.9757C14.701 26.9757 14.4389 27.0414 14.2077 27.1575C14.3557 27.2079 14.6732 27.436 14.8962 28.4513C14.9219 28.442 14.9496 28.4379 14.9784 28.4379C14.9928 28.4379 15.0082 28.4389 15.0216 28.441C15.2631 27.3086 15.6186 27.1637 15.7275 27.1473C15.5004 27.0363 15.2466 26.9757 14.9784 26.9757ZM15.0801 28.9342L15.0812 28.9384L15.0822 28.9373C15.0812 28.9373 15.0812 28.9353 15.0801 28.9342ZM14.8972 28.9455C14.8572 28.9332 14.8222 28.9116 14.7924 28.8829C14.0186 29.6032 13.6261 29.5981 13.4812 29.5539C13.735 29.9978 14.18 30.3163 14.7041 30.4006C14.6157 30.2804 14.4852 29.9197 14.8972 28.9455ZM14.7349 28.6023C13.6867 28.1317 13.6117 27.7556 13.6179 27.6415C13.3887 27.9334 13.2541 28.2992 13.2541 28.6979C13.2541 28.8479 13.2726 28.9918 13.3096 29.1305C13.3877 28.9959 13.6765 28.7308 14.7184 28.7267C14.7174 28.7174 14.7164 28.7082 14.7164 28.6979C14.7164 28.665 14.7225 28.6321 14.7349 28.6023ZM16.2465 27.5326C16.2465 27.6754 16.1375 28.0433 15.2004 28.5623C15.222 28.5962 15.2343 28.6352 15.2374 28.6773C16.2804 28.59 16.5917 28.8294 16.6822 28.9558C16.6945 28.8716 16.7007 28.7863 16.7007 28.6989C16.7007 28.2488 16.529 27.8388 16.2465 27.5326ZM14.7349 28.6023C13.6867 28.1317 13.6117 27.7556 13.6179 27.6415C13.3887 27.9334 13.2541 28.2992 13.2541 28.6979C13.2541 28.8479 13.2726 28.9918 13.3096 29.1305C13.3877 28.9959 13.6765 28.7308 14.7184 28.7267C14.7174 28.7174 14.7164 28.7082 14.7164 28.6979C14.7164 28.665 14.7225 28.6321 14.7349 28.6023ZM14.8972 28.9455C14.8572 28.9332 14.8222 28.9116 14.7924 28.8829C14.0186 29.6032 13.6261 29.5981 13.4812 29.5539C13.735 29.9978 14.18 30.3163 14.7041 30.4006C14.6157 30.2804 14.4852 29.9197 14.8972 28.9455ZM15.0801 28.9342L15.0812 28.9384L15.0822 28.9373C15.0812 28.9373 15.0812 28.9353 15.0801 28.9342ZM14.9784 26.9757C14.701 26.9757 14.4389 27.0414 14.2077 27.1575C14.3557 27.2079 14.6732 27.436 14.8962 28.4513C14.9219 28.442 14.9496 28.4379 14.9784 28.4379C14.9928 28.4379 15.0082 28.4389 15.0216 28.441C15.2631 27.3086 15.6186 27.1637 15.7275 27.1473C15.5004 27.0363 15.2466 26.9757 14.9784 26.9757ZM15.1767 28.8664C15.1511 28.8973 15.1182 28.9219 15.0812 28.9373C15.5775 29.82 15.5138 30.2095 15.4388 30.3585C15.9423 30.2187 16.3544 29.856 16.5588 29.3843C16.4427 29.446 16.0687 29.5272 15.1767 28.8664ZM16.2465 27.5326C16.2465 27.6754 16.1375 28.0433 15.2004 28.5623C15.222 28.5962 15.2343 28.6352 15.2374 28.6773C16.2804 28.59 16.5917 28.8294 16.6822 28.9558C16.6945 28.8716 16.7007 28.7863 16.7007 28.6989C16.7007 28.2488 16.529 27.8388 16.2465 27.5326ZM15.1767 28.8664C15.1511 28.8973 15.1182 28.9219 15.0812 28.9373C15.5775 29.82 15.5138 30.2095 15.4388 30.3585C15.9423 30.2187 16.3544 29.856 16.5588 29.3843C16.4427 29.446 16.0687 29.5272 15.1767 28.8664ZM14.9784 26.9757C14.701 26.9757 14.4389 27.0414 14.2077 27.1575C14.3557 27.2079 14.6732 27.436 14.8962 28.4513C14.9219 28.442 14.9496 28.4379 14.9784 28.4379C14.9928 28.4379 15.0082 28.4389 15.0216 28.441C15.2631 27.3086 15.6186 27.1637 15.7275 27.1473C15.5004 27.0363 15.2466 26.9757 14.9784 26.9757ZM15.0801 28.9342L15.0812 28.9384L15.0822 28.9373C15.0812 28.9373 15.0812 28.9353 15.0801 28.9342ZM14.8972 28.9455C14.8572 28.9332 14.8222 28.9116 14.7924 28.8829C14.0186 29.6032 13.6261 29.5981 13.4812 29.5539C13.735 29.9978 14.18 30.3163 14.7041 30.4006C14.6157 30.2804 14.4852 29.9197 14.8972 28.9455ZM14.7349 28.6023C13.6867 28.1317 13.6117 27.7556 13.6179 27.6415C13.3887 27.9334 13.2541 28.2992 13.2541 28.6979C13.2541 28.8479 13.2726 28.9918 13.3096 29.1305C13.3877 28.9959 13.6765 28.7308 14.7184 28.7267C14.7174 28.7174 14.7164 28.7082 14.7164 28.6979C14.7164 28.665 14.7225 28.6321 14.7349 28.6023ZM16.2465 27.5326C16.2465 27.6754 16.1375 28.0433 15.2004 28.5623C15.222 28.5962 15.2343 28.6352 15.2374 28.6773C16.2804 28.59 16.5917 28.8294 16.6822 28.9558C16.6945 28.8716 16.7007 28.7863 16.7007 28.6989C16.7007 28.2488 16.529 27.8388 16.2465 27.5326ZM14.7349 28.6023C13.6867 28.1317 13.6117 27.7556 13.6179 27.6415C13.3887 27.9334 13.2541 28.2992 13.2541 28.6979C13.2541 28.8479 13.2726 28.9918 13.3096 29.1305C13.3877 28.9959 13.6765 28.7308 14.7184 28.7267C14.7174 28.7174 14.7164 28.7082 14.7164 28.6979C14.7164 28.665 14.7225 28.6321 14.7349 28.6023ZM14.8972 28.9455C14.8572 28.9332 14.8222 28.9116 14.7924 28.8829C14.0186 29.6032 13.6261 29.5981 13.4812 29.5539C13.735 29.9978 14.18 30.3163 14.7041 30.4006C14.6157 30.2804 14.4852 29.9197 14.8972 28.9455ZM15.0801 28.9342L15.0812 28.9384L15.0822 28.9373C15.0812 28.9373 15.0812 28.9353 15.0801 28.9342ZM14.9784 26.9757C14.701 26.9757 14.4389 27.0414 14.2077 27.1575C14.3557 27.2079 14.6732 27.436 14.8962 28.4513C14.9219 28.442 14.9496 28.4379 14.9784 28.4379C14.9928 28.4379 15.0082 28.4389 15.0216 28.441C15.2631 27.3086 15.6186 27.1637 15.7275 27.1473C15.5004 27.0363 15.2466 26.9757 14.9784 26.9757ZM15.1767 28.8664C15.1511 28.8973 15.1182 28.9219 15.0812 28.9373C15.5775 29.82 15.5138 30.2095 15.4388 30.3585C15.9423 30.2187 16.3544 29.856 16.5588 29.3843C16.4427 29.446 16.0687 29.5272 15.1767 28.8664ZM16.2465 27.5326C16.2465 27.6754 16.1375 28.0433 15.2004 28.5623C15.222 28.5962 15.2343 28.6352 15.2374 28.6773C16.2804 28.59 16.5917 28.8294 16.6822 28.9558C16.6945 28.8716 16.7007 28.7863 16.7007 28.6989C16.7007 28.2488 16.529 27.8388 16.2465 27.5326ZM15.1767 28.8664C15.1511 28.8973 15.1182 28.9219 15.0812 28.9373C15.5775 29.82 15.5138 30.2095 15.4388 30.3585C15.9423 30.2187 16.3544 29.856 16.5588 29.3843C16.4427 29.446 16.0687 29.5272 15.1767 28.8664ZM14.9784 26.9757C14.701 26.9757 14.4389 27.0414 14.2077 27.1575C14.3557 27.2079 14.6732 27.436 14.8962 28.4513C14.9219 28.442 14.9496 28.4379 14.9784 28.4379C14.9928 28.4379 15.0082 28.4389 15.0216 28.441C15.2631 27.3086 15.6186 27.1637 15.7275 27.1473C15.5004 27.0363 15.2466 26.9757 14.9784 26.9757ZM15.0801 28.9342L15.0812 28.9384L15.0822 28.9373C15.0812 28.9373 15.0812 28.9353 15.0801 28.9342ZM14.8972 28.9455C14.8572 28.9332 14.8222 28.9116 14.7924 28.8829C14.0186 29.6032 13.6261 29.5981 13.4812 29.5539C13.735 29.9978 14.18 30.3163 14.7041 30.4006C14.6157 30.2804 14.4852 29.9197 14.8972 28.9455ZM14.7349 28.6023C13.6867 28.1317 13.6117 27.7556 13.6179 27.6415C13.3887 27.9334 13.2541 28.2992 13.2541 28.6979C13.2541 28.8479 13.2726 28.9918 13.3096 29.1305C13.3877 28.9959 13.6765 28.7308 14.7184 28.7267C14.7174 28.7174 14.7164 28.7082 14.7164 28.6979C14.7164 28.665 14.7225 28.6321 14.7349 28.6023ZM15.0801 28.9342L15.0812 28.9384L15.0822 28.9373C15.0812 28.9373 15.0812 28.9353 15.0801 28.9342ZM15.0801 28.9342L15.0812 28.9384L15.0822 28.9373C15.0812 28.9373 15.0812 28.9353 15.0801 28.9342ZM15.0801 28.9342L15.0812 28.9384L15.0822 28.9373C15.0812 28.9373 15.0812 28.9353 15.0801 28.9342ZM15.0801 28.9342L15.0812 28.9384L15.0822 28.9373C15.0812 28.9373 15.0812 28.9353 15.0801 28.9342ZM15.0801 28.9342L15.0812 28.9384L15.0822 28.9373C15.0812 28.9373 15.0812 28.9353 15.0801 28.9342ZM15.0801 28.9342L15.0812 28.9384L15.0822 28.9373C15.0812 28.9373 15.0812 28.9353 15.0801 28.9342ZM15.0801 28.9342L15.0812 28.9384L15.0822 28.9373C15.0812 28.9373 15.0812 28.9353 15.0801 28.9342ZM15.0801 28.9342L15.0812 28.9384L15.0822 28.9373C15.0812 28.9373 15.0812 28.9353 15.0801 28.9342ZM15.0801 28.9342L15.0812 28.9384L15.0822 28.9373C15.0812 28.9373 15.0812 28.9353 15.0801 28.9342ZM15.0801 28.9342L15.0812 28.9384L15.0822 28.9373C15.0812 28.9373 15.0812 28.9353 15.0801 28.9342Z" fill="#E1D9C5"/>
<path d="M34.3406 28.9342L34.3416 28.9383L34.3427 28.9373C34.3427 28.9373 34.3416 28.9352 34.3406 28.9342ZM34.3406 28.9342L34.3416 28.9383L34.3427 28.9373C34.3427 28.9373 34.3416 28.9352 34.3406 28.9342ZM34.3406 28.9342L34.3416 28.9383L34.3427 28.9373C34.3427 28.9373 34.3416 28.9352 34.3406 28.9342ZM34.3406 28.9342L34.3416 28.9383L34.3427 28.9373C34.3427 28.9373 34.3416 28.9352 34.3406 28.9342ZM34.3406 28.9342L34.3416 28.9383L34.3427 28.9373C34.3427 28.9373 34.3416 28.9352 34.3406 28.9342ZM34.3406 28.9342L34.3416 28.9383L34.3427 28.9373C34.3427 28.9373 34.3416 28.9352 34.3406 28.9342ZM34.3406 28.9342L34.3416 28.9383L34.3427 28.9373C34.3427 28.9373 34.3416 28.9352 34.3406 28.9342ZM34.3406 28.9342L34.3416 28.9383L34.3427 28.9373C34.3427 28.9373 34.3416 28.9352 34.3406 28.9342ZM34.3406 28.9342L34.3416 28.9383L34.3427 28.9373C34.3427 28.9373 34.3416 28.9352 34.3406 28.9342ZM34.3406 28.9342L34.3416 28.9383L34.3427 28.9373C34.3427 28.9373 34.3416 28.9352 34.3406 28.9342ZM35.508 27.5325C35.508 27.6754 35.399 28.0432 34.4619 28.5622C34.4835 28.5961 34.4958 28.6351 34.4989 28.6773C35.5419 28.5899 35.8532 28.8294 35.9437 28.9557C35.956 28.8715 35.9622 28.7862 35.9622 28.6988C35.9622 28.2488 35.7905 27.8388 35.508 27.5325ZM34.4382 28.8663C34.4126 28.8972 34.3797 28.9218 34.3427 28.9373C34.839 29.8199 34.7753 30.2094 34.7003 30.3584C35.2038 30.2187 35.6159 29.8559 35.8203 29.3843C35.7042 29.4459 35.3292 29.5271 34.4382 28.8663ZM34.2389 26.9756C33.9614 26.9756 33.6994 27.0414 33.4682 27.1575C33.6162 27.2078 33.9337 27.4359 34.1567 28.4512C34.1824 28.442 34.2101 28.4378 34.2389 28.4378C34.2533 28.4378 34.2687 28.4389 34.282 28.4409C34.5235 27.3085 34.8791 27.1636 34.988 27.1472C34.7619 27.0362 34.5081 26.9756 34.2389 26.9756ZM34.3406 28.9342L34.3416 28.9383L34.3427 28.9373C34.3427 28.9373 34.3416 28.9352 34.3406 28.9342ZM34.1587 28.9455C34.1187 28.9331 34.0837 28.9116 34.0539 28.8828C33.2802 29.6031 32.8876 29.598 32.7427 29.5538C32.9965 29.9977 33.4415 30.3163 33.9656 30.4005C33.8772 30.2803 33.7467 29.9196 34.1587 28.9455ZM33.9964 28.6023C32.9482 28.1316 32.8732 27.7555 32.8794 27.6415C32.6502 27.9333 32.5156 28.2991 32.5156 28.6978C32.5156 28.8478 32.5341 28.9917 32.5711 29.1304C32.6492 28.9958 32.938 28.7307 33.9799 28.7266C33.9789 28.7173 33.9779 28.7081 33.9779 28.6978C33.9779 28.6649 33.984 28.6321 33.9964 28.6023ZM34.3406 28.9342L34.3416 28.9383L34.3427 28.9373C34.3427 28.9373 34.3416 28.9352 34.3406 28.9342ZM34.3406 28.9342L34.3416 28.9383L34.3427 28.9373C34.3427 28.9373 34.3416 28.9352 34.3406 28.9342ZM34.3406 28.9342L34.3416 28.9383L34.3427 28.9373C34.3427 28.9373 34.3416 28.9352 34.3406 28.9342ZM34.3406 28.9342L34.3416 28.9383L34.3427 28.9373C34.3427 28.9373 34.3416 28.9352 34.3406 28.9342ZM34.3406 28.9342L34.3416 28.9383L34.3427 28.9373C34.3427 28.9373 34.3416 28.9352 34.3406 28.9342ZM34.3406 28.9342L34.3416 28.9383L34.3427 28.9373C34.3427 28.9373 34.3416 28.9352 34.3406 28.9342ZM34.3406 28.9342L34.3416 28.9383L34.3427 28.9373C34.3427 28.9373 34.3416 28.9352 34.3406 28.9342ZM34.3406 28.9342L34.3416 28.9383L34.3427 28.9373C34.3427 28.9373 34.3416 28.9352 34.3406 28.9342ZM34.3406 28.9342L34.3416 28.9383L34.3427 28.9373C34.3427 28.9373 34.3416 28.9352 34.3406 28.9342ZM34.3406 28.9342L34.3416 28.9383L34.3427 28.9373C34.3427 28.9373 34.3416 28.9352 34.3406 28.9342Z" fill="#E1D9C5"/>
<path d="M34.343 28.9377L34.3408 28.9343C34.3419 28.9354 34.343 28.9377 34.343 28.9377Z" fill="#E1D9C5"/>
<path d="M34.343 28.9377L34.3408 28.9343C34.3419 28.9354 34.343 28.9377 34.343 28.9377Z" fill="#E1D9C5"/>
<path d="M27.4384 22.3601H27.2043V19.3313C27.2043 19.0206 26.9108 18.7688 26.5486 18.7688C26.1864 18.7688 25.8928 19.0206 25.8928 19.3313V22.3601H25.7869C24.8143 22.3601 24.0264 23.0364 24.0264 23.8702V24.98C24.0264 25.4244 24.4284 25.7874 24.9374 25.8186C24.9359 25.8303 24.9344 25.8424 24.9344 25.8545V27.3027C24.9344 27.4645 25.0872 27.5952 25.2754 27.5952H25.5513C25.74 27.5952 25.8923 27.4641 25.8923 27.3027V25.8545C25.8923 25.8432 25.8913 25.8324 25.8898 25.8216H27.2074C27.2053 25.835 27.2038 25.848 27.2038 25.8618V27.2958C27.2038 27.4615 27.3602 27.5956 27.5534 27.5956H27.8127C28.0059 27.5956 28.1623 27.4615 28.1623 27.2958V25.8618C28.1623 25.848 28.1608 25.8346 28.1587 25.8216H28.1703C28.6672 25.8216 29.0703 25.4759 29.0703 25.0497V23.7603C29.0708 22.9871 28.3398 22.3601 27.4384 22.3601Z" fill="#2A5B0A"/>
</g>
<defs>
<clipPath id="clip0_1238_12921">
<rect width="30.7804" height="10.7188" fill="white" transform="translate(9.73535 20.24)"/>
</clipPath>
</defs>
</svg>
