<svg width="18" height="18" viewBox="0 0 18 18" fill="none" xmlns="http://www.w3.org/2000/svg">
<g clip-path="url(#clip0_1238_16961)">
<path d="M4.95039 1.40625C4.95039 1.27198 4.89705 1.14322 4.80211 1.04828C4.70717 0.953337 4.57841 0.9 4.44414 0.9C4.30988 0.9 4.18111 0.953337 4.08617 1.04828C3.99123 1.14322 3.93789 1.27198 3.93789 1.40625V1.9125H2.92539C2.38833 1.9125 1.87326 2.12585 1.4935 2.50561C1.11374 2.88537 0.900391 3.40044 0.900391 3.9375L0.900391 4.95H17.1004V3.9375C17.1004 3.40044 16.887 2.88537 16.5073 2.50561C16.1275 2.12585 15.6125 1.9125 15.0754 1.9125H14.0629V1.40625C14.0629 1.27198 14.0096 1.14322 13.9146 1.04828C13.8197 0.953337 13.6909 0.9 13.5566 0.9C13.4224 0.9 13.2936 0.953337 13.1987 1.04828C13.1037 1.14322 13.0504 1.27198 13.0504 1.40625V1.9125H4.95039V1.40625ZM17.1004 15.075V5.9625H0.900391V15.075C0.900391 15.6121 1.11374 16.1271 1.4935 16.5069C1.87326 16.8867 2.38833 17.1 2.92539 17.1H15.0754C15.6125 17.1 16.1275 16.8867 16.5073 16.5069C16.887 16.1271 17.1004 15.6121 17.1004 15.075ZM13.5566 7.9875H14.5691C14.7034 7.9875 14.8322 8.04084 14.9271 8.13578C15.0221 8.23072 15.0754 8.35948 15.0754 8.49375V9.50625C15.0754 9.64052 15.0221 9.76928 14.9271 9.86422C14.8322 9.95916 14.7034 10.0125 14.5691 10.0125H13.5566C13.4224 10.0125 13.2936 9.95916 13.1987 9.86422C13.1037 9.76928 13.0504 9.64052 13.0504 9.50625V8.49375C13.0504 8.35948 13.1037 8.23072 13.1987 8.13578C13.2936 8.04084 13.4224 7.9875 13.5566 7.9875Z" fill="#119548"/>
</g>
<defs>
<clipPath id="clip0_1238_16961">
<rect width="18" height="18" fill="white"/>
</clipPath>
</defs>
</svg>
