<svg width="16" height="16" viewBox="0 0 16 16" fill="none" xmlns="http://www.w3.org/2000/svg">
<g clip-path="url(#clip0_1238_12479)">
<path d="M14.6865 7.48662H6.38489C6.10601 6.39083 4.99159 5.72861 3.89577 6.0075C3.16906 6.19246 2.60161 6.75991 2.41665 7.48662H1.31508C1.03103 7.48662 0.800781 7.71688 0.800781 8.00092C0.800781 8.28496 1.03103 8.51518 1.31508 8.51518H2.41668C2.69557 9.61097 3.80998 10.2732 4.9058 9.99431C5.63251 9.80934 6.19996 9.24189 6.38492 8.51518H14.6865C14.9705 8.51518 15.2008 8.28493 15.2008 8.00089C15.2008 7.71685 14.9705 7.48662 14.6865 7.48662Z" fill="#119548"/>
<path d="M14.6865 2.34343H13.0706C12.7917 1.24764 11.6773 0.585422 10.5815 0.864311C9.85478 1.04927 9.28733 1.61672 9.10237 2.34343H1.31508C1.03103 2.34343 0.800781 2.57369 0.800781 2.85773C0.800781 3.14177 1.03103 3.37203 1.31508 3.37203H9.10237C9.38126 4.46782 10.4957 5.13004 11.5915 4.85115C12.3182 4.66619 12.8857 4.09874 13.0706 3.37203H14.6865C14.9705 3.37203 15.2008 3.14177 15.2008 2.85773C15.2008 2.57369 14.9705 2.34343 14.6865 2.34343Z" fill="#119548"/>
<path d="M14.6865 12.6295H12.042C11.7631 11.5337 10.6487 10.8715 9.5529 11.1504C8.82619 11.3353 8.25874 11.9028 8.07378 12.6295H1.31508C1.03103 12.6295 0.800781 12.8597 0.800781 13.1438C0.800781 13.4278 1.03103 13.6581 1.31508 13.6581H8.07381C8.3527 14.7539 9.46711 15.4161 10.5629 15.1372C11.2896 14.9522 11.8571 14.3848 12.0421 13.6581H14.6865C14.9705 13.6581 15.2008 13.4278 15.2008 13.1438C15.2008 12.8597 14.9705 12.6295 14.6865 12.6295Z" fill="#119548"/>
</g>
<defs>
<clipPath id="clip0_1238_12479">
<rect width="14.4" height="14.4" fill="white" transform="translate(0.800781 0.800903)"/>
</clipPath>
</defs>
</svg>
