<svg width="16" height="16" viewBox="0 0 16 16" fill="none" xmlns="http://www.w3.org/2000/svg">
<path d="M8.6665 9.37463V14.6666H2.6665C2.66643 13.9099 2.82739 13.1618 3.13868 12.4721C3.44997 11.7824 3.90447 11.1668 4.47198 10.6663C5.03949 10.1657 5.70702 9.7917 6.43022 9.569C7.15342 9.34629 7.91573 9.28004 8.6665 9.37463ZM7.99984 8.66663C5.78984 8.66663 3.99984 6.87663 3.99984 4.66663C3.99984 2.45663 5.78984 0.666626 7.99984 0.666626C10.2098 0.666626 11.9998 2.45663 11.9998 4.66663C11.9998 6.87663 10.2098 8.66663 7.99984 8.66663ZM11.8618 13.276L14.2185 10.9193L15.1618 11.862L11.8618 15.162L9.5045 12.8046L10.4478 11.862L11.8612 13.276H11.8618Z" fill="#119548"/>
</svg>
