<svg width="16" height="16" viewBox="0 0 16 16" fill="none" xmlns="http://www.w3.org/2000/svg">
<g clip-path="url(#clip0_1238_12677)">
<path d="M7.9969 0.792389C3.58747 0.812862 0 4.41682 0 8.82608C0 10.1651 0.335725 11.4852 0.970583 12.6549V10.5309C0.970583 10.1395 1.10991 9.77639 1.35415 9.46489C1.33393 9.25307 1.32352 9.03986 1.32352 8.82608C1.32352 5.14317 4.3199 2.13304 7.9969 2.11594C11.68 2.13298 14.6764 5.14317 14.6764 8.82608C14.6764 9.06285 14.6632 9.29877 14.6385 9.53311C14.8507 9.8289 14.9706 10.1678 14.9706 10.5309V12.7627C15.6439 11.5667 16 10.2063 16 8.82608C16 4.41682 12.4125 0.812862 7.9969 0.792389Z" fill="#119548"/>
<path d="M1.46341 10.188C1.42961 10.2987 1.41162 10.4134 1.41162 10.531V12.5781V13.5309C1.41162 14.4568 2.51429 15.2074 3.87461 15.2074H4.91162V8.85455H3.87461C2.68704 8.85455 1.69608 9.42658 1.46341 10.188Z" fill="#119548"/>
<path d="M14.5293 13.531V12.5448V10.5311C14.5293 10.4588 14.5218 10.3877 14.5087 10.3178C14.3548 9.49264 13.3204 8.85461 12.0663 8.85461H11.0293V15.2075H12.0663C13.4267 15.2075 14.5293 14.4569 14.5293 13.531Z" fill="#119548"/>
</g>
<defs>
<clipPath id="clip0_1238_12677">
<rect width="16" height="16" fill="white"/>
</clipPath>
</defs>
</svg>
