<svg width="20" height="20" viewBox="0 0 20 20" fill="none" xmlns="http://www.w3.org/2000/svg">
<g clip-path="url(#clip0_1238_11409)">
<path d="M17.5 3.66922H14.1797V2.78212C14.1797 2.05632 13.9388 1.44476 13.457 0.947445C12.9753 0.450133 12.3828 0.201477 11.6797 0.201477H8.32031C7.61719 0.201477 7.02474 0.450133 6.54297 0.947445C6.0612 1.44476 5.82031 2.05632 5.82031 2.78212V3.66922H2.5C1.79688 3.66922 1.20443 3.91115 0.722656 4.39503C0.240885 4.8789 0 5.49718 0 6.24986V9.67728C0 10.2418 0.273438 10.5241 0.820312 10.5241V17.4192C0.820312 17.8762 0.989583 18.2794 1.32812 18.6289C1.66667 18.9784 2.05729 19.1531 2.5 19.1531H17.5C17.9427 19.1531 18.3333 18.9784 18.6719 18.6289C19.0104 18.2794 19.1797 17.8762 19.1797 17.4192V10.5241C19.7266 10.5241 20 10.2418 20 9.67728V6.24986C20 5.49718 19.7591 4.8789 19.2773 4.39503C18.7956 3.91115 18.2031 3.66922 17.5 3.66922ZM7.5 2.78212C7.5 2.54019 7.57812 2.33857 7.73438 2.17728C7.89062 2.01599 8.08594 1.93535 8.32031 1.93535H11.6797C11.9141 1.93535 12.1094 2.01599 12.2656 2.17728C12.4219 2.33857 12.5 2.54019 12.5 2.78212V3.66922H7.5V2.78212ZM2.5 17.4192V10.5241H7.5V13.1047C7.5 13.5886 7.66276 13.9985 7.98828 14.3345C8.3138 14.6706 8.71094 14.8386 9.17969 14.8386H10.8203C11.2891 14.8386 11.6862 14.6706 12.0117 14.3345C12.3372 13.9985 12.5 13.5886 12.5 13.1047V10.5241H17.5V17.4192H2.5ZM9.17969 13.1047V10.5241H10.8203V13.1047H9.17969ZM18.3203 8.83051H1.67969V6.24986C1.67969 5.65847 1.95312 5.36277 2.5 5.36277H17.5C18.0469 5.36277 18.3203 5.65847 18.3203 6.24986V8.83051Z" fill="#119548"/>
</g>
<defs>
<clipPath id="clip0_1238_11409">
<rect width="20" height="20" fill="white"/>
</clipPath>
</defs>
</svg>
