<svg width="7" height="7" viewBox="0 0 7 7" fill="none" xmlns="http://www.w3.org/2000/svg">
<path d="M1.90875 1.45841C1.88538 1.43457 1.85755 1.41557 1.82683 1.40249C1.79612 1.38941 1.76313 1.38251 1.72975 1.38218C1.69637 1.38186 1.66325 1.38811 1.63229 1.40059C1.60132 1.41307 1.57312 1.43153 1.5493 1.45491C1.27978 1.72286 1.06599 2.04153 0.920253 2.39253C0.774519 2.74353 0.699729 3.11991 0.700197 3.49996C0.69976 3.89459 0.780436 4.2851 0.937218 4.64726C1.094 5.00941 1.32354 5.33547 1.6116 5.60521C1.66008 5.65003 1.72412 5.67418 1.79012 5.67255C1.85613 5.67092 1.91889 5.64362 1.9651 5.59646C2.0757 5.48586 2.06205 5.30981 1.95565 5.20796C1.72447 4.98765 1.54051 4.72263 1.41494 4.42901C1.28937 4.13539 1.22481 3.8193 1.2252 3.49996C1.2252 2.85386 1.48455 2.26796 1.90525 1.84166C2.00675 1.73841 2.01725 1.56691 1.90875 1.45841Z" fill="#119548"/>
<path d="M2.5251 2.07512C2.479 2.02769 2.41598 2.00047 2.34985 1.99942C2.28372 1.99837 2.21987 2.02358 2.1723 2.06952C1.98289 2.25645 1.83255 2.47918 1.73004 2.72476C1.62753 2.97034 1.5749 3.23386 1.5752 3.49997C1.5752 4.09217 1.8307 4.62452 2.23775 4.99237C2.28578 5.03481 2.34831 5.05714 2.41236 5.05473C2.47642 5.05232 2.53709 5.02535 2.5818 4.97942C2.6966 4.86462 2.67525 4.68402 2.56745 4.58252C2.41968 4.44362 2.30197 4.27588 2.22161 4.08968C2.14124 3.90348 2.09992 3.70278 2.1002 3.49997C2.1002 3.09747 2.26015 2.73207 2.5202 2.46397C2.6203 2.36107 2.63675 2.18642 2.5251 2.07512Z" fill="#119548"/>
<path d="M4.47533 2.07512C4.52143 2.02769 4.58444 2.00047 4.65057 1.99942C4.7167 1.99837 4.78055 2.02358 4.82813 2.06952C5.01754 2.25645 5.16788 2.47918 5.27038 2.72476C5.37289 2.97034 5.42553 3.23386 5.42523 3.49997C5.42523 4.09217 5.16973 4.62452 4.76268 4.99237C4.71464 5.03481 4.65212 5.05714 4.58806 5.05473C4.52401 5.05232 4.46334 5.02535 4.41863 4.97942C4.30383 4.86462 4.32518 4.68402 4.43298 4.58252C4.58075 4.44362 4.69845 4.27588 4.77882 4.08968C4.85919 3.90348 4.90051 3.70278 4.90023 3.49997C4.90023 3.09747 4.74028 2.73207 4.48023 2.46397C4.38013 2.36107 4.36368 2.18642 4.47533 2.07512Z" fill="#119548"/>
<path d="M5.09169 1.45841C5.11506 1.43457 5.14289 1.41557 5.1736 1.40249C5.20432 1.38941 5.23731 1.38251 5.27069 1.38218C5.30407 1.38186 5.33719 1.38811 5.36815 1.40059C5.39911 1.41307 5.42731 1.43153 5.45114 1.45491C5.72066 1.72286 5.93445 2.04153 6.08018 2.39253C6.22592 2.74353 6.30071 3.11991 6.30024 3.49996C6.30068 3.89459 6.22 4.2851 6.06322 4.64726C5.90644 5.00941 5.67689 5.33547 5.38884 5.60521C5.34036 5.65003 5.27632 5.67418 5.21031 5.67255C5.14431 5.67092 5.08154 5.64362 5.03534 5.59646C4.92474 5.48586 4.93839 5.30981 5.04514 5.20796C5.27625 4.98762 5.46015 4.72259 5.58566 4.42897C5.71117 4.13535 5.77567 3.81928 5.77524 3.49996C5.77524 2.85386 5.51589 2.26796 5.09519 1.84166C4.99369 1.73841 4.98319 1.56691 5.09169 1.45841Z" fill="#119548"/>
<path d="M3.5001 2.97501C3.36086 2.97501 3.22732 3.03032 3.12887 3.12878C3.03041 3.22723 2.9751 3.36077 2.9751 3.50001C2.9751 3.63924 3.03041 3.77278 3.12887 3.87124C3.22732 3.96969 3.36086 4.02501 3.5001 4.02501C3.63934 4.02501 3.77287 3.96969 3.87133 3.87124C3.96979 3.77278 4.0251 3.63924 4.0251 3.50001C4.0251 3.36077 3.96979 3.22723 3.87133 3.12878C3.77287 3.03032 3.63934 2.97501 3.5001 2.97501Z" fill="#119548"/>
</svg>
