<svg width="18" height="13" viewBox="0 0 18 13" fill="none" xmlns="http://www.w3.org/2000/svg">
<path d="M1.49999 2.37497H16.5C16.776 2.37497 17 2.06695 17 1.68749C17 1.30797 16.7759 1 16.5 1H1.49999C1.22398 1 1 1.30803 1 1.68749C1 2.06695 1.22402 2.37497 1.49999 2.37497Z" fill="#119548" stroke="#119548"/>
<path d="M16.5 5.81248H1.49999C1.22398 5.81248 1 6.12051 1 6.49996C1 6.87942 1.22402 7.18744 1.49999 7.18744H16.5C16.776 7.18744 17 6.87942 17 6.49996C17 6.12051 16.776 5.81248 16.5 5.81248Z" fill="#119548" stroke="#119548"/>
<path d="M16.5 10.6251H6.49999C6.22398 10.6251 6 10.9331 6 11.3126C6 11.6921 6.22402 12.0001 6.49999 12.0001H16.5C16.776 12.0001 17 11.6921 17 11.3126C17 10.9331 16.776 10.6251 16.5 10.6251Z" fill="#119548" stroke="#119548"/>
</svg>
