<svg width="16" height="16" viewBox="0 0 16 16" fill="none" xmlns="http://www.w3.org/2000/svg">
<g clip-path="url(#clip0_1238_11685)">
<path d="M6.47615 2.18157C6.58691 2.23493 6.68038 2.31844 6.74584 2.42251C6.81129 2.52659 6.84607 2.64701 6.84618 2.76996V13.2302C6.846 13.3532 6.81112 13.4737 6.74554 13.5778C6.67997 13.6819 6.58635 13.7654 6.47546 13.8186C6.36457 13.8719 6.2409 13.8928 6.11866 13.8789C5.99643 13.865 5.88059 13.8169 5.78446 13.7402L2.69476 11.2689H-0.345257C-0.518646 11.2689 -0.684935 11.2 -0.80754 11.0774C-0.930145 10.9548 -0.999023 10.7886 -0.999023 10.6152V5.38503C-0.999023 5.21164 -0.930145 5.04535 -0.80754 4.92274C-0.684935 4.80014 -0.518646 4.73126 -0.345257 4.73126H2.69476L5.78446 2.26002C5.88066 2.18312 5.99662 2.13496 6.11899 2.12108C6.24137 2.1072 6.36517 2.12817 6.47615 2.18157ZM15.808 4.92216C15.8689 4.98289 15.9172 5.05503 15.9502 5.13446C15.9831 5.21388 16.0001 5.29903 16.0001 5.38503C16.0001 5.47102 15.9831 5.55617 15.9502 5.63559C15.9172 5.71502 15.8689 5.78716 15.808 5.84789L13.6545 8.00009L15.808 10.1523C15.9308 10.2751 15.9997 10.4416 15.9997 10.6152C15.9997 10.7888 15.9308 10.9553 15.808 11.078C15.6853 11.2008 15.5188 11.2698 15.3451 11.2698C15.1715 11.2698 15.005 11.2008 14.8823 11.078L12.7301 8.92452L10.5779 11.078C10.4551 11.2008 10.2886 11.2698 10.115 11.2698C9.9414 11.2698 9.77491 11.2008 9.65215 11.078C9.52939 10.9553 9.46042 10.7888 9.46042 10.6152C9.46042 10.4416 9.52939 10.2751 9.65215 10.1523L11.8057 8.00009L9.65215 5.84789C9.59136 5.78711 9.54314 5.71495 9.51025 5.63553C9.47735 5.55611 9.46042 5.47099 9.46042 5.38503C9.46042 5.29906 9.47735 5.21394 9.51025 5.13452C9.54314 5.0551 9.59136 4.98294 9.65215 4.92216C9.77491 4.7994 9.9414 4.73043 10.115 4.73043C10.201 4.73043 10.2861 4.74736 10.3655 4.78026C10.4449 4.81316 10.5171 4.86137 10.5779 4.92216L12.7301 7.07567L14.8823 4.92216C14.943 4.86128 15.0152 4.81297 15.0946 4.78001C15.174 4.74705 15.2592 4.73009 15.3451 4.73009C15.4311 4.73009 15.5163 4.74705 15.5957 4.78001C15.6751 4.81297 15.7473 4.86128 15.808 4.92216Z" fill="#119548"/>
</g>
<defs>
<clipPath id="clip0_1238_11685">
<rect width="16" height="16" fill="white"/>
</clipPath>
</defs>
</svg>
