<svg width="16" height="16" viewBox="0 0 16 16" fill="none" xmlns="http://www.w3.org/2000/svg">
<g clip-path="url(#clip0_1238_12497)">
<path d="M13.2965 10.8271L12.6406 10.3899V6.59375C12.6406 4.17711 10.7837 2.18637 8.42188 1.97251V1.22188C8.42188 0.988891 8.23299 0.800003 8 0.800003C7.76701 0.800003 7.57812 0.988891 7.57812 1.22188V1.97251C5.21627 2.18637 3.35938 4.17711 3.35938 6.59375V10.3899L2.7035 10.8271C2.58611 10.9054 2.51562 11.0371 2.51562 11.1781V12.8656C2.51562 13.0986 2.70451 13.2875 2.9375 13.2875H13.0625C13.2955 13.2875 13.4844 13.0986 13.4844 12.8656V11.1781C13.4844 11.0371 13.4139 10.9053 13.2965 10.8271Z" fill="#119548"/>
<path d="M6.05176 14.1313C6.46556 14.7737 7.18396 15.2 7.99992 15.2C8.81585 15.2 9.53428 14.7737 9.94805 14.1313H6.05176Z" fill="#119548"/>
</g>
<defs>
<clipPath id="clip0_1238_12497">
<rect width="14.4" height="14.4" fill="white" transform="translate(0.799805 0.800003)"/>
</clipPath>
</defs>
</svg>
