<svg width="7" height="7" viewBox="0 0 7 7" fill="none" xmlns="http://www.w3.org/2000/svg">
<g clip-path="url(#clip0_1238_12751)">
<path d="M3.5 0C2.05275 0 0.875 1.18592 0.875 2.64396C0.875 4.71566 3.25325 6.85474 3.35446 6.94458C3.39617 6.98162 3.44808 6.99999 3.5 6.99999C3.55192 6.99999 3.60383 6.98162 3.64554 6.94487C3.74675 6.85474 6.125 4.71566 6.125 2.64396C6.125 1.18592 4.94725 0 3.5 0ZM3.5 4.08333C2.69587 4.08333 2.04167 3.42912 2.04167 2.625C2.04167 1.82087 2.69587 1.16667 3.5 1.16667C4.30412 1.16667 4.95833 1.82087 4.95833 2.625C4.95833 3.42912 4.30412 4.08333 3.5 4.08333Z" fill="#119548"/>
</g>
<defs>
<clipPath id="clip0_1238_12751">
<rect width="7" height="7" fill="white"/>
</clipPath>
</defs>
</svg>
