<svg width="7" height="7" viewBox="0 0 7 7" fill="none" xmlns="http://www.w3.org/2000/svg">
<g clip-path="url(#clip0_1238_12748)">
<path d="M7.11888 6.54839H6.67361V1.01613C6.67361 0.891413 6.57251 0.790323 6.4478 0.790323H4.75425V0.225806C4.75425 0.101091 4.65316 0 4.52844 0H2.96191C2.8372 0 2.73611 0.101091 2.73611 0.225806V0.790323H2.55264C2.42792 0.790323 2.32683 0.891413 2.32683 1.01613V6.54839H1.88156C1.75993 6.54839 1.65533 6.6419 1.64967 6.76338C1.64363 6.89307 1.74688 7 1.87522 7H3.48409C3.54644 7 3.59699 6.94945 3.59699 6.8871V5.58871H3.50458C3.383 5.58871 3.27838 5.49527 3.27265 5.37383C3.26654 5.24416 3.36987 5.1371 3.4982 5.1371C3.56638 5.1371 5.55226 5.1371 5.49586 5.1371C5.61744 5.1371 5.72206 5.23054 5.72779 5.35198C5.7339 5.48165 5.63058 5.58871 5.50223 5.58871H5.40344V6.8871C5.40344 6.94945 5.454 7 5.51635 7H7.12522C7.25356 7 7.35681 6.89307 7.35077 6.76338C7.34511 6.6419 7.24051 6.54839 7.11888 6.54839ZM3.94982 4.67137H3.69578C3.57108 4.67137 3.46998 4.57027 3.46998 4.44556C3.46998 4.32086 3.57108 4.21976 3.69578 4.21976H3.94982C4.07452 4.21976 4.17562 4.32086 4.17562 4.44556C4.17562 4.57027 4.07452 4.67137 3.94982 4.67137ZM3.94982 3.8246H3.69578C3.57108 3.8246 3.46998 3.72349 3.46998 3.59879C3.46998 3.47409 3.57108 3.37298 3.69578 3.37298H3.94982C4.07452 3.37298 4.17562 3.47409 4.17562 3.59879C4.17562 3.72349 4.07452 3.8246 3.94982 3.8246ZM3.94982 2.97782H3.69578C3.57108 2.97782 3.46998 2.87672 3.46998 2.75202C3.46998 2.62731 3.57108 2.52621 3.69578 2.52621H3.94982C4.07452 2.52621 4.17562 2.62731 4.17562 2.75202C4.17562 2.87672 4.07452 2.97782 3.94982 2.97782ZM3.94982 2.13105H3.69578C3.57108 2.13105 3.46998 2.02994 3.46998 1.90524C3.46998 1.78054 3.57108 1.67944 3.69578 1.67944H3.94982C4.07452 1.67944 4.17562 1.78054 4.17562 1.90524C4.17562 2.02994 4.07452 2.13105 3.94982 2.13105ZM5.29054 4.67137H5.03651C4.91179 4.67137 4.8107 4.57027 4.8107 4.44556C4.8107 4.32086 4.91179 4.21976 5.03651 4.21976H5.29054C5.41526 4.21976 5.51635 4.32086 5.51635 4.44556C5.51635 4.57027 5.41526 4.67137 5.29054 4.67137ZM5.29054 3.8246H5.03651C4.91179 3.8246 4.8107 3.72349 4.8107 3.59879C4.8107 3.47409 4.91179 3.37298 5.03651 3.37298H5.29054C5.41526 3.37298 5.51635 3.47409 5.51635 3.59879C5.51635 3.72349 5.41526 3.8246 5.29054 3.8246ZM5.29054 2.97782H5.03651C4.91179 2.97782 4.8107 2.87672 4.8107 2.75202C4.8107 2.62731 4.91179 2.52621 5.03651 2.52621H5.29054C5.41526 2.52621 5.51635 2.62731 5.51635 2.75202C5.51635 2.87672 5.41526 2.97782 5.29054 2.97782ZM5.29054 2.13105H5.03651C4.91179 2.13105 4.8107 2.02994 4.8107 1.90524C4.8107 1.78054 4.91179 1.67944 5.03651 1.67944H5.29054C5.41526 1.67944 5.51635 1.78054 5.51635 1.90524C5.51635 2.02994 5.41526 2.13105 5.29054 2.13105ZM4.04861 6.8871V5.70161C4.04861 5.63926 4.09916 5.58871 4.16151 5.58871H4.83893C4.90128 5.58871 4.95183 5.63926 4.95183 5.70161V6.8871C4.95183 6.94945 4.90128 7 4.83893 7H4.16151C4.09916 7 4.04861 6.94945 4.04861 6.8871Z" fill="#119548"/>
</g>
<defs>
<clipPath id="clip0_1238_12748">
<rect width="7" height="7" fill="white"/>
</clipPath>
</defs>
</svg>
