<svg width="28" height="28" viewBox="0 0 28 28" fill="none" xmlns="http://www.w3.org/2000/svg">
<path d="M23.7885 9.98679L22.3419 12.1568C23.0339 13.537 23.3727 15.0674 23.3279 16.6108C23.2831 18.1542 22.8561 19.6623 22.0852 21.0001H5.91519C4.91322 19.2619 4.49803 17.2471 4.73118 15.2544C4.96434 13.2616 5.83341 11.3971 7.20958 9.93712C8.58574 8.47716 10.3957 7.49951 12.3712 7.1491C14.3467 6.7987 16.3825 7.0942 18.1769 7.99179L20.3469 6.54512C18.048 5.05519 15.2981 4.42175 12.5791 4.75578C9.86007 5.0898 7.3453 6.37 5.47542 8.37206C3.60554 10.3741 2.4998 12.9703 2.35197 15.7058C2.20414 18.4413 3.02363 21.1415 4.66685 23.3335H23.3335C24.7645 21.4216 25.5744 19.1166 25.6536 16.7298C25.7329 14.343 25.0778 11.9894 23.7769 9.98679H23.7885Z" fill="#E4AB00"/>
<path d="M12.3552 17.9782C12.5719 18.1952 12.8293 18.3673 13.1125 18.4847C13.3958 18.6021 13.6994 18.6626 14.0061 18.6626C14.3127 18.6626 14.6163 18.6021 14.8996 18.4847C15.1829 18.3673 15.4402 18.1952 15.6569 17.9782L22.2602 8.07324L12.3552 14.6766C12.1383 14.8933 11.9662 15.1506 11.8488 15.4339C11.7313 15.7171 11.6709 16.0208 11.6709 16.3274C11.6709 16.634 11.7313 16.9377 11.8488 17.2209C11.9662 17.5042 12.1383 17.7615 12.3552 17.9782Z" fill="#E4AB00"/>
</svg>
