<svg width="28" height="25" viewBox="0 0 28 25" fill="none" xmlns="http://www.w3.org/2000/svg">
<path d="M14.2308 0C10.9495 0 8.32452 2.67188 8.32452 5.90625C8.32452 8.57812 12.1683 13.3594 13.6214 15.1406C13.9495 15.4688 14.4651 15.4688 14.7933 15.1406C16.2464 13.3594 20.137 8.57812 20.137 5.90625C20.137 2.67188 17.4651 0 14.2308 0ZM14.2308 7.875C13.1058 7.875 12.262 7.03125 12.262 5.90625C12.262 4.82812 13.1058 3.9375 14.2308 3.9375C15.3089 3.9375 16.1995 4.82812 16.1995 5.90625C16.1995 7.03125 15.3089 7.875 14.2308 7.875ZM1.66827 10.125C1.10577 10.3594 0.730769 10.9219 0.730769 11.5312V23.25C0.730769 23.8125 1.24639 24.1875 1.71514 23.9531L8.23077 21V10.0781C7.80889 9.32812 7.43389 8.625 7.19952 7.92188L1.66827 10.125ZM14.2308 16.875C13.5276 16.875 12.9183 16.5938 12.4964 16.0781C11.5589 15 10.5745 13.7812 9.73077 12.4688V21L18.7308 24V12.4688C17.8401 13.7812 16.8558 15 15.9183 16.0781C15.4964 16.5938 14.887 16.875 14.2308 16.875ZM26.6995 7.59375L20.2308 10.5V24L26.7464 21.4219C27.3089 21.1875 27.7308 20.625 27.7308 20.0156V8.29688C27.7308 7.73438 27.1683 7.35938 26.6995 7.59375Z" fill="#119548"/>
</svg>
