<svg width="24" height="24" viewBox="0 0 24 24" fill="none" xmlns="http://www.w3.org/2000/svg">
<path d="M12.2308 0.375C5.80889 0.375 0.605769 5.57812 0.605769 12C0.605769 18.4219 5.80889 23.625 12.2308 23.625C18.6526 23.625 23.8558 18.4219 23.8558 12C23.8558 5.57812 18.6526 0.375 12.2308 0.375ZM12.2308 21.375C7.02764 21.375 2.85577 17.2031 2.85577 12C2.85577 6.84375 7.02764 2.625 12.2308 2.625C17.387 2.625 21.6058 6.84375 21.6058 12C21.6058 17.2031 17.387 21.375 12.2308 21.375ZM15.0901 16.5C15.3714 16.6875 15.6995 16.6406 15.887 16.3594L16.7776 15.1875C16.9651 14.9062 16.9183 14.5781 16.637 14.3906L13.5433 12.0938V5.4375C13.5433 5.15625 13.262 4.875 12.9808 4.875H11.4808C11.1526 4.875 10.9183 5.15625 10.9183 5.4375V13.1719C10.9183 13.3125 10.9651 13.5 11.1058 13.5938L15.0901 16.5Z" fill="#119548"/>
</svg>
