<svg width="23" height="30" viewBox="0 0 23 30" fill="none" xmlns="http://www.w3.org/2000/svg">
<path d="M22.7131 15.7513C22.5973 15.3001 22.4471 14.8574 22.2637 14.4267C21.7526 13.2585 21.0422 12.1773 20.1606 11.2261C20.0251 11.0765 19.8855 10.9314 19.7417 10.791C19.4542 10.5093 19.1529 10.2441 18.842 9.98836C18.5311 9.73258 18.2106 9.48895 17.8861 9.24883C17.5615 9.00872 17.2332 8.77409 16.9059 8.53711C16.7422 8.41856 16.579 8.29948 16.4164 8.17988C16.292 8.08849 16.1681 7.99598 16.0447 7.90236C15.9214 7.80875 15.7991 7.71461 15.6779 7.61995C14.9382 7.06121 14.2725 6.42041 13.6951 5.71139C13.4606 5.41461 13.2504 5.10139 13.0663 4.77444C12.504 3.81327 12.2906 2.70464 12.4588 1.61811C12.5003 1.35137 12.5625 1.08736 12.6299 0.819829C12.6973 0.552298 12.7722 0.281045 12.8396 0C12.7324 0.045811 12.6285 0.0981479 12.5285 0.15668C12.3538 0.27419 12.1759 0.391701 11.9994 0.506273C11.461 0.841259 10.9423 1.20366 10.4455 1.59187C9.41404 2.41816 8.50957 3.37621 7.75825 4.43836C7.66699 4.56958 7.57871 4.70263 7.4934 4.8375C7.32264 5.10699 7.16418 5.38366 7.01803 5.66751C6.72151 6.24328 6.48138 6.84345 6.30063 7.46052C6.25459 7.6172 6.21214 7.77637 6.17329 7.93801C6.11812 8.16656 6.0642 8.40805 6.01152 8.65599C5.99382 8.73903 5.97633 8.82279 5.95905 8.90727C5.88998 9.2455 5.8232 9.59568 5.75973 9.94743C5.6326 10.6511 5.5177 11.3623 5.42084 12.0009C5.32398 12.6396 5.24434 13.2066 5.18814 13.6216C5.13193 14.0366 5.09854 14.2998 5.09335 14.3319C5.0415 14.2464 4.98993 14.1626 4.93863 14.0805C4.83618 13.9161 4.73538 13.7581 4.63749 13.6014C4.49085 13.3664 4.35086 13.1355 4.22268 12.8934C3.79523 12.0865 3.49823 11.1576 3.51192 9.56141C3.48496 9.56337 3.4638 9.56278 3.44783 9.56298C3.43186 9.56317 3.42149 9.56435 3.41589 9.56983C3.35907 9.62643 3.30203 9.68284 3.24603 9.74003C3.19003 9.79721 3.13487 9.85499 3.08156 9.91453C2.55766 10.5041 2.09808 11.1421 1.70981 11.8188C1.51624 12.1542 1.33718 12.4975 1.17265 12.8488C1.00811 13.2 0.856497 13.557 0.717815 13.9197C0.25133 15.2086 0.0111718 16.5609 0.00684423 17.923C0 18.1498 0 18.377 0 18.6058C0 18.8345 0.00559983 19.0615 0.0124441 19.2899C0.0360013 20.1869 0.176077 21.0777 0.429527 21.9425C0.555718 22.3699 0.710119 22.7895 0.891824 23.1987C1.9561 25.5946 3.86544 27.5691 6.29586 28.7871C7.09504 29.1805 7.94087 29.4829 8.81558 29.688C9.16401 29.7694 9.51618 29.8352 9.87208 29.8852C10.0498 29.91 10.2281 29.9309 10.4072 29.9479C10.7651 29.9815 11.125 29.9989 11.4867 30C11.8484 30.001 12.2105 29.9853 12.5729 29.9528C14.0682 29.8168 15.5198 29.4011 16.8432 28.7299C17.8452 28.2305 18.7694 27.6031 19.5899 26.8654C20.937 25.6358 21.9454 24.1138 22.5273 22.4321C22.8128 21.5681 22.9642 20.6696 22.9765 19.7646C22.9972 19.2223 22.9956 18.6771 22.9995 18.1328C23.0076 17.3309 22.9115 16.531 22.7131 15.7513ZM15.8247 10.9621C15.7579 11.0445 15.6592 11.0984 15.5504 11.1121C15.4415 11.1259 15.3313 11.0983 15.244 11.0354C14.9951 10.8558 14.7462 10.6762 14.5 10.4942C13.4377 9.71084 12.2186 8.76391 11.1957 7.46092C10.7159 6.85575 10.3114 6.20043 9.9903 5.5079C9.96767 5.46052 9.95526 5.40936 9.95377 5.35741C9.95229 5.30546 9.96177 5.25374 9.98167 5.20529C10.0016 5.15683 10.0315 5.11259 10.0696 5.07516C10.1078 5.03772 10.1535 5.00783 10.204 4.98724C10.2546 4.96664 10.3089 4.95575 10.364 4.95519C10.419 4.95463 10.4736 4.96442 10.5246 4.98399C10.5756 5.00355 10.6219 5.03251 10.661 5.06916C10.7 5.10581 10.7309 5.14943 10.7519 5.19747C11.0482 5.83476 11.4211 6.43776 11.8633 6.9946C12.8244 8.21866 13.9927 9.12427 15.0123 9.87712C15.2564 10.0573 15.5028 10.2353 15.749 10.4132C15.8361 10.4765 15.8929 10.5699 15.9071 10.6729C15.9213 10.7758 15.8917 10.8798 15.8247 10.9621Z" fill="#F15A24"/>
<path d="M4.30118 18.7436C6.95695 21.1629 10.0132 21.913 13.5305 20.884L13.5525 20.9886C13.4899 21.0831 13.4169 21.1711 13.3347 21.251C12.5097 21.8837 11.5738 22.3752 10.5695 22.7035C10.0746 22.8748 9.57394 23.0315 9.08053 23.2354C10.1708 23.6366 11.3357 23.8259 12.5053 23.7918C13.6749 23.7578 14.8252 23.5011 15.8872 23.0372C18.1796 22.0801 19.3734 20.207 20.3719 18.0847C21.4918 20.48 20.5544 24.0842 18.2893 26.2282C15.7476 28.6328 11.3103 29.1144 8.16361 27.2815C4.73548 25.2838 3.65056 21.9976 4.30118 18.7436Z" fill="#ED1C24"/>
<path d="M11.5001 26.6987C14.89 26.6987 17.638 24.1037 17.638 20.9027C17.638 17.7016 14.89 15.1067 11.5001 15.1067C8.1103 15.1067 5.3623 17.7016 5.3623 20.9027C5.3623 24.1037 8.1103 26.6987 11.5001 26.6987Z" fill="white"/>
<path d="M9.18168 22.1411C9.18218 22.1802 9.17338 22.219 9.15594 22.2544C9.1385 22.2899 9.11285 22.3213 9.08088 22.3462C9.02275 22.3979 8.94632 22.4275 8.86643 22.429C8.8231 22.4296 8.78018 22.4211 8.74074 22.4042C8.7013 22.3872 8.66631 22.3623 8.63829 22.3311L7.70789 21.4035L7.45444 21.6231V22.1358C7.45561 22.175 7.44843 22.2139 7.43332 22.2504C7.41821 22.2869 7.39549 22.3201 7.3665 22.3481C7.30705 22.4029 7.2273 22.4335 7.14427 22.4335C7.06124 22.4335 6.9815 22.4029 6.92204 22.3481C6.89306 22.3201 6.87034 22.2869 6.85523 22.2504C6.84012 22.2139 6.83294 22.175 6.83411 22.1358V19.1197C6.83302 19.0806 6.84024 19.0416 6.85534 19.0051C6.87044 18.9686 6.89312 18.9353 6.92204 18.9072C6.98155 18.8526 7.06128 18.822 7.14427 18.822C7.22727 18.822 7.307 18.8526 7.3665 18.9072C7.39543 18.9353 7.41811 18.9686 7.43321 19.0051C7.44831 19.0416 7.45553 19.0806 7.45444 19.1197V20.9259L8.56072 19.9155C8.59001 19.8861 8.62536 19.8627 8.6646 19.8467C8.70384 19.8308 8.74613 19.8226 8.78886 19.8226C8.82769 19.8232 8.86595 19.8316 8.90113 19.8472C8.9363 19.8627 8.96759 19.8851 8.99294 19.9129C9.04726 19.9605 9.07978 20.0262 9.08358 20.096C9.08116 20.139 9.06875 20.181 9.04725 20.219C9.02575 20.257 8.99566 20.29 8.95913 20.3158L8.17848 20.9944L9.08337 21.9218C9.14559 21.9797 9.18094 22.0586 9.18168 22.1411Z" fill="#F15A24"/>
<path d="M11.5231 19.9028C11.5989 19.9289 11.6648 19.9754 11.7128 20.0366C11.7607 20.0977 11.7885 20.1709 11.7928 20.2469C11.794 20.315 11.7703 20.3815 11.7256 20.4349C11.7052 20.4606 11.6786 20.4814 11.648 20.4954C11.6174 20.5094 11.5837 20.5163 11.5497 20.5154C11.5038 20.517 11.4581 20.5096 11.4155 20.4935C11.3794 20.478 11.3455 20.4583 11.3147 20.4347C11.2845 20.4121 11.2526 20.3918 11.2191 20.3738C11.1703 20.3533 11.119 20.3385 11.0664 20.3298C11.0129 20.3184 10.9584 20.3119 10.9036 20.3102C10.791 20.3044 10.6784 20.3217 10.5736 20.3609C10.4687 20.4002 10.3741 20.4603 10.2962 20.5374C10.1536 20.7039 10.076 20.9118 10.0765 21.1259C10.077 21.3401 10.1555 21.5476 10.2989 21.7136C10.3699 21.7892 10.4576 21.8491 10.5558 21.8892C10.654 21.9293 10.7604 21.9486 10.8673 21.9457C10.9962 21.9526 11.1251 21.9325 11.2448 21.887C11.2746 21.8718 11.3031 21.8547 11.3303 21.8356C11.3618 21.8139 11.3955 21.7952 11.4308 21.7796C11.467 21.7657 11.5057 21.7591 11.5447 21.76C11.5827 21.7583 11.6206 21.7645 11.6559 21.778C11.6911 21.7915 11.7228 21.8121 11.7488 21.8384C11.8 21.8937 11.8269 21.9654 11.8239 22.0387C11.8199 22.0836 11.8047 22.1269 11.7795 22.1651C11.7542 22.2033 11.7197 22.2353 11.6787 22.2583C11.5632 22.3349 11.4336 22.3904 11.2965 22.4218C11.1311 22.4633 10.9606 22.4838 10.7896 22.4827C10.5432 22.4874 10.3004 22.4263 10.0892 22.3065C9.88778 22.1895 9.72556 22.0211 9.62128 21.8208C9.50884 21.6062 9.45198 21.3694 9.45535 21.13C9.45048 20.8858 9.50999 20.6442 9.62853 20.4271C9.73879 20.2272 9.90631 20.0606 10.112 19.9463C10.3252 19.8291 10.5682 19.7692 10.8149 19.7729C11.0584 19.7636 11.301 19.8081 11.5231 19.9028Z" fill="#F15A24"/>
<path d="M14.7341 19.8568C14.7636 19.8852 14.7866 19.9189 14.8017 19.956C14.8169 19.993 14.8238 20.0326 14.8221 20.0723V22.1371C14.8231 22.1763 14.8159 22.2152 14.8008 22.2517C14.7857 22.2881 14.763 22.3214 14.7341 22.3494C14.7055 22.3775 14.6709 22.3996 14.6326 22.4143C14.5944 22.429 14.5533 22.436 14.512 22.4348C14.4713 22.4363 14.4306 22.4296 14.3928 22.4153C14.3549 22.401 14.3206 22.3794 14.2922 22.3518C14.2348 22.2953 14.2023 22.2203 14.2015 22.142C14.098 22.2482 13.9727 22.3332 13.8331 22.392C13.6936 22.4507 13.5428 22.4819 13.39 22.4836C13.1614 22.486 12.937 22.4258 12.7439 22.3103C12.5482 22.192 12.39 22.0259 12.2864 21.8295C12.1716 21.613 12.1139 21.3735 12.1184 21.1314C12.1143 20.8889 12.1711 20.6488 12.2843 20.4311C12.3856 20.234 12.542 20.0668 12.7367 19.9477C12.9254 19.8329 13.1456 19.7726 13.3701 19.7744C13.5296 19.7734 13.6878 19.8024 13.8353 19.8598C13.9703 19.911 14.0945 19.9845 14.2022 20.077V20.0723C14.2011 20.0331 14.2083 19.994 14.2234 19.9575C14.2386 19.921 14.2613 19.8877 14.2903 19.8596C14.3498 19.8052 14.4293 19.7746 14.5121 19.7742C14.595 19.7737 14.6748 19.8035 14.735 19.8572L14.7341 19.8568ZM14.0155 21.7141C14.1601 21.5511 14.2356 21.3433 14.2275 21.1309C14.2353 20.9177 14.1598 20.7092 14.0155 20.5451C13.9476 20.4715 13.8638 20.4125 13.7697 20.372C13.6757 20.3316 13.5735 20.3107 13.4701 20.3107C13.3668 20.3107 13.2646 20.3316 13.1705 20.372C13.0765 20.4125 12.9927 20.4715 12.9248 20.5451C12.7881 20.7125 12.7137 20.9178 12.7133 21.1292C12.7128 21.3406 12.7863 21.5462 12.9223 21.7141C12.9885 21.7894 13.0721 21.8494 13.1665 21.8896C13.261 21.9298 13.364 21.9492 13.4675 21.9462C13.5715 21.949 13.6748 21.9296 13.7697 21.8894C13.8646 21.8492 13.9486 21.7893 14.0155 21.7141Z" fill="#F15A24"/>
<path d="M16.0749 22.3484C16.0456 22.3764 16.0106 22.3984 15.9719 22.4131C15.9332 22.4278 15.8918 22.4348 15.8501 22.4338C15.8096 22.4347 15.7694 22.4275 15.732 22.4128C15.6946 22.3981 15.6608 22.3762 15.633 22.3484C15.6041 22.3204 15.5814 22.2871 15.5663 22.2507C15.5512 22.2142 15.544 22.1753 15.545 22.1361V19.12C15.5441 19.0807 15.5517 19.0416 15.5672 19.0051C15.5827 18.9686 15.6059 18.9354 15.6353 18.9076C15.6648 18.8798 15.6999 18.8579 15.7386 18.8433C15.7772 18.8286 15.8186 18.8215 15.8603 18.8223C15.9008 18.8215 15.941 18.8286 15.9784 18.8432C16.0158 18.8579 16.0495 18.8798 16.0774 18.9075C16.1063 18.9356 16.129 18.9689 16.1441 19.0054C16.1592 19.0419 16.1665 19.0809 16.1654 19.12V22.1361C16.1665 22.1755 16.159 22.2146 16.1435 22.2511C16.1279 22.2876 16.1046 22.3208 16.0749 22.3484Z" fill="#F15A24"/>
</svg>
