<svg width="33" height="22" viewBox="0 0 33 22" fill="none" xmlns="http://www.w3.org/2000/svg">
<path d="M31.8916 7.60601C32.1023 7.64822 32.2789 7.68667 32.4569 7.71855C32.5382 7.7265 32.617 7.75072 32.6885 7.78974C32.7601 7.82875 32.8228 7.88175 32.873 7.94551C32.9232 8.00927 32.9597 8.08245 32.9804 8.16061C33.0011 8.23876 33.0054 8.32026 32.9933 8.40015C32.9825 8.48235 32.9539 8.56128 32.9095 8.63157C32.8651 8.70185 32.8059 8.76184 32.7359 8.80743C32.6659 8.85303 32.5867 8.88315 32.5039 8.89576C32.421 8.90837 32.3364 8.90316 32.2558 8.8805C31.7057 8.7492 31.1655 8.58321 30.6202 8.43504C30.5548 8.41042 30.4841 8.40299 30.415 8.41347C29.7064 8.61594 28.9734 8.72281 28.2359 8.7312C28.1904 8.73498 28.1451 8.74156 28.1003 8.75089C28.1003 9.07181 28.1106 9.38597 28.0986 9.6992C28.0216 11.7249 27.3302 13.5523 26.2445 15.2493C26.0953 15.4992 25.93 15.7393 25.7496 15.9683C24.986 16.8779 24.4259 17.9118 23.8566 18.9413C23.4439 19.6878 23.0279 20.4325 22.6085 21.1753C22.4788 21.431 22.2775 21.6443 22.0287 21.7901C21.7799 21.9359 21.494 22.008 21.2049 21.9978C20.4483 21.9978 19.6917 21.9995 18.935 21.9978C18.7307 22.0006 18.5278 21.9632 18.3382 21.8879C18.1486 21.8125 17.9761 21.7006 17.8305 21.5588C17.685 21.4169 17.5695 21.2479 17.4906 21.0615C17.4117 20.875 17.371 20.675 17.3709 20.4729C17.3658 20.1516 17.3709 19.8303 17.3709 19.4813C15.8506 19.8433 14.2622 19.8167 12.7551 19.404C12.6034 19.8442 12.4632 20.2721 12.3073 20.6941C12.0664 21.3457 11.64 21.8095 10.9298 21.9663C10.8278 21.9873 10.7239 21.9975 10.6197 21.9969C10.1241 22.0001 9.62826 22.0019 9.13263 21.9969C8.67073 21.9934 8.22866 21.8108 7.90156 21.4883C7.57445 21.1658 7.38846 20.7292 7.3836 20.2724C7.37886 19.866 7.3836 19.4597 7.3819 19.0533C7.3978 18.8548 7.34414 18.657 7.22995 18.4931C7.11576 18.3291 6.94799 18.209 6.75482 18.153C5.97337 17.891 5.26426 17.4529 4.68353 16.8732C4.63475 16.8303 4.59196 16.7811 4.55625 16.7269C4.42348 16.4719 4.23816 16.4426 3.95573 16.4891C2.42502 16.742 1.19875 16.0765 0.545873 14.6677C0.228012 13.9655 0.0440363 13.2113 0.0032019 12.443C-0.0232463 11.93 0.114684 11.4217 0.397353 10.9906C0.680022 10.5596 1.09302 10.2277 1.57754 10.0423C1.92259 9.8924 2.25611 9.71782 2.57544 9.51989C2.78924 9.39264 2.96406 9.21035 3.08123 8.99248C3.19839 8.77461 3.25349 8.52936 3.24064 8.28292C3.24842 7.89617 3.25335 7.50792 3.2909 7.12342C3.36469 6.36792 3.49101 6.09183 4.02117 5.41023C3.93486 5.34702 3.84761 5.28419 3.76169 5.21986C3.05172 4.68868 2.43071 4.08061 2.04092 3.27297C1.78751 2.74779 1.89278 2.40193 2.40662 2.13165C3.3737 1.59628 4.4708 1.3336 5.57843 1.37222C6.12654 1.39946 6.66499 1.52564 7.16718 1.74453C7.2516 1.78207 7.34754 1.78544 7.43444 1.7539C8.874 1.02034 10.4226 0.518378 12.022 0.266917C15.2263 -0.295722 18.5258 0.0350483 21.5507 1.22217C24.0274 2.15668 26.0745 3.95229 27.3082 6.27245C27.5049 6.63351 27.6348 7.02982 27.8014 7.40701C27.8259 7.46197 27.8888 7.54112 27.9325 7.54018C28.3203 7.53212 28.7079 7.5083 29.1464 7.48673C29.076 7.39144 29.0421 7.34136 29.0039 7.29466C28.164 6.26889 28.2722 5.00454 28.9782 4.03334C29.3954 3.45997 30.1469 3.28103 30.8804 3.54155C31.2616 3.67893 31.604 3.90448 31.879 4.19937C32.154 4.49426 32.3537 4.84994 32.4614 5.2367C32.5691 5.62346 32.5816 6.03008 32.498 6.42261C32.4143 6.81514 32.2369 7.18219 31.9806 7.4931C31.9608 7.5173 31.9419 7.54299 31.8916 7.60601ZM3.26207 3.03476C3.38574 3.19475 3.48172 3.33261 3.59154 3.45865C4.05553 3.9762 4.60587 4.41122 5.21861 4.74476C5.34845 4.80381 5.45793 4.89922 5.53347 5.01919C5.60902 5.13915 5.64732 5.27839 5.64362 5.41967C5.63993 5.56094 5.5944 5.69804 5.51269 5.81398C5.43097 5.92993 5.31666 6.01962 5.1839 6.07195C4.99694 6.1525 4.83591 6.28221 4.71832 6.44696C4.60074 6.61172 4.5311 6.80521 4.51699 7.00638C4.47412 7.44865 4.45439 7.89373 4.43922 8.33807C4.40887 9.23367 4.07428 9.97473 3.29697 10.466C2.88476 10.723 2.45506 10.9516 2.01095 11.15C1.76725 11.2467 1.55912 11.4144 1.41426 11.631C1.2694 11.8476 1.19469 12.1026 1.20007 12.3622C1.23006 13.0278 1.39655 13.6804 1.68945 14.2804C1.96922 14.8243 2.37627 15.2225 3.00828 15.3307C3.39686 15.3883 3.79365 15.3562 4.1676 15.237C4.37474 15.1732 4.59763 15.181 4.79972 15.259C5.00181 15.3369 5.17112 15.4805 5.27988 15.6661C5.44782 15.9336 5.66283 16.1693 5.91473 16.362C6.3201 16.6293 6.75073 16.8571 7.20056 17.0422C7.97559 17.3692 8.46496 17.9082 8.55297 18.7408C8.60362 19.2195 8.57099 19.7067 8.57877 20.1901C8.57161 20.2743 8.5832 20.359 8.61273 20.4382C8.64226 20.5175 8.68901 20.5894 8.74968 20.6489C8.81035 20.7084 8.88347 20.754 8.96389 20.7825C9.04431 20.811 9.13007 20.8217 9.21514 20.8139C9.61347 20.8165 10.0118 20.8008 10.4088 20.818C10.7982 20.8351 11.0216 20.7243 11.1865 20.263C11.3342 19.8504 11.4727 19.434 11.6157 19.0195C11.8462 18.3516 12.3871 18.0674 13.0795 18.2575C14.3976 18.6271 15.7909 18.6475 17.1196 18.3167C17.2905 18.2712 17.4697 18.2653 17.6432 18.2995C17.8168 18.3337 17.98 18.4071 18.1202 18.5138C18.2604 18.6206 18.3738 18.758 18.4515 18.9151C18.5293 19.0723 18.5693 19.2452 18.5684 19.4201C18.5735 19.736 18.5684 20.0522 18.5699 20.3683C18.5712 20.6916 18.6928 20.8137 19.0174 20.8143C19.7218 20.8152 20.4263 20.8081 21.1308 20.8175C21.228 20.8244 21.325 20.8013 21.4084 20.7514C21.4917 20.7014 21.5573 20.627 21.596 20.5386C21.9583 19.8752 22.3335 19.2187 22.6988 18.5568C23.3209 17.3876 24.0285 16.265 24.816 15.1978C25.9365 13.7589 26.6424 12.0472 26.8591 10.2439C26.9943 9.084 26.8725 7.96763 26.3077 6.92066C25.2575 4.90363 23.5179 3.32032 21.3982 2.45238C17.9231 1.01341 14.3486 0.818723 10.7109 1.76966C9.68847 2.01075 8.70815 2.4015 7.80241 2.92898C7.67478 3.0192 7.52294 3.06992 7.36613 3.07473C7.20931 3.07954 7.05459 3.03821 6.92155 2.95599C6.44788 2.69188 5.91375 2.55202 5.36997 2.54973C4.63905 2.5497 3.91789 2.71564 3.26207 3.03476ZM31.3571 5.89995C31.3476 5.61841 31.2512 5.34648 31.0808 5.12071C30.9104 4.89495 30.6742 4.72619 30.404 4.6371C30.3219 4.60246 30.2304 4.5961 30.1442 4.61902C30.058 4.64194 29.9821 4.69283 29.9286 4.76352C29.6983 5.06531 29.5891 5.44074 29.6221 5.81743C29.6858 6.37824 30.0523 6.73648 30.5028 7.02814C30.525 7.03752 30.5489 7.04225 30.573 7.04203C30.5971 7.0418 30.621 7.03662 30.643 7.02682C30.8621 6.93085 31.0472 6.77226 31.1744 6.57145C31.3017 6.37065 31.3653 6.13679 31.3571 5.89995Z" fill="#1E60AD"/>
<path d="M3.26244 3.03462C3.91827 2.71557 4.63943 2.54969 5.37034 2.54978C5.91411 2.55207 6.44824 2.69193 6.92191 2.95603C7.05495 3.03826 7.20968 3.07958 7.36649 3.07478C7.5233 3.06997 7.67515 3.01924 7.80278 2.92903C8.7085 2.40148 9.68882 2.01067 10.7113 1.76952C14.349 0.818583 17.9238 1.01327 21.3986 2.45131C23.518 3.31939 25.2573 4.90268 26.3073 6.91959C26.8721 7.96656 26.9939 9.08292 26.8587 10.2428C26.6423 12.0466 25.9362 13.759 24.8154 15.1982C24.0279 16.2654 23.3203 17.3881 22.6982 18.5572C22.3329 19.2191 21.9585 19.8756 21.5955 20.539C21.5567 20.6275 21.4911 20.7018 21.4078 20.7518C21.3244 20.8018 21.2274 20.8249 21.1302 20.8179C20.4257 20.8085 19.7212 20.8157 19.0168 20.8147C18.6922 20.8147 18.5707 20.692 18.5693 20.3687C18.5682 20.0527 18.5729 19.7364 18.5678 19.4206C18.5687 19.2456 18.5287 19.0728 18.4509 18.9156C18.3732 18.7584 18.2598 18.621 18.1196 18.5143C17.9794 18.4075 17.8162 18.3341 17.6427 18.3C17.4691 18.2658 17.2899 18.2716 17.119 18.3171C15.7904 18.648 14.3971 18.6275 13.0789 18.2579C12.3866 18.0679 11.846 18.3517 11.6151 19.0199C11.4721 19.4344 11.3336 19.8506 11.1859 20.2635C11.0209 20.7239 10.7974 20.8355 10.4082 20.8185C10.011 20.8012 9.6125 20.817 9.21456 20.8143C9.12949 20.8221 9.04373 20.8114 8.96331 20.7829C8.88289 20.7544 8.80976 20.7088 8.74909 20.6493C8.68842 20.5898 8.64167 20.5179 8.61215 20.4387C8.58262 20.3594 8.57102 20.2747 8.57818 20.1905C8.57041 19.7072 8.60303 19.2199 8.55239 18.7412C8.46438 17.9086 7.97501 17.3696 7.19998 17.0427C6.75014 16.8575 6.31952 16.6297 5.91415 16.3624C5.66224 16.1697 5.44724 15.9341 5.27929 15.6665C5.17054 15.4809 5.00123 15.3374 4.79914 15.2594C4.59704 15.1814 4.37415 15.1737 4.16702 15.2374C3.79307 15.3567 3.39628 15.3888 3.0077 15.3312C2.37569 15.2229 1.96864 14.8247 1.68886 14.2808C1.39597 13.6808 1.22947 13.0282 1.19949 12.3626C1.1941 12.103 1.26881 11.848 1.41367 11.6314C1.55853 11.4149 1.76667 11.2471 2.01037 11.1504C2.45447 10.952 2.88417 10.7234 3.29639 10.4664C4.07407 9.97515 4.40829 9.2341 4.43863 8.33849C4.45381 7.89416 4.47354 7.44907 4.5164 7.0068C4.53051 6.80563 4.60015 6.61214 4.71774 6.44739C4.83533 6.28263 4.99636 6.15292 5.18331 6.07237C5.31607 6.02004 5.43039 5.93035 5.5121 5.81441C5.59382 5.69846 5.63934 5.56137 5.64304 5.42009C5.64673 5.27882 5.60844 5.13957 5.53289 5.01961C5.45734 4.89965 5.34787 4.80423 5.21803 4.74519C4.60529 4.41164 4.05495 3.97663 3.59096 3.45907C3.48209 3.33247 3.38611 3.19461 3.26244 3.03462ZM15.2524 2.456L15.2454 2.4076C14.5815 2.48994 13.9104 2.54227 13.2524 2.66138C12.2936 2.8281 11.374 3.16834 10.54 3.66502C10.4705 3.70472 10.4098 3.7579 10.3616 3.82137C10.3134 3.88483 10.2787 3.95727 10.2595 4.03435C10.2403 4.11142 10.237 4.19153 10.2499 4.26988C10.2628 4.34823 10.2915 4.4232 10.3344 4.49029C10.4193 4.62253 10.5533 4.71657 10.7075 4.7522C10.8618 4.78783 11.024 4.76222 11.1593 4.68085C12.7697 3.76911 14.5051 3.5039 16.3294 3.70834C17.4826 3.85005 18.6035 4.18254 19.6452 4.69192C19.7165 4.73168 19.7953 4.75659 19.8767 4.76512C19.9581 4.77364 20.0405 4.76561 20.1186 4.7415C20.1968 4.71739 20.2691 4.67773 20.3312 4.62494C20.3933 4.57216 20.4438 4.50737 20.4796 4.43457C20.5154 4.36176 20.5358 4.28248 20.5395 4.2016C20.5431 4.12072 20.53 4.03995 20.501 3.96427C20.4719 3.88858 20.4275 3.81958 20.3704 3.7615C20.3134 3.70343 20.2449 3.65751 20.1693 3.62657C18.6417 2.87148 16.9601 2.47113 15.2524 2.456ZM6.79065 8.78076C6.7894 8.95386 6.83999 9.12345 6.93607 9.26816C7.03214 9.41286 7.16938 9.5262 7.3305 9.5939C7.49162 9.66159 7.6694 9.6806 7.84142 9.64853C8.01345 9.61646 8.17203 9.53475 8.29716 9.4137C8.4223 9.29265 8.50839 9.13768 8.54459 8.96832C8.58078 8.79895 8.56547 8.62279 8.50056 8.46202C8.43566 8.30125 8.32408 8.16308 8.17988 8.06493C8.03569 7.96678 7.86534 7.91303 7.6903 7.91047C7.57277 7.9067 7.45569 7.92648 7.3461 7.96863C7.23651 8.01078 7.13668 8.07443 7.05263 8.15574C6.96857 8.23705 6.90203 8.33435 6.85701 8.44176C6.81198 8.54918 6.78941 8.66449 6.79065 8.78076Z" fill="#1E60AD"/>
<path d="M15.252 2.45594C16.9597 2.47118 18.6414 2.87167 20.1689 3.62688C20.2449 3.65758 20.3137 3.70337 20.3711 3.76142C20.4285 3.81948 20.4733 3.88856 20.5026 3.9644C20.5319 4.04023 20.5451 4.12121 20.5415 4.20232C20.5379 4.28343 20.5175 4.36294 20.4816 4.43594C20.4457 4.50895 20.395 4.57388 20.3327 4.62674C20.2704 4.67959 20.1977 4.71924 20.1193 4.74323C20.0409 4.76721 19.9583 4.77503 19.8767 4.7662C19.795 4.75736 19.7161 4.73206 19.6448 4.69186C18.603 4.18223 17.4819 3.84954 16.3285 3.70772C14.5041 3.50328 12.7688 3.76849 11.1584 4.68023C11.023 4.76159 10.8608 4.78721 10.7066 4.75158C10.5523 4.71595 10.4184 4.62191 10.3335 4.48967C10.2906 4.42258 10.2618 4.34761 10.2489 4.26926C10.2361 4.19091 10.2393 4.1108 10.2585 4.03373C10.2777 3.95665 10.3125 3.88421 10.3607 3.82074C10.4089 3.75728 10.4696 3.7041 10.5391 3.6644C11.3731 3.16772 12.2926 2.82748 13.2515 2.66075C13.9095 2.54165 14.5792 2.48932 15.2444 2.40698L15.252 2.45594Z" fill="white"/>
<path d="M6.7902 8.78056C6.79458 8.55018 6.89053 8.33077 7.05726 8.16979C7.224 8.00882 7.44813 7.91924 7.68115 7.92042C7.91417 7.92161 8.13735 8.01346 8.30241 8.17612C8.46747 8.33877 8.56112 8.55915 8.56312 8.78957C8.56412 8.9057 8.54179 9.02087 8.4974 9.12839C8.45301 9.23591 8.38746 9.33364 8.30456 9.4159C8.22165 9.49816 8.12305 9.56332 8.01446 9.60757C7.90588 9.65183 7.78949 9.67432 7.67204 9.67372C7.5546 9.67313 7.43844 9.64946 7.33033 9.6041C7.22221 9.55874 7.12428 9.49259 7.04224 9.40949C6.96019 9.32639 6.89566 9.228 6.85239 9.12004C6.80913 9.01207 6.78798 8.89668 6.7902 8.78056Z" fill="white"/>
<path d="M15.0401 16.4676C18.1403 16.4676 20.6535 13.9825 20.6535 10.9169C20.6535 7.85134 18.1403 5.36621 15.0401 5.36621C11.9399 5.36621 9.42676 7.85134 9.42676 10.9169C9.42676 13.9825 11.9399 16.4676 15.0401 16.4676Z" fill="white"/>
<path d="M17.2437 12.2586V13.6526C17.2435 13.6738 17.2391 13.6949 17.2307 13.7145C17.2223 13.7341 17.2101 13.7518 17.1947 13.7668C17.1794 13.7817 17.1612 13.7935 17.1413 13.8015C17.1213 13.8095 17.1 13.8135 17.0785 13.8133H13.0004C12.9569 13.8136 12.915 13.7969 12.884 13.7668C12.853 13.7366 12.8354 13.6956 12.835 13.6526V13.1163C12.8354 13.0733 12.853 13.0322 12.884 13.0021C12.915 12.972 12.9569 12.9552 13.0004 12.9556H13.4962V11.24H13.1113C13.0678 11.2403 13.026 11.2236 12.995 11.1934C12.964 11.1633 12.9463 11.1222 12.9459 11.0792V10.543C12.9463 10.5 12.964 10.4589 12.995 10.4288C13.026 10.3986 13.0678 10.3819 13.1113 10.3822H13.4969V9.49713C13.4969 8.51581 14.2962 7.80908 15.4245 7.80908C15.9293 7.81533 16.4191 7.97947 16.8237 8.27799C16.8413 8.29077 16.8561 8.30695 16.8671 8.32556C16.8782 8.34416 16.8853 8.36479 16.888 8.3862C16.8907 8.4076 16.889 8.42933 16.883 8.45007C16.877 8.4708 16.8667 8.49011 16.8529 8.50681L16.4603 8.98284C16.4347 9.0136 16.3988 9.03418 16.3591 9.0408C16.3194 9.04742 16.2786 9.03963 16.2443 9.01885C16.0067 8.86706 15.7328 8.77991 15.4503 8.76621C14.9381 8.76621 14.599 9.09875 14.599 9.53127V10.3832H15.756C15.7995 10.3828 15.8413 10.3996 15.8724 10.4297C15.9034 10.4598 15.921 10.5009 15.9214 10.5439V11.0802C15.921 11.1231 15.9034 11.1642 15.8724 11.1944C15.8413 11.2245 15.7995 11.2412 15.756 11.2409H14.599V12.9409H16.2871V12.2586C16.2873 12.2373 16.2917 12.2162 16.3001 12.1966C16.3085 12.177 16.3208 12.1592 16.3361 12.1443C16.3515 12.1293 16.3697 12.1175 16.3896 12.1095C16.4096 12.1015 16.431 12.0975 16.4525 12.0977H17.0785C17.1219 12.0974 17.1638 12.1142 17.1947 12.1443C17.2257 12.1745 17.2433 12.2156 17.2437 12.2586Z" fill="#1E60AD"/>
</svg>
