<svg width="16" height="16" viewBox="0 0 16 16" fill="none" xmlns="http://www.w3.org/2000/svg">
<g clip-path="url(#clip0_1238_13020)">
<path d="M9.20085 6.79897C8.56378 6.16217 7.6999 5.80444 6.79915 5.80444C5.8984 5.80444 5.03451 6.16217 4.39745 6.79897L1.99498 9.20066C1.3579 9.83774 1 10.7018 1 11.6027C1 12.5037 1.3579 13.3678 1.99498 14.0048C2.63205 14.6419 3.49611 14.9998 4.39706 14.9998C5.29802 14.9998 6.16208 14.6419 6.79915 14.0048L8 12.804" stroke="#119548" stroke-width="2" stroke-linecap="round" stroke-linejoin="round"/>
<path d="M6.79932 9.20085C7.43638 9.83764 8.30026 10.1954 9.20101 10.1954C10.1018 10.1954 10.9656 9.83764 11.6027 9.20085L14.0052 6.79915C14.6423 6.16208 15.0002 5.29802 15.0002 4.39706C15.0002 3.49611 14.6423 2.63205 14.0052 1.99498C13.3681 1.3579 12.5041 1 11.6031 1C10.7021 1 9.83808 1.3579 9.20101 1.99498L8.00016 3.19582" stroke="#119548" stroke-width="2" stroke-linecap="round" stroke-linejoin="round"/>
</g>
<defs>
<clipPath id="clip0_1238_13020">
<rect width="16" height="16" fill="white"/>
</clipPath>
</defs>
</svg>
