<svg width="28" height="23" viewBox="0 0 28 23" fill="none" xmlns="http://www.w3.org/2000/svg">
<path d="M27.8993 12.2803C27.9764 11.9907 28.0097 11.6885 27.9976 11.3863C28.002 11.1953 27.997 11.0042 27.9827 10.8139C27.915 9.94276 27.6079 9.11779 27.1047 8.45536C27.0341 8.08651 26.9851 7.71277 26.958 7.33658C26.8428 5.86747 25.9611 4.97015 24.7401 4.53836C24.2964 4.38133 23.8291 4.30914 23.3977 4.20422C22.987 1.58564 21.8445 0.184167 20.0317 0.0170156C18.1734 -0.154015 16.8148 0.961562 16.0266 3.48654C15.2808 1.79867 14.2776 0.80723 12.7321 0.694559C11.1361 0.578346 10.033 1.50721 9.19353 2.90126C7.39696 1.76055 6.12204 1.63202 4.86927 2.48903C3.13573 3.67494 2.82948 5.50213 3.21912 7.56141C1.40263 8.32632 0.404812 9.33041 0.10065 10.7197C0.023629 11.0093 -0.00959626 11.3115 0.0023848 11.6137C-0.00201306 11.8047 0.00294998 11.9959 0.017251 12.1863C0.085083 13.0571 0.392251 13.8817 0.895395 14.5438C0.965923 14.9127 1.01494 15.2864 1.04212 15.6626C1.15734 17.1317 2.03905 18.029 3.26001 18.461C3.70376 18.618 4.17086 18.6902 4.60242 18.7951C5.01302 21.4144 6.15534 22.816 7.96827 22.983C9.82579 23.154 11.1852 22.0384 11.9734 19.5135C12.7192 21.2015 13.7224 22.1929 15.2678 22.3054C16.8639 22.4217 17.9669 21.493 18.806 20.0984C20.6026 21.2393 21.8773 21.3676 23.1303 20.5106C24.8638 19.3249 25.17 17.4977 24.7811 15.4383C26.5973 14.6744 27.5952 13.6696 27.8993 12.2803Z" fill="#534741"/>
<path d="M13.9997 16.3119C16.3807 16.3119 18.3108 14.1219 18.3108 11.4205C18.3108 8.71901 16.3807 6.52905 13.9997 6.52905C11.6187 6.52905 9.68848 8.71901 9.68848 11.4205C9.68848 14.1219 11.6187 16.3119 13.9997 16.3119Z" fill="white"/>
<path d="M13.0353 9.78796C13.0339 9.86453 13.0101 9.93839 12.9676 9.99795C12.9468 10.0316 12.9191 10.0589 12.8869 10.0777C12.8547 10.0964 12.8189 10.106 12.7827 10.1056C12.729 10.1048 12.6763 10.0889 12.6293 10.0593C12.4795 9.9802 12.3161 9.93987 12.1509 9.94128C11.959 9.93652 11.7694 9.98886 11.6008 10.0931C11.4464 10.1916 11.3209 10.3394 11.2399 10.5181C11.1532 10.7124 11.1098 10.9277 11.1135 11.1454C11.103 11.3123 11.123 11.4799 11.1723 11.6377C11.2216 11.7954 11.2991 11.9399 11.4 12.062C11.5677 12.2232 11.7723 12.3271 11.9901 12.3616C12.2078 12.396 12.4297 12.3595 12.6299 12.2564C12.6749 12.2316 12.724 12.2176 12.7741 12.2154C12.8126 12.2154 12.8506 12.2256 12.8851 12.2451C12.9196 12.2647 12.9496 12.2931 12.9727 12.3281C13.016 12.3871 13.0399 12.4612 13.0405 12.5379C13.041 12.5903 13.0284 12.6418 13.0044 12.6865C12.9795 12.7317 12.9432 12.7674 12.9003 12.7889C12.6677 12.9212 12.411 12.9893 12.1509 12.9878C11.8691 12.9912 11.5906 12.9184 11.3386 12.7753C11.0927 12.6346 10.8876 12.4169 10.7475 12.148C10.5934 11.8431 10.5168 11.4958 10.5262 11.1446C10.5216 10.8166 10.5941 10.4933 10.7361 10.2076C10.8726 9.93485 11.0734 9.71058 11.3158 9.55992C11.5719 9.40215 11.8595 9.32215 12.1509 9.32766C12.4096 9.32527 12.6651 9.39378 12.8955 9.52736C12.939 9.55021 12.9754 9.58717 13.0003 9.63357C13.0252 9.67996 13.0374 9.7337 13.0353 9.78796Z" fill="#534741"/>
<path d="M16.2211 12.0741C16.0944 12.3487 15.905 12.5795 15.6726 12.7424C15.4345 12.9032 15.1624 12.9882 14.8853 12.9882C14.6081 12.9882 14.3361 12.9032 14.0979 12.7424C13.8658 12.5799 13.6771 12.3489 13.5518 12.0741C13.4228 11.7862 13.3555 11.4678 13.3555 11.1448C13.3555 10.8218 13.4228 10.5034 13.5518 10.2156C13.677 9.94055 13.8657 9.70941 14.0979 9.54695C14.336 9.386 14.6081 9.30103 14.8853 9.30103C15.1625 9.30103 15.4345 9.386 15.6726 9.54695C15.905 9.70971 16.0945 9.9405 16.2211 10.2151C16.3516 10.5024 16.4197 10.821 16.4197 11.1443C16.4197 11.4676 16.3516 11.7862 16.2211 12.0736V12.0741ZM15.711 10.5224C15.6351 10.3431 15.5182 10.1902 15.3726 10.0794C15.2271 9.97295 15.0577 9.91611 14.8845 9.91566C14.7113 9.91521 14.5416 9.97118 14.3956 10.0769C14.2507 10.1871 14.1352 10.3402 14.0616 10.5197C13.9828 10.7158 13.9421 10.9288 13.9421 11.1443C13.9421 11.3599 13.9828 11.5729 14.0616 11.769C14.1351 11.9485 14.2507 12.1017 14.3956 12.2119C14.5416 12.3177 14.7113 12.3736 14.8845 12.3732C15.0577 12.3727 15.2271 12.3159 15.3726 12.2094C15.5182 12.0986 15.6351 11.9457 15.711 11.7665C15.7914 11.5718 15.8331 11.3594 15.8331 11.1444C15.8331 10.9294 15.7914 10.7171 15.711 10.5224Z" fill="#534741"/>
<path d="M17.4089 13.1286C17.4212 13.1425 17.4309 13.1592 17.4374 13.1775C17.4439 13.1958 17.447 13.2155 17.4465 13.2352C17.4469 13.2544 17.4438 13.2734 17.4373 13.2911C17.4308 13.3088 17.4211 13.3248 17.4089 13.3379C17.3964 13.3516 17.3816 13.3623 17.3655 13.3694C17.3493 13.3765 17.3321 13.3798 17.3147 13.3793H16.5154C16.4976 13.3803 16.4798 13.3771 16.4632 13.3697C16.4466 13.3624 16.4315 13.3511 16.4191 13.3366C16.3951 13.3068 16.3825 13.2676 16.3838 13.2273C16.3836 13.2054 16.3873 13.1837 16.3945 13.1635C16.4018 13.1432 16.4125 13.1248 16.4261 13.1092L16.9386 12.4877C16.9924 12.4231 17.0386 12.3509 17.0761 12.273C17.107 12.2123 17.1244 12.1441 17.1268 12.0741C17.1272 12.0355 17.1207 11.9971 17.1078 11.9614C17.0948 11.9256 17.0757 11.8932 17.0515 11.866C17.0295 11.8384 17.0026 11.8164 16.9727 11.8012C16.9427 11.7861 16.9103 11.7782 16.8775 11.7781C16.8281 11.7795 16.7802 11.7975 16.7399 11.83C16.6914 11.8673 16.6488 11.9138 16.6141 11.9673C16.6021 11.9872 16.586 12.0035 16.5671 12.0147C16.5483 12.0259 16.5273 12.0316 16.506 12.0314C16.4703 12.0308 16.4362 12.0146 16.4107 11.9861C16.3975 11.9737 16.3867 11.9583 16.3792 11.9409C16.3717 11.9234 16.3676 11.9043 16.3672 11.8849C16.3679 11.8557 16.3761 11.8275 16.3908 11.8036C16.4113 11.7693 16.4349 11.7375 16.4613 11.7088C16.5212 11.6409 16.5912 11.5858 16.6682 11.546C16.7386 11.5073 16.8156 11.4864 16.8939 11.4848C16.989 11.4824 17.083 11.5081 17.1667 11.5595C17.243 11.6069 17.3059 11.6782 17.3478 11.7648C17.3909 11.8557 17.4127 11.9577 17.4112 12.0609C17.4094 12.1783 17.3832 12.2935 17.3345 12.3971C17.28 12.5174 17.2107 12.6283 17.1288 12.7265L16.8303 13.0866H17.3145C17.3319 13.0859 17.3492 13.0893 17.3655 13.0965C17.3817 13.1038 17.3965 13.1147 17.4089 13.1286Z" fill="#534741"/>
<path d="M22.378 11.5585C22.3659 13.077 22.0485 14.5724 21.4499 15.9307C21.4256 15.9983 21.3893 16.0594 21.3432 16.1105C21.2972 16.1615 21.2424 16.2012 21.1823 16.2273C21.1222 16.2533 21.058 16.2651 20.9937 16.2619C20.9295 16.2587 20.8664 16.2405 20.8086 16.2086C20.7507 16.1766 20.6993 16.1316 20.6574 16.0762C20.6155 16.0208 20.584 15.9562 20.565 15.8864C20.546 15.8167 20.5397 15.7433 20.5467 15.6707C20.5537 15.5981 20.5737 15.5279 20.6055 15.4645C21.0095 14.5381 21.2732 13.5412 21.3856 12.5155C21.5476 10.8932 21.3374 9.35008 20.6148 7.91808C20.5503 7.79772 20.53 7.65346 20.5582 7.5163C20.5864 7.37914 20.661 7.26002 20.7658 7.18454C20.819 7.14639 20.8784 7.12083 20.9405 7.10939C21.0026 7.09795 21.0661 7.10086 21.1272 7.11795C21.1883 7.13504 21.2457 7.16596 21.296 7.20885C21.3463 7.25174 21.3885 7.30572 21.4199 7.36754C21.8136 8.10916 22.0833 8.92684 22.2154 9.77951C22.3098 10.3646 22.3513 10.9602 22.4165 11.5519L22.378 11.5585Z" fill="white"/>
<path d="M5.22936 11.7517C5.29165 10.418 5.62143 9.11809 6.19357 7.95092C6.21741 7.89285 6.25146 7.84094 6.29365 7.79837C6.33583 7.7558 6.38524 7.72347 6.43884 7.70338C6.49245 7.68329 6.54911 7.67585 6.60534 7.68154C6.66157 7.68723 6.71618 7.70591 6.76581 7.73644C6.81544 7.76697 6.85904 7.8087 6.89392 7.85906C6.9288 7.90942 6.95423 7.96735 6.96864 8.02928C6.98305 8.09121 6.98614 8.15583 6.97771 8.21917C6.96928 8.2825 6.94952 8.34321 6.91964 8.39755C6.53323 9.19378 6.26758 10.0581 6.13381 10.9542C5.93639 12.3726 6.06855 13.7373 6.65413 15.0274C6.70686 15.1359 6.71993 15.2635 6.69051 15.3828C6.66109 15.5021 6.59154 15.6035 6.49684 15.6652C6.44884 15.6963 6.39577 15.7162 6.34084 15.7235C6.28591 15.7309 6.23023 15.7255 6.17716 15.7079C6.12408 15.6902 6.0747 15.6605 6.03198 15.6207C5.98925 15.5808 5.95406 15.5316 5.92851 15.4759C5.6078 14.807 5.3987 14.0766 5.31171 13.3215C5.24868 12.8034 5.23248 12.2778 5.19531 11.7556L5.22936 11.7517Z" fill="white"/>
</svg>
