<svg width="51" height="48" viewBox="0 0 51 48" fill="none" xmlns="http://www.w3.org/2000/svg">
<path d="M0.932098 23.708C0.932098 26.2915 2.55468 28.5909 3.31683 30.9232C4.10705 33.3392 4.1811 36.1408 5.65559 38.1523C7.14413 40.1815 9.81355 41.1137 11.8587 42.5912C13.8834 44.0548 15.5903 46.2983 18.0235 47.0834C20.3699 47.8443 23.0674 47.0466 25.6692 47.0466C28.2709 47.0466 30.9672 47.8405 33.3149 47.0834C35.7481 46.3008 37.4549 44.0573 39.4797 42.5937C41.5222 41.1149 44.1942 40.184 45.6828 38.1548C47.1573 36.1421 47.2313 33.3354 48.0202 30.9257C48.7862 28.5934 50.4062 26.294 50.4062 23.7106C50.4062 21.1271 48.7824 18.8189 48.0202 16.4929C47.2313 14.0756 47.1573 11.274 45.6828 9.26382C44.2083 7.25363 41.5248 6.3037 39.4797 4.82491C37.4549 3.35753 35.7481 1.11398 33.3149 0.328924C30.9672 -0.432033 28.2709 0.365704 25.6692 0.365704C23.0674 0.365704 20.3699 -0.428228 18.0235 0.328924C15.5903 1.11398 13.8834 3.35753 11.8587 4.82237C9.8161 6.30117 7.14413 7.23207 5.65559 9.26129C4.16706 11.2905 4.10705 14.0807 3.31683 16.4904C2.55468 18.8189 0.932098 21.1233 0.932098 23.708Z" fill="#E1D9C5"/>
<path d="M2.41557 23.7086C2.41557 26.1374 3.94751 28.2985 4.65731 30.49C5.4003 32.7628 5.46924 35.3969 6.85565 37.2879C8.24206 39.1789 10.7634 40.0718 12.6885 41.4618C14.6137 42.8518 16.1967 44.9469 18.4844 45.6851C20.6904 46.3966 23.2258 45.6496 25.6718 45.6496C28.1178 45.6496 30.6506 46.3966 32.8591 45.6851C35.1456 44.9469 36.7503 42.8378 38.6537 41.4618C40.5572 40.0857 43.0836 39.1979 44.4764 37.2879C45.8692 35.3779 45.9381 32.7628 46.6798 30.4875C47.3973 28.2959 48.9229 26.1348 48.9229 23.7061C48.9229 21.2774 47.3973 19.115 46.6798 16.9234C45.9381 14.6507 45.8679 12.0165 44.4828 10.1256C43.0785 8.21557 40.5738 7.33539 38.6512 5.95172C36.7286 4.56805 35.1443 2.46908 32.8591 1.73222C30.6519 1.01945 28.1178 1.76646 25.6718 1.76646C23.2258 1.76646 20.6929 1.01945 18.4844 1.73222C16.1967 2.46908 14.5932 4.57819 12.6885 5.95426C10.7838 7.33032 8.25738 8.2181 6.8582 10.1281C5.47179 12.0191 5.40285 14.6533 4.65986 16.926C3.94112 19.1175 2.41557 21.2787 2.41557 23.7086Z" fill="#163E4F"/>
<path d="M25.9494 7.28553L27.4358 7.81837L27.3927 6.22835L28.3545 4.96843L26.8417 4.51945L25.9494 3.20752L25.057 4.51945L23.5432 4.96843L24.5061 6.22835L24.4618 7.81837L25.9494 7.28553Z" fill="white"/>
<path d="M30.1664 7.50539L29.1698 7.64504L29.3981 6.67852L28.9558 5.78634L29.9595 5.70195L30.682 5.01172L31.0743 5.926L31.9629 6.39118L31.2027 7.04122L31.0285 8.01879L30.1664 7.50539Z" fill="white"/>
<path d="M21.8508 7.50539L22.9138 7.64504L22.6704 6.67852L23.1421 5.78634L22.0725 5.70195L21.3008 5.01172L20.8834 5.926L19.9345 6.39118L20.7465 7.04122L20.9323 8.01879L21.8508 7.50539Z" fill="white"/>
<path d="M26.4206 28.9214V34.2437L32.1665 34.3551C32.1665 34.3551 33.8289 33.5235 33.9662 32.2927C34.1035 31.062 32.5113 28.923 32.5113 28.923L26.4206 28.9214Z" fill="#E1D9C5"/>
<path d="M34.5906 32.834C35.3825 31.4867 37.9106 27.2039 37.9106 27.2039C37.9106 27.2039 38.2822 25.7869 37.5222 24.8255C37.0945 24.2474 36.7058 23.6417 36.3586 23.0126L38.1182 21.3594L32.1195 21.6355L29.2734 26.833L31.115 25.7619C31.115 25.7619 35.4897 30.4372 34.5906 32.834Z" fill="#E1D9C5"/>
<path d="M22.3804 22.5462L18.2786 19.1233L14.4983 23.4244C14.4983 23.4244 14.0664 25.2173 14.9319 26.1205C15.7975 27.0236 18.4661 27.18 18.4661 27.18L22.3804 22.5462Z" fill="#E1D9C5"/>
<path d="M14.121 26.246C14.6467 27.7146 16.3243 32.4 16.3243 32.4C16.3243 32.4 17.1764 33.5941 18.4086 33.6324C19.1301 33.6782 19.8478 33.7721 20.5566 33.9135L20.6889 36.3202L24.3369 31.575L22.1605 26.0747L21.8055 28.167C21.8055 28.167 15.3917 28.4714 14.121 26.246Z" fill="#E1D9C5"/>
<path d="M29.9558 20.9705L34.6436 18.3858L31.9548 13.3429C31.9548 13.3429 30.4213 12.3001 29.2644 12.7824C28.1075 13.2647 27.0059 15.6797 27.0059 15.6797L29.9558 20.9705Z" fill="#E1D9C5"/>
<path d="M29.4307 11.9773L22.8679 11.8276C22.8679 11.8276 21.4381 12.1919 20.961 13.3245C20.6614 13.9785 20.3174 14.6114 19.9313 15.219L17.6193 14.4838L20.7768 19.5633L26.7335 19.4951L24.8919 18.4173C24.8919 18.4173 26.8876 12.3632 29.4307 11.9773Z" fill="#E1D9C5"/>
</svg>
