<svg width="10" height="14" viewBox="0 0 10 14" fill="none" xmlns="http://www.w3.org/2000/svg">
<path d="M1.11557e-07 2.00004V13.25C-5.28282e-05 13.3224 0.0187371 13.3935 0.0545205 13.4564C0.0903039 13.5193 0.141847 13.5718 0.204076 13.6087C0.266306 13.6456 0.337076 13.6657 0.409421 13.6669C0.481766 13.6682 0.553191 13.6506 0.616667 13.6159L5 11.2242L9.38333 13.6159C9.44681 13.6506 9.51823 13.6682 9.59058 13.6669C9.66292 13.6657 9.73369 13.6456 9.79592 13.6087C9.85815 13.5718 9.9097 13.5193 9.94548 13.4564C9.98126 13.3935 10.0001 13.3224 10 13.25V2.00004C10 1.55801 9.8244 1.13409 9.51184 0.821529C9.19928 0.508969 8.77536 0.333374 8.33333 0.333374L1.66667 0.333374C1.22464 0.333374 0.800716 0.508969 0.488155 0.821529C0.175595 1.13409 1.11557e-07 1.55801 1.11557e-07 2.00004Z" fill="#119548"/>
</svg>
