<svg width="20" height="20" viewBox="0 0 20 20" fill="none" xmlns="http://www.w3.org/2000/svg">
<path d="M3.75 3.75004V17.8125C3.74993 17.903 3.77342 17.9919 3.81815 18.0705C3.86288 18.1491 3.92731 18.2147 4.0051 18.2609C4.08288 18.307 4.17134 18.3321 4.26178 18.3337C4.35221 18.3352 4.44149 18.3132 4.52083 18.2698L10 15.2802L15.4792 18.2698C15.5585 18.3132 15.6478 18.3352 15.7382 18.3337C15.8287 18.3321 15.9171 18.307 15.9949 18.2609C16.0727 18.2147 16.1371 18.1491 16.1818 18.0705C16.2266 17.9919 16.2501 17.903 16.25 17.8125V3.75004C16.25 3.1975 16.0305 2.6676 15.6398 2.2769C15.2491 1.8862 14.7192 1.6667 14.1667 1.6667H5.83333C5.2808 1.6667 4.7509 1.8862 4.36019 2.2769C3.96949 2.6676 3.75 3.1975 3.75 3.75004Z" fill="#119548"/>
</svg>
