<svg width="19" height="18" viewBox="0 0 19 18" fill="none" xmlns="http://www.w3.org/2000/svg">
<g clip-path="url(#clip0_1238_9983)">
<path d="M17.2386 7.39465L2.44929 1.36851C1.82624 1.11461 1.12235 1.22631 0.612361 1.65985C0.102371 2.09347 -0.110933 2.76158 0.0557578 3.40343L1.37214 8.47268H7.8173C8.11388 8.47268 8.35436 8.70879 8.35436 9.00006C8.35436 9.29129 8.11392 9.52744 7.8173 9.52744H1.37214L0.0557578 14.5967C-0.110933 15.2385 0.102335 15.9066 0.612361 16.3402C1.12339 16.7746 1.82735 16.885 2.44933 16.6316L17.2386 10.6055C17.912 10.3311 18.3303 9.71594 18.3303 9.00006C18.3303 8.28417 17.912 7.66897 17.2386 7.39465Z" fill="url(#paint0_linear_1238_9983)"/>
</g>
<defs>
<linearGradient id="paint0_linear_1238_9983" x1="9.16513" y1="1.23437" x2="9.16513" y2="16.7657" gradientUnits="userSpaceOnUse">
<stop stop-color="#119548"/>
<stop offset="1" stop-color="#66B134"/>
</linearGradient>
<clipPath id="clip0_1238_9983">
<rect width="18.3303" height="18" fill="white"/>
</clipPath>
</defs>
</svg>
