<svg width="20" height="20" viewBox="0 0 20 20" fill="none" xmlns="http://www.w3.org/2000/svg">
<path d="M11.5171 18.3334H8.48381C8.29375 18.3334 8.10939 18.2684 7.96131 18.1493C7.81322 18.0302 7.71031 17.864 7.66964 17.6784L7.33047 16.1084C6.87802 15.9101 6.449 15.6622 6.05131 15.3692L4.52047 15.8567C4.33928 15.9145 4.14376 15.9085 3.96641 15.8399C3.78905 15.7712 3.64052 15.6439 3.54547 15.4792L2.02547 12.8534C1.93143 12.6885 1.89613 12.4965 1.92534 12.309C1.95456 12.1214 2.04656 11.9493 2.18631 11.8209L3.37381 10.7375C3.3198 10.2468 3.3198 9.7516 3.37381 9.26085L2.18631 8.18002C2.04637 8.0515 1.95424 7.87925 1.92501 7.69151C1.89579 7.50376 1.93121 7.31166 2.02547 7.14669L3.54214 4.51919C3.63718 4.35445 3.78572 4.22718 3.96307 4.15851C4.14043 4.08984 4.33594 4.0839 4.51714 4.14169L6.04797 4.62919C6.25131 4.47919 6.46297 4.33919 6.68131 4.21252C6.89214 4.09419 7.10881 3.98669 7.33047 3.89085L7.67047 2.32252C7.71095 2.13685 7.81367 1.97059 7.9616 1.85131C8.10952 1.73203 8.29378 1.66689 8.48381 1.66669H11.5171C11.7072 1.66689 11.8914 1.73203 12.0394 1.85131C12.1873 1.97059 12.29 2.13685 12.3305 2.32252L12.6738 3.89169C12.9071 3.99502 13.1355 4.11085 13.3563 4.24002C13.5621 4.35919 13.7613 4.49002 13.953 4.63085L15.4846 4.14335C15.6657 4.08578 15.861 4.09183 16.0382 4.16049C16.2154 4.22915 16.3638 4.35629 16.4588 4.52085L17.9755 7.14835C18.1688 7.48752 18.1021 7.91669 17.8146 8.18085L16.6271 9.26419C16.6811 9.75493 16.6811 10.2501 16.6271 10.7409L17.8146 11.8242C18.1021 12.0892 18.1688 12.5175 17.9755 12.8567L16.4588 15.4842C16.3638 15.6489 16.2152 15.7762 16.0379 15.8449C15.8605 15.9135 15.665 15.9195 15.4838 15.8617L13.953 15.3742C13.5556 15.667 13.1268 15.9146 12.6746 16.1125L12.3305 17.6784C12.2898 17.8639 12.187 18.0299 12.0391 18.1491C11.8912 18.2682 11.7071 18.3332 11.5171 18.3334ZM9.99714 6.66669C9.11309 6.66669 8.26524 7.01788 7.64012 7.643C7.015 8.26812 6.66381 9.11597 6.66381 10C6.66381 10.8841 7.015 11.7319 7.64012 12.357C8.26524 12.9822 9.11309 13.3334 9.99714 13.3334C10.8812 13.3334 11.729 12.9822 12.3542 12.357C12.9793 11.7319 13.3305 10.8841 13.3305 10C13.3305 9.11597 12.9793 8.26812 12.3542 7.643C11.729 7.01788 10.8812 6.66669 9.99714 6.66669Z" fill="#119548"/>
</svg>
