<svg width="16" height="16" viewBox="0 0 16 16" fill="none" xmlns="http://www.w3.org/2000/svg">
<path d="M9.33317 9.50135V14.6667H2.6665C2.6663 13.8526 2.85245 13.0493 3.2107 12.3183C3.56895 11.5873 4.0898 10.948 4.73332 10.4494C5.37684 9.95078 6.12595 9.60611 6.92327 9.44178C7.72059 9.27746 8.54494 9.29784 9.33317 9.50135ZM7.99984 8.66669C5.78984 8.66669 3.99984 6.87669 3.99984 4.66669C3.99984 2.45669 5.78984 0.666687 7.99984 0.666687C10.2098 0.666687 11.9998 2.45669 11.9998 4.66669C11.9998 6.87669 10.2098 8.66669 7.99984 8.66669ZM12.6665 11.0574L14.0805 9.64269L15.0238 10.586L13.6092 12L15.0238 13.414L14.0805 14.3574L12.6665 12.9427L11.2525 14.3574L10.3092 13.414L11.7238 12L10.3092 10.586L11.2525 9.64269L12.6665 11.0574Z" fill="#119548"/>
</svg>
