<svg width="17" height="16" viewBox="0 0 17 16" fill="none" xmlns="http://www.w3.org/2000/svg">
<g clip-path="url(#clip0_1238_12436)">
<path d="M8.1123 3.23128C5.05533 3.23128 2.28311 4.90377 0.237496 7.62035C0.0705741 7.84292 0.0705741 8.15385 0.237496 8.37641C2.28311 11.0963 5.05533 12.7688 8.1123 12.7688C11.1693 12.7688 13.9415 11.0963 15.9871 8.37969C16.154 8.15712 16.154 7.84619 15.9871 7.62363C13.9415 4.90377 11.1693 3.23128 8.1123 3.23128ZM8.33159 11.3581C6.30234 11.4858 4.62657 9.81326 4.75422 7.78073C4.85895 6.10496 6.21724 4.74667 7.89301 4.64193C9.92227 4.51429 11.598 6.18678 11.4704 8.21931C11.3624 9.89181 10.0041 11.2501 8.33159 11.3581ZM8.23013 9.80671C7.13695 9.87544 6.23361 8.97537 6.30562 7.88219C6.36126 6.97885 7.09441 6.24897 7.99775 6.19006C9.09093 6.12133 9.99427 7.0214 9.92227 8.11458C9.86335 9.02119 9.1302 9.75107 8.23013 9.80671Z" fill="#119548"/>
</g>
<defs>
<clipPath id="clip0_1238_12436">
<rect width="16" height="16" fill="white" transform="translate(0.112305)"/>
</clipPath>
</defs>
</svg>
