<svg width="51" height="48" viewBox="0 0 51 48" fill="none" xmlns="http://www.w3.org/2000/svg">
<path d="M49.2871 23.7238C49.2871 26.3094 47.6771 28.6097 46.9204 30.9431C46.1357 33.3631 46.062 36.1652 44.5995 38.1802C43.137 40.1951 40.4714 41.1491 38.4417 42.6228C36.412 44.0964 34.7371 46.333 32.3221 47.1189C29.9923 47.8767 27.3152 47.082 24.7323 47.082C22.1494 47.082 19.4724 47.8767 17.1426 47.1189C14.7263 46.333 13.0336 44.0888 11.023 42.6228C8.98817 41.1428 6.34294 40.213 4.86518 38.1802C3.38742 36.1474 3.32892 33.3631 2.54425 30.9444C1.78121 28.6097 0.17627 26.3094 0.17627 23.7238C0.17627 21.1383 1.78757 18.8367 2.54425 16.5033C3.32892 14.0833 3.40141 11.2812 4.86518 9.26623C6.34294 7.22833 8.99198 6.30364 11.023 4.82361C13.0336 3.35888 14.7275 1.11337 17.1426 0.327503C19.4724 -0.430341 22.1494 0.36444 24.7323 0.36444C27.3152 0.36444 29.9923 -0.430341 32.3221 0.327503C34.7384 1.11337 36.4311 3.35888 38.4417 4.82361C40.4523 6.28835 43.1217 7.23343 44.5995 9.26623C46.062 11.2799 46.1357 14.0833 46.9204 16.5033C47.6771 18.8367 49.2871 21.137 49.2871 23.7238Z" fill="#E1D9C5"/>
<path d="M47.8157 23.7239C47.8157 26.1541 46.301 28.3168 45.5901 30.5114C44.8525 32.7849 44.7839 35.4202 43.4078 37.3129C42.0318 39.2056 39.5278 40.0984 37.6189 41.4893C35.71 42.8802 34.1368 44.9779 31.8668 45.7167C29.6768 46.4286 27.1613 45.681 24.7323 45.681C22.3033 45.681 19.7878 46.4286 17.5978 45.7167C15.3265 44.9779 13.7343 42.8674 11.8445 41.4893C9.95467 40.1112 7.44552 39.2247 6.05678 37.3129C4.66804 35.4011 4.61208 32.7849 3.87447 30.5114C3.16357 28.3168 1.64893 26.1541 1.64893 23.7239C1.64893 21.2937 3.16357 19.1297 3.87447 16.9364C4.61208 14.6616 4.68076 12.0264 6.05678 10.1337C7.43281 8.24099 9.93559 7.34814 11.8445 5.95727C13.7534 4.56641 15.3265 2.46865 17.5928 1.73118C19.784 1.01792 22.2982 1.76557 24.7285 1.76557C27.1588 1.76557 29.673 1.01792 31.863 1.73118C34.133 2.46865 35.7252 4.57914 37.6151 5.95727C39.5049 7.3354 42.0153 8.22188 43.404 10.1337C44.7928 12.0455 44.8487 14.6616 45.5851 16.9352C46.301 19.1297 47.8157 21.2925 47.8157 23.7239Z" fill="#8A6A27"/>
<path d="M24.7346 7.88739L23.3102 8.41995L23.3517 6.8308L22.4287 5.57077L23.8795 5.1213L24.7346 3.80908L25.5898 5.1213L27.0396 5.57077L26.1176 6.8308L26.1591 8.41995L24.7346 7.88739Z" fill="white"/>
<path d="M20.6163 8.27334L21.6132 8.42178L21.3852 7.39024L21.8269 6.43937L20.8239 6.34902L20.101 5.61328L19.7094 6.58781L18.8198 7.08476L19.5805 7.77747L19.7554 8.82084L20.6163 8.27334Z" fill="white"/>
<path d="M28.8516 8.27334L27.8544 8.42178L28.0825 7.39024L27.6406 6.43937L28.644 6.34902L29.3671 5.61328L29.7589 6.58781L30.6477 7.08476L29.8867 7.77747L29.7129 8.82084L28.8516 8.27334Z" fill="white"/>
<path d="M25.0889 16.8738C25.1786 16.8738 25.272 16.8866 25.3562 16.8866C26.037 16.8844 26.69 16.6158 27.1759 16.1383C27.6618 15.6607 27.9422 15.012 27.9574 14.3303C27.9725 13.6486 27.7212 12.988 27.257 12.4893C26.7928 11.9905 26.1525 11.6931 25.4724 11.6605C24.7924 11.6278 24.1266 11.8625 23.6169 12.3145C23.1072 12.7665 22.7939 13.4 22.7439 14.0799C22.6939 14.7599 22.911 15.4326 23.3491 15.9545C23.7872 16.4764 24.4115 16.8063 25.0889 16.8738ZM23.8257 14.1125C23.8621 13.7595 24.0196 13.43 24.2713 13.1801C24.523 12.9302 24.8534 12.7755 25.2062 12.7422C25.5591 12.7089 25.9125 12.7991 26.2064 12.9975C26.5002 13.1959 26.7164 13.4902 26.818 13.8302C26.9195 14.1703 26.9003 14.535 26.7635 14.8625C26.6267 15.1899 26.3808 15.4597 26.0677 15.626C25.7546 15.7922 25.3936 15.8446 25.0462 15.7743C24.6989 15.7039 24.3866 15.5152 24.1626 15.2401C24.0346 15.084 23.9389 14.9038 23.8811 14.7102C23.8232 14.5166 23.8044 14.3135 23.8257 14.1125Z" fill="#E1D9C5"/>
<path d="M33.4518 20.7739L30.5483 20.4805L27.8351 18.207C27.4573 17.8912 26.9938 17.6959 26.5042 17.6459L23.7581 17.3672C23.4344 17.3341 23.1074 17.3657 22.796 17.4601C22.4845 17.5545 22.1949 17.7099 21.9439 17.9173L18.3447 20.8509C18.2585 20.9168 18.1946 21.0077 18.1616 21.1113L17.0888 24.6261C16.9892 24.9147 16.9778 25.2265 17.0563 25.5216C17.1347 25.8166 17.2993 26.0815 17.5291 26.2823C17.7588 26.483 18.0432 26.6104 18.3457 26.6483C18.6482 26.6861 18.9552 26.6325 19.2271 26.4945C19.4148 26.4018 19.5816 26.2717 19.7173 26.1122C19.853 25.9527 19.9547 25.767 20.0162 25.5667L20.8784 22.7394L21.9567 21.8667L21.5704 25.6676L20.2084 29.9562L16.6092 33.7405C16.3305 34.0046 16.1679 34.3687 16.1573 34.7528C16.1467 35.1369 16.2888 35.5094 16.5524 35.7886C16.8161 36.0677 17.1796 36.2305 17.5631 36.2411C17.9466 36.2518 18.3186 36.1095 18.5973 35.8454L23.1558 31.852C23.2174 31.7981 23.2662 31.7311 23.2986 31.6558L24.3238 29.2136L26.0777 31.2635L27.6374 36.0728C27.7156 36.3863 27.896 36.6647 28.15 36.8639C28.404 37.0632 28.7171 37.1719 29.0398 37.1729C29.1506 37.1726 29.2611 37.1603 29.3693 37.1362C29.7411 37.0505 30.0641 36.821 30.2678 36.4978C30.4715 36.1747 30.5394 35.784 30.4567 35.4109L29.4242 29.6811C29.4102 29.599 29.3762 29.5216 29.3253 29.4556L26.788 26.0434L27.2273 21.6907L29.2009 23.3243C29.2835 23.392 29.384 23.434 29.4901 23.4453L33.1753 23.812C33.3777 23.8325 33.5822 23.8123 33.7767 23.7528C33.9712 23.6933 34.152 23.5956 34.3084 23.4653C34.4648 23.3351 34.5938 23.175 34.6878 22.9943C34.7818 22.8137 34.839 22.6161 34.8559 22.4131C34.8781 22.0112 34.7445 21.6163 34.4828 21.3109C34.2211 21.0054 33.8517 20.813 33.4518 20.7739ZM22.354 31.1278L17.8907 35.0387L17.8742 35.0552C17.8218 35.1067 17.7552 35.1413 17.6829 35.1544C17.6106 35.1675 17.5361 35.1586 17.469 35.1287C17.4019 35.0989 17.3453 35.0495 17.3065 34.987C17.2678 34.9245 17.2487 34.8518 17.2518 34.7783C17.2536 34.6831 17.2923 34.5924 17.3598 34.5253L17.3744 34.5124L17.4074 34.4776L21.0816 30.6107C21.1386 30.5519 21.1806 30.4802 21.2043 30.4017L22.3283 26.8648L23.5513 28.295L22.354 31.1278ZM33.6184 22.6533C33.5724 22.6923 33.519 22.7215 33.4614 22.7392C33.4038 22.7568 33.3432 22.7625 33.2834 22.7559L29.7629 22.3892L27.1395 20.2239C27.064 20.1609 26.9727 20.1198 26.8756 20.1051C26.7784 20.0904 26.6791 20.1026 26.5884 20.1403C26.4977 20.1781 26.419 20.24 26.3609 20.3194C26.3028 20.3988 26.2676 20.4925 26.2589 20.5906L25.695 26.1534C25.6804 26.2878 25.717 26.4227 25.7976 26.5311L28.3844 30.0148L29.4004 35.6254V35.6511C29.4115 35.6982 29.4132 35.7472 29.4054 35.795C29.3975 35.8428 29.3803 35.8886 29.3546 35.9298C29.317 35.9922 29.2616 36.042 29.1956 36.0727C29.1295 36.1035 29.0558 36.1138 28.9839 36.1024C28.9119 36.091 28.845 36.0583 28.7917 36.0086C28.7384 35.9589 28.7011 35.8944 28.6846 35.8234C28.6792 35.7978 28.6719 35.7727 28.6626 35.7482L27.0699 30.8362C27.0482 30.7689 27.0134 30.7066 26.9674 30.6529L22.6579 25.6107L23.1558 20.6932C23.1671 20.587 23.1466 20.4799 23.0969 20.3854C23.0473 20.2909 22.9708 20.2133 22.877 20.1624C22.7833 20.1115 22.6766 20.0897 22.5704 20.0996C22.4642 20.1096 22.3634 20.1509 22.2807 20.2184L20.0674 22.0152C19.9813 22.0813 19.9175 22.1721 19.8843 22.2756L18.969 25.2605C18.9508 25.3202 18.9205 25.3754 18.88 25.4229C18.8396 25.4703 18.7898 25.5089 18.7338 25.5362C18.6779 25.5636 18.6169 25.5791 18.5547 25.5818C18.4924 25.5845 18.4303 25.5744 18.3722 25.552C18.2633 25.5035 18.1763 25.4163 18.128 25.3072C18.0796 25.1982 18.0733 25.0751 18.1104 24.9617L19.1356 21.6045L22.6139 18.7662C22.7558 18.6498 22.9192 18.5626 23.0949 18.5097C23.2705 18.4569 23.4549 18.4393 23.6373 18.4582L26.3834 18.7369C26.6602 18.7649 26.9223 18.8754 27.1358 19.0541L29.9771 21.4175C30.059 21.4866 30.1598 21.5294 30.2663 21.5403L33.3328 21.8502C33.4556 21.8591 33.5702 21.9156 33.6522 22.0077C33.7342 22.0997 33.7772 22.2201 33.7722 22.3434C33.7627 22.4602 33.7082 22.5687 33.6202 22.6459L33.6184 22.6533Z" fill="#E1D9C5"/>
</svg>
