<svg width="18" height="18" viewBox="0 0 18 18" fill="none" xmlns="http://www.w3.org/2000/svg">
<g clip-path="url(#clip0_1238_13993)">
<path d="M11.116 3.02319L1.21212 12.9278C1.16229 12.9777 1.12631 13.0408 1.10918 13.1087L0.0114342 17.5148C-0.0214026 17.6474 0.0175732 17.7885 0.11437 17.8853C0.187611 17.9585 0.287406 17.999 0.389485 17.999C0.420752 17.999 0.452732 17.9952 0.483855 17.9873L4.88998 16.8894C4.95865 16.8723 5.02104 16.8365 5.07087 16.7867L14.9756 6.8828L11.116 3.02319Z" fill="white"/>
<path d="M17.4297 1.67263L16.3272 0.570176C15.5904 -0.166653 14.3062 -0.165939 13.5702 0.570176L12.2197 1.92062L16.0792 5.78009L17.4297 4.42964C17.7977 4.06172 18.0004 3.57203 18.0004 3.05121C18.0004 2.53039 17.7977 2.04069 17.4297 1.67263Z" fill="white"/>
</g>
<defs>
<clipPath id="clip0_1238_13993">
<rect width="18" height="18" fill="white"/>
</clipPath>
</defs>
</svg>
