<svg width="10" height="10" viewBox="0 0 10 10" fill="none" xmlns="http://www.w3.org/2000/svg">
<g clip-path="url(#clip0_1238_12128)">
<path d="M4.99967 0.833336C2.70217 0.833336 0.833008 2.7025 0.833008 5C0.833008 7.2975 2.70217 9.16667 4.99967 9.16667C7.29717 9.16667 9.16634 7.2975 9.16634 5C9.16634 2.7025 7.29717 0.833336 4.99967 0.833336ZM1.66634 5C1.66634 4.62542 1.73134 4.26584 1.84592 3.92959L2.49967 4.58334L3.33301 5.41667V6.25L4.16634 7.08334L4.58301 7.5V8.30459C2.94176 8.09834 1.66634 6.69667 1.66634 5ZM7.63717 7.03042C7.36509 6.81125 6.95259 6.66667 6.66634 6.66667V6.25C6.66634 6.02899 6.57854 5.81703 6.42226 5.66075C6.26598 5.50447 6.05402 5.41667 5.83301 5.41667H4.16634V4.16667C4.38736 4.16667 4.59932 4.07887 4.7556 3.92259C4.91188 3.76631 4.99967 3.55435 4.99967 3.33334V2.91667H5.41634C5.63736 2.91667 5.84932 2.82887 6.0056 2.67259C6.16188 2.51631 6.24967 2.30435 6.24967 2.08334V1.91209C7.46967 2.4075 8.33301 3.60417 8.33301 5C8.33293 5.73529 8.08812 6.44964 7.63717 7.03042Z" fill="#163E4F"/>
</g>
<defs>
<clipPath id="clip0_1238_12128">
<rect width="10" height="10" fill="white"/>
</clipPath>
</defs>
</svg>
